<?xml version="1.0" standalone="no"?>
<!DOCTYPE svg PUBLIC "-//W3C//DTD SVG 1.1//EN" "http://www.w3.org/Graphics/SVG/1.1/DTD/svg11.dtd" >
<svg xmlns="http://www.w3.org/2000/svg">
<metadata>
Copyright   : Copyright  2000-2011 Lucas de Groo.t All rights reserved. Published by LucasFonts.
Designer    : Lucas de Groot
Foundry     : LucasFonts
Foundry URL : http://lucasfonts.com
</metadata>
<defs>
<font id="TheSaB2i" horiz-adv-x="550" >
<font-face units-per-em="1000" ascent="740" descent="-260" />
<missing-glyph horiz-adv-x="218" />
<glyph unicode="&#xfb01;" horiz-adv-x="567" d="M521 672q-25 9 -56 14t-55 5q-83 0 -128.5 -41t-59.5 -116l-7 -37h302l-95 -497h-52l87 455h-250l-93 -487q-12 -62 -31.5 -105.5t-47 -70.5t-63.5 -39.5t-80 -12.5q-45 0 -85 9l14 48q21 -7 42.5 -9.5t39.5 -2.5q32 0 57 9.5t44.5 30.5t33.5 55t23 84l94 491h-116l9 42 h116l4 26q32 211 248 211q36 0 68 -5t58 -13z" />
<glyph unicode="&#xfb02;" horiz-adv-x="565" d="M422 0h-52l130 683q-51 9 -95 9q-79 0 -122 -32.5t-57 -105.5l-11 -57h156l-9 -42h-155l-93 -487q-12 -62 -31.5 -105.5t-47 -70.5t-63.5 -39.5t-80 -12.5q-45 0 -85 9l14 48q21 -7 42.5 -9.5t39.5 -2.5q32 0 57 9.5t44.5 30.5t33.5 55t23 84l94 491h-116l9 42h115l11 57 q17 88 73.5 134t159.5 46q44 0 82 -3.5t70 -8.5z" />
<glyph horiz-adv-x="0" />
<glyph horiz-adv-x="0" />
<glyph unicode="&#xd;" horiz-adv-x="500" />
<glyph unicode=" "  horiz-adv-x="218" />
<glyph unicode="&#x09;" horiz-adv-x="218" />
<glyph unicode="&#xa0;" horiz-adv-x="218" />
<glyph unicode="!" horiz-adv-x="312" d="M169 36q0 -18 -12 -30.5t-30 -12.5t-30 12.5t-12 30.5t12 30.5t30 12.5t30 -12.5t12 -30.5zM168 149h-41l94 549h62z" />
<glyph unicode="&#x22;" horiz-adv-x="321" d="M154 490h-37l27 206h61zM297 490h-37l27 206h61z" />
<glyph unicode="#" d="M237 429l-59 -200h166l59 200h-166zM548 429h-101l-59 -200h97l-7 -36h-101l-58 -193h-44l58 193h-166l-58 -193h-44l58 193h-99l7 36h103l59 200h-99l7 36h103l54 185h44l-54 -185h166l54 185h44l-54 -185h97z" />
<glyph unicode="$" d="M469 572q-24 8 -54 12.5t-58 4.5q-41 0 -71.5 -9.5t-50.5 -25t-30.5 -36.5t-10.5 -45q0 -33 17.5 -54.5t44.5 -38.5t57.5 -31.5t57.5 -34t44.5 -46.5t17.5 -68q0 -30 -13.5 -59.5t-39 -55t-62.5 -43t-85 -23.5l-20 -104h-44l20 102q-32 0 -63 4.5t-58 12.5l12 53 q6 -3 19.5 -7t30.5 -8t37.5 -6.5t41.5 -2.5q40 0 71 11t52.5 29t33 40t11.5 45q0 36 -17.5 59.5t-43.5 41t-57 32t-57 33t-43.5 44.5t-17.5 65q0 32 13.5 61t39 51.5t61 37.5t79.5 19l18 98h44l-18 -96q30 -1 56.5 -4t46.5 -8z" />
<glyph unicode="%" horiz-adv-x="725" d="M613 189q0 34 -15 51.5t-50 17.5q-23 0 -44 -11t-37 -31t-25.5 -48.5t-9.5 -64.5q0 -34 15 -52t50 -18q23 0 44 11t37 31.5t25.5 49t9.5 64.5zM324 548q0 34 -15 51.5t-50 17.5q-23 0 -44 -11t-37 -31t-25.5 -48.5t-9.5 -64.5q0 -34 15 -52t50 -18q23 0 44 11t37 31.5 t25.5 49t9.5 64.5zM664 197q0 -48 -15 -86t-39 -64.5t-55 -40.5t-64 -14q-57 0 -83.5 27.5t-26.5 75.5t15 85.5t39 64t55 40.5t64 14q57 0 83.5 -27t26.5 -75zM87 -19l-31 27l609 659l32 -27zM375 556q0 -48 -15 -86t-39 -64.5t-55 -40.5t-64 -14q-57 0 -83.5 27.5 t-26.5 75.5t15 85.5t39 64t55 40.5t64 14q57 0 83.5 -27t26.5 -75z" />
<glyph unicode="&#x26;" horiz-adv-x="777" d="M479 128q-54 55 -111 120t-103 130q-32 -22 -61 -45.5t-51.5 -49.5t-36 -56.5t-13.5 -66.5q0 -24 7.5 -46t24 -39t42 -27.5t62.5 -10.5q57 0 119 21t121 70zM425 619q0 32 -19 52t-58 20q-57 0 -87 -32.5t-30 -80.5q0 -28 14.5 -60.5t39.5 -73.5l53.5 38t44.5 40 t30.5 44.5t11.5 52.5zM694 437q-14 -96 -52.5 -173t-92.5 -132l65 -60.5t57 -48.5l-38 -38q-34 28 -62.5 54l-59.5 57q-65 -54 -139.5 -79t-145.5 -25q-47 0 -81 13t-56 34.5t-32 49t-10 57.5q0 47 16.5 85t44 70t62.5 59.5t71 52.5q-29 46 -46.5 84.5t-17.5 71.5 q0 34 12.5 64t36 52.5t56 35.5t72.5 13q66 0 95.5 -30.5t29.5 -75.5q0 -36 -14 -66t-38 -56t-55 -50l-64 -48q42 -60 97 -123t112 -121q41 42 76.5 112.5t46.5 160.5h54v0z" />
<glyph unicode="'" horiz-adv-x="178" d="M154 490h-37l27 206h61z" />
<glyph unicode="(" horiz-adv-x="294" d="M361 755q-46 -57 -88.5 -128.5t-75 -151.5t-52 -166.5t-19.5 -172.5q0 -88 12.5 -167t44.5 -151l-41 -21q-37 87 -52 167t-15 166q0 87 18 172.5t51 168t79.5 160t103.5 146.5l34 -22v0z" />
<glyph unicode=")" horiz-adv-x="294" d="M240 444q0 -87 -18 -172.5t-51 -168t-79.5 -160t-103.5 -146.5l-34 22q46 57 88.5 128.5t75 151.5t52 166.5t19.5 172.5q0 88 -12.5 167t-44.5 151l41 21q37 -87 52 -167t15 -166z" />
<glyph unicode="*" horiz-adv-x="356" d="M268 590l92 -54l-25 -37l-86 66l-16 -118l-44 7l28 108l-97 -62l-20 40l111 49l-92 54l24 35l85 -64l17 118l44 -7l-29 -109l100 62l20 -39z" />
<glyph unicode="+" d="M509 275h-206l-41 -215h-50l41 215h-204l9 45h204l41 214h50l-41 -214h206z" />
<glyph unicode="," horiz-adv-x="196" d="M64 79q22 0 33.5 -18t5 -47.5t-34 -68t-83.5 -80.5l-21 25q54 46 67 80t2 56q-9 19 1 36t30 17z" />
<glyph unicode="-" horiz-adv-x="326" d="M280 274h-226l9 45h226z" />
<glyph unicode="." horiz-adv-x="196" d="M107 38q0 -20 -12 -32.5t-31 -12.5q-17 0 -29 12t-12 29q0 20 12.5 32.5t30.5 12.5t29.5 -12t11.5 -29z" />
<glyph unicode="/" horiz-adv-x="405" d="M-25 -161h-50l518 918h50z" />
<glyph unicode="0" d="M463 464q0 70 -25.5 110t-89.5 40q-43 0 -77 -22.5t-60 -59t-44 -83t-29.5 -94t-17 -92t-5.5 -77.5q0 -70 26 -109.5t91 -39.5q42 0 76 22.5t59.5 59t43.5 83t29.5 94t17 91.5t5.5 77zM520 472q0 -41 -7 -92.5t-21.5 -105t-38 -104.5t-56.5 -90.5t-77 -63.5t-99 -24 q-44 0 -74.5 13.5t-50.5 38t-29 59t-9 75.5t7 92.5t21.5 105t38 104.5t56.5 90.5t77 63.5t99 24q43 0 74 -13.5t51 -38t29 -59t9 -75.5z" />
<glyph unicode="1" d="M439 0h-404l9 48h185l105 551l-187 -69l-2 49l207 71h47l-115 -602h164z" />
<glyph unicode="2" d="M496 509q0 -32 -7.5 -64t-30 -68t-63.5 -78.5t-107 -95.5l-192 -154v-1q28 1 88.5 1.5t139.5 0.5h114l-10 -50h-411l8 42l237 196q53 44 87.5 78.5t54.5 65t28 58.5t8 60q0 49 -30 81.5t-92 32.5q-23 0 -46.5 -5t-45.5 -13.5t-41 -18.5t-33 -20l-18 43q35 21 82.5 39.5 t109.5 18.5q42 0 74 -12t53.5 -32t32 -47t10.5 -58z" />
<glyph unicode="3" d="M498 534q0 -35 -12.5 -64.5t-34 -53t-51.5 -40.5t-66 -26l-1 -1q60 -7 90.5 -42t30.5 -89q0 -38 -17 -78t-52.5 -73t-91 -54t-133.5 -21q-31 0 -61 4t-54 12l11 52q24 -9 54 -15t63 -6q60 0 102 16t69 41t39 55.5t12 59.5q0 51 -40 80.5t-116 29.5q-26 0 -48.5 -1 t-48.5 -3l9 46h16q83 0 136.5 15.5t84 39.5t42 52.5t11.5 55.5q0 42 -30.5 65t-84.5 23q-42 0 -79.5 -11t-75.5 -29l-3 49q36 14 76.5 24.5t88.5 10.5q82 0 123.5 -35t41.5 -89z" />
<glyph unicode="4" d="M415 593l-335 -388q28 1 66 1.5l75.5 1t69.5 0.5h51l74 385h-1zM395 208h124l-10 -49h-124l-30 -159h-53l30 159h-319l5 40l389 451h72z" />
<glyph unicode="5" d="M506 598h-282l-41 -212q17 2 36.5 2.5t33.5 0.5q52 0 90 -11.5t63.5 -31.5t38 -47.5t12.5 -59.5q0 -48 -20.5 -92.5t-58.5 -79t-93 -55t-125 -20.5q-34 0 -61 3t-54 10l10 52q52 -19 115 -19q54 0 96.5 15t72 41t45.5 61t16 76q0 57 -42.5 85t-120.5 28q-31 0 -62 -2.5 t-49 -5.5l60 314h330z" />
<glyph unicode="6" d="M435 243q0 52 -31 84t-97 32q-44 0 -79.5 -17t-60 -44t-38 -61t-13.5 -67q0 -60 32.5 -97t98.5 -37q39 0 73 15.5t59.5 43t40.5 65.5t15 83zM499 608q-11 2 -23 2.5t-29 0.5q-116 0 -189.5 -67t-115.5 -188q-3 -8 -8 -23.5l-11 -34.5h1q16 26 38.5 45.5t48 33t53.5 20.5 t56 7q43 0 75 -11.5t53.5 -32t32 -48t10.5 -59.5q0 -54 -20 -101.5t-55 -83t-83 -56t-103 -20.5q-85 0 -128 50t-43 140q0 24 6 68.5t22 97.5t44.5 108t73.5 100t109 73.5t151 28.5q12 0 24.5 -0.5t18.5 -1.5z" />
<glyph unicode="7" d="M558 603l-110 -154l-104 -155.5l-95 -151.5t-82 -142h-65l182 293t213 307q-7 0 -34.5 -0.5t-66.5 -1t-84 -0.5h-85h-100l10 52h430z" />
<glyph unicode="8" d="M408 177q0 25 -10.5 44.5t-27.5 35.5t-39 28.5t-46 24.5q-58 -27 -93.5 -51.5t-55.5 -47t-27 -43.5t-7 -40q0 -40 33.5 -65.5t99.5 -25.5q31 0 62 8.5t55.5 25.5t40 43.5t15.5 62.5zM458 525q0 44 -31.5 66t-82.5 22q-38 0 -67 -12t-49.5 -31t-31 -43t-10.5 -48 q0 -21 9 -37.5t24 -31t34.5 -26.5t41.5 -24q46 22 77.5 42t50.5 39t27 39.5t8 44.5zM515 534q0 -35 -11 -62t-33.5 -50t-55.5 -43.5t-77 -42.5q24 -13 47 -27.5t41 -32.5t28.5 -41t10.5 -52q0 -44 -20 -79.5t-53.5 -60.5t-77 -38t-89.5 -13q-85 0 -132.5 34.5t-47.5 95.5 q0 64 48.5 114t146.5 96q-22 12 -42 25t-35.5 29.5t-24.5 37.5t-9 47q0 36 16.5 69.5t46 60t70.5 42t91 15.5q79 0 120.5 -33.5t41.5 -90.5z" />
<glyph unicode="9" d="M459 480q0 28 -8 52.5t-24 42.5t-40 28.5t-56 10.5q-42 0 -76 -18t-59 -47t-38.5 -66t-13.5 -75q0 -57 30.5 -87.5t89.5 -30.5q40 0 76 15t62 41t41.5 60.5t15.5 73.5zM516 477q0 -23 -5.5 -67.5t-21 -98.5t-43 -110.5t-72.5 -103t-109.5 -76t-153.5 -29.5q-23 0 -40 1.5 t-34 4.5l9 51q17 -4 37.5 -6.5t39.5 -2.5q114 0 184.5 60t112.5 177l10 28.5t9 21.5h-1q-32 -38 -80 -61.5t-106 -23.5q-81 0 -122.5 41.5t-41.5 113.5q0 48 17.5 95t50.5 84t80 59.5t106 22.5q78 0 126 -43.5t48 -137.5z" />
<glyph unicode=":" horiz-adv-x="275" d="M158 36q0 -18 -12 -30.5t-30 -12.5t-30 12.5t-12 30.5t12 30.5t30 12.5t30 -12.5t12 -30.5zM216 338q0 -18 -12 -30.5t-30 -12.5t-30 12.5t-12 30.5t12 30.5t30 12.5t30 -12.5t12 -30.5z" />
<glyph unicode=";" horiz-adv-x="275" d="M117 79q22 0 33.5 -18t5 -47.5t-34 -68t-83.5 -80.5l-21 25q54 46 67 80t2 56q-9 19 1 36t30 17zM216 338q0 -18 -12 -30.5t-30 -12.5t-30 12.5t-12 30.5t12 30.5t30 12.5t30 -12.5t12 -30.5z" />
<glyph unicode="&#x37e;" horiz-adv-x="275" d="M117 79q22 0 33.5 -18t5 -47.5t-34 -68t-83.5 -80.5l-21 25q54 46 67 80t2 56q-9 19 1 36t30 17zM216 338q0 -18 -12 -30.5t-30 -12.5t-30 12.5t-12 30.5t12 30.5t30 12.5t30 -12.5t12 -30.5z" />
<glyph unicode="&#x3c;" d="M158 305l237 -239l-37 -34l-268 277l359 268l30 -36z" />
<glyph unicode="=" d="M482 199h-434l9 46h434zM511 350h-434l8 46h434z" />
<glyph unicode="&#x3e;" d="M121 32l-30 36l321 236l-237 239l37 34l268 -277z" />
<glyph unicode="?" horiz-adv-x="432" d="M188 36q0 -18 -12 -30.5t-30 -12.5t-30 12.5t-12 30.5t12 30.5t30 12.5t30 -12.5t12 -30.5zM402 527q0 -40 -17.5 -69t-43 -53.5t-54.5 -48t-52 -52t-35.5 -66t-5.5 -89.5h-53q-7 55 5.5 94.5t35 70t50.5 55l53 48t42 49t17 59.5q0 48 -46.5 83t-121.5 46l16 49 q49 -6 88 -23t66 -40.5t41.5 -52.5t14.5 -60z" />
<glyph unicode="@" horiz-adv-x="966" d="M611 476q-14 4 -31 5.5t-34 1.5q-35 0 -67.5 -18.5t-58 -51t-41 -77t-15.5 -95.5q0 -30 10.5 -46.5t32.5 -16.5q23 0 49 15t51 44.5t47.5 74t39.5 103.5l17 61v0zM891 434q0 -68 -18.5 -124t-50 -96t-74 -62.5t-89.5 -22.5q-35 0 -57 11t-33.5 28t-12.5 39t6 43h-3 q-6 -15 -22 -36t-38.5 -39.5t-49.5 -32t-54 -13.5q-45 0 -65 26t-20 74q0 43 13 95t42 96.5t74.5 74.5t110.5 30q35 0 67 -2.5t56 -7.5l-64 -227q-16 -56 0 -84t59 -28q38 0 70 19.5t55.5 54t36.5 81.5t13 103q0 48 -15 93.5t-48.5 81.5t-86.5 57.5t-129 21.5 q-83 0 -158.5 -35t-132.5 -96t-91 -143.5t-34 -176.5q0 -63 19 -115t56.5 -89t91.5 -57t125 -20q45 0 83.5 5.5t80.5 17.5l2 -47q-42 -12 -88 -17.5t-86 -5.5q-79 0 -141.5 22.5t-105.5 64.5t-65.5 102t-22.5 136q0 104 38.5 194.5t104 157.5t151 105.5t178.5 38.5 q84 0 145 -24t100 -64.5t58 -94.5t19 -113z" />
<glyph unicode="A" horiz-adv-x="596" d="M380 524q-4 23 -7.5 47t-5.5 45h-1q-20 -42 -46 -89l-168 -306h281zM469 0l-28 177h-313l-98 -177h-61l381 675h56l121 -675h-58z" />
<glyph unicode="B" horiz-adv-x="548" d="M426 220q0 54 -42 81.5t-135 27.5h-45t-38 -1l-53 -281q14 -2 38 -4t60 -2q52 0 92.5 14.5t67.5 39t41 57t14 68.5zM466 543q0 19 -5.5 36t-21 29t-42 19t-68.5 7q-29 0 -55 -0.5t-50 -1.5l-50 -260q17 -1 32 -1h37q48 0 89 11t70.5 33t46.5 54t17 74zM521 553 q0 -41 -13 -74t-35 -57.5t-49.5 -41t-55.5 -25.5v-1q54 -9 84 -45t30 -82t-18 -88t-54 -73.5t-89.5 -50t-125.5 -18.5q-29 0 -69.5 1t-74.5 2l128 675q30 0 68 1t98 1q49 0 82.5 -9.5t54.5 -26.5t30 -39.5t9 -48.5z" />
<glyph unicode="C" horiz-adv-x="575" d="M580 612q-77 26 -155 26q-80 0 -138.5 -35t-96.5 -93t-56 -131.5t-18 -150.5q0 -41 9 -75.5t31 -59.5t59.5 -39t93.5 -14q45 0 90 10t81 27l8 -44q-43 -18 -93.5 -29t-100.5 -11q-68 0 -113.5 18t-72.5 48.5t-38.5 72t-11.5 89.5q0 91 24.5 174.5t72.5 147.5t119 101.5 t164 37.5q45 0 83.5 -5.5t73.5 -15.5z" />
<glyph unicode="D" horiz-adv-x="675" d="M594 425q0 44 -11.5 82.5t-40 67t-76 44.5t-118.5 16q-32 0 -66.5 -1t-57.5 -2l-111 -584q23 -3 52 -5t47 -2q102 0 174 33t118.5 87t68 123t21.5 141zM650 432q0 -82 -26 -160.5t-80.5 -139.5t-139 -98t-200.5 -37q-52 0 -87 2t-66 1l128 675q38 0 86 1.5t92 1.5 q84 0 140.5 -19.5t90 -53t48 -78.5t14.5 -95z" />
<glyph unicode="E" horiz-adv-x="499" d="M492 632h-268l-50 -262h256l-8 -43h-256l-53 -283h268l-9 -44h-321l128 675h321z" />
<glyph unicode="F" horiz-adv-x="462" d="M492 632h-268l-50 -262h254l-8 -43h-254l-62 -327h-53l128 675h321z" />
<glyph unicode="G" horiz-adv-x="675" d="M632 602q-41 19 -84.5 28t-83.5 9q-74 0 -138.5 -30t-111.5 -82t-74 -122.5t-27 -151.5q0 -39 12 -77.5t38 -69.5t68.5 -50t103.5 -19q48 0 86 7t74 18l52 272h53l-59 -307q-54 -18 -110.5 -26.5t-104.5 -8.5q-68 0 -118.5 19.5t-84 54t-50.5 81.5t-17 103q0 97 33 177 t90 137t133 88t161 31q97 0 175 -28z" />
<glyph unicode="H" horiz-adv-x="695" d="M548 0h-53l63 329h-393l-63 -329h-53l128 675h53l-57 -302h393l57 302h53z" />
<glyph unicode="I" horiz-adv-x="249" d="M104 0h-53l128 675h53z" />
<glyph unicode="J" horiz-adv-x="315" d="M203 164q-17 -87 -59 -128.5t-123 -41.5q-19 0 -36.5 2.5t-31.5 5.5l10 51q14 -5 32.5 -9t35.5 -4q45 0 75 26t44 98l97 511h53z" />
<glyph unicode="K" horiz-adv-x="531" d="M229 342l226 -342h-69l-218 345l-65 -345h-53l128 675h53l-63 -330l338 330h72z" />
<glyph unicode="L" horiz-adv-x="415" d="M362 0h-311l128 675h53l-119 -631h258z" />
<glyph unicode="M" horiz-adv-x="875" d="M764 0h-54l22 449q3 58 6 101t6 77h-1l-20.5 -42.5l-29.5 -57.5l-276 -527h-66l-71 495q-5 37 -9 71.5t-6 60.5h-1l-22.5 -80t-29.5 -98l-138 -449h-58l219 675h71l71 -501q5 -37 8 -69.5t5 -57.5h1q11 25 26 55.5l32 62.5l267 510h81z" />
<glyph unicode="N" horiz-adv-x="692" d="M547 0h-62l-215 487q-16 36 -30 71.5t-25 68.5l-24.5 -153t-27.5 -156l-59 -318h-54l128 675h63l214 -486q30 -67 56 -138l23.5 136.5l25.5 145.5l62 342h54z" />
<glyph unicode="O" horiz-adv-x="692" d="M612 434q0 96 -46 150t-141 54q-66 0 -123 -31t-99 -85t-65.5 -126t-23.5 -154q0 -94 46 -149t135 -55q64 0 121.5 30t101 83t69 125.5t25.5 157.5zM671 440q0 -96 -30 -178t-81.5 -142t-121.5 -94t-149 -34q-118 0 -176 63.5t-58 180.5q0 92 29 173.5t79.5 142t120 96 t150.5 35.5q114 0 175.5 -63.5t61.5 -179.5z" />
<glyph unicode="P" horiz-adv-x="505" d="M458 515q0 28 -8 50t-25.5 37.5t-46 23.5t-69.5 8q-29 0 -48.5 -0.5t-37.5 -2.5l-58 -304q28 -6 70 -6q43 0 83.5 14.5t71.5 40t49.5 61t18.5 78.5zM514 525q0 -57 -25 -103t-66.5 -78.5t-94 -50t-107.5 -17.5q-15 0 -33 0.5t-32 2.5l-53 -279h-53l128 675q67 3 145 3 q99 0 145 -43t46 -110z" />
<glyph unicode="Q" horiz-adv-x="693" d="M612 434q0 96 -46 150t-141 54q-66 0 -123 -31t-99 -85t-65.5 -126t-23.5 -154q0 -94 46 -149t135 -55q64 0 121.5 30t101 83t69 125.5t25.5 157.5zM612 -164q-61 -8 -105 -0.5t-82.5 18t-77 18.5t-87.5 1l8 46q56 7 97.5 -0.5t80 -18t79.5 -18t96 -0.5zM671 440 q0 -96 -30 -178t-81.5 -142t-121.5 -94t-149 -34q-118 0 -176 63.5t-58 180.5q0 92 29 173.5t79.5 142t120 96t150.5 35.5q114 0 175.5 -63.5t61.5 -179.5z" />
<glyph unicode="R" horiz-adv-x="529" d="M448 533q0 53 -32.5 77.5t-107.5 24.5q-27 0 -47 -0.5t-37 -2.5l-50 -263q9 -1 25 -1.5t39 -0.5q43 0 81.5 10t67 31t45 52t16.5 73zM503 537q0 -51 -23 -91t-60 -67t-84 -41t-95 -14l22 -34l21 -35l156 -255h-67l-193 325h-15l-61 -325h-53l128 675q29 2 59.5 2.5 t77.5 0.5q98 0 142.5 -37.5t44.5 -103.5z" />
<glyph unicode="S" horiz-adv-x="447" d="M420 624q-26 9 -51.5 12t-42.5 3q-43 0 -74.5 -12t-52.5 -31.5t-31 -43t-10 -47.5q0 -35 16 -60.5t40.5 -46t52.5 -39.5t52.5 -40.5t40.5 -50t16 -67.5q0 -45 -18.5 -83.5t-52 -66t-80 -43.5t-102.5 -16q-23 0 -50.5 3t-50.5 11l11 54q18 -8 45.5 -14t51.5 -6 q91 0 141 43t50 111q0 33 -16 57t-40 43.5t-51.5 38t-51.5 40.5t-40 50.5t-16 69.5q0 38 15.5 72.5t45 60.5t72.5 41.5t99 15.5q22 0 42.5 -1.5t49.5 -7.5z" />
<glyph unicode="T" horiz-adv-x="511" d="M564 631h-209l-121 -631h-53l121 631h-210l8 44h472z" />
<glyph unicode="U" horiz-adv-x="688" d="M590 247q-25 -131 -99 -193t-200 -62q-72 0 -116 18t-66 49t-24.5 73.5t6.5 90.5l86 452h53l-86 -449q-9 -47 -6 -82.5t20.5 -59.5t51.5 -36t88 -12q49 0 88.5 11t69.5 36.5t50.5 67.5t32.5 104l80 420h52z" />
<glyph unicode="V" horiz-adv-x="595" d="M274 0h-57l-118 675h58l77 -472l11 -72.5t10 -75.5h1q17 38 37.5 76.5l41.5 76.5l262 467h60z" />
<glyph unicode="W" horiz-adv-x="937" d="M667 0h-69l-52 534l-4 50t-3 45h-1q-17 -44 -42 -97l-250 -532h-70l-52 675h55l36 -507q2 -35 3 -64t1 -58h1l24.5 60t26.5 59l240 510h71l53 -520q6 -56 6 -109h1q8 23 16.5 44.5t20.5 47.5l240 537h56z" />
<glyph unicode="X" horiz-adv-x="557" d="M323 352l162 -352h-62l-136 308l-250 -308h-64l294 353l-150 322h60l126 -278l227 278h64z" />
<glyph unicode="Y" horiz-adv-x="502" d="M274 247l-47 -247h-53l47 247l-125 428h55l73 -260q9 -31 16.5 -61.5l14.5 -61.5h1q18 32 40 66l45 68l164 249h62z" />
<glyph unicode="Z" horiz-adv-x="516" d="M542 638l-414 -520l-29.5 -36l-30.5 -36q18 2 68 2.5t118 0.5h180l-10 -49h-426l7 37l392 494l42 50l43 48q-30 -1 -69.5 -1.5t-93.5 -0.5h-190l9 48h411z" />
<glyph unicode="[" horiz-adv-x="310" d="M361 727h-123l-168 -880h124l-8 -40h-172l183 959h172z" />
<glyph unicode="\" horiz-adv-x="397" d="M281 -161l-168 918h45l170 -918h-47z" />
<glyph unicode="]" horiz-adv-x="310" d="M127 -193h-172l8 40h123l168 880h-124l8 39h172z" />
<glyph unicode="^" d="M429 349l-100 282l-201 -282l-36 21l222 305h46l112 -304z" />
<glyph unicode="_" d="M463 -252h-550l8 41h550z" />
<glyph unicode="`" horiz-adv-x="358" d="M258 581l-102 122l45 31l92 -129z" />
<glyph unicode="a" horiz-adv-x="534" d="M423 450q-18 5 -39 8t-47 3q-67 0 -113.5 -29t-75 -74.5t-41.5 -101.5t-13 -109q0 -60 17.5 -85.5t45.5 -25.5q29 0 57.5 18t55 47.5t50 68t42.5 79t32 80.5t20 74l9 47v0zM482 489l-38 -197.5l-24.5 -128l-16.5 -87.5t-14 -76h-55q7 36 24 96.5t44 148.5l-2 1 q-12 -30 -33 -73.5t-52.5 -84t-73.5 -69t-95 -28.5q-51 0 -78.5 34.5t-27.5 112.5q0 67 17.5 132.5t54.5 117t95 83.5t139 32q40 0 73.5 -4t62.5 -10z" />
<glyph unicode="b" horiz-adv-x="534" d="M440 350q0 60 -17.5 85.5t-45.5 25.5q-29 0 -57.5 -18t-55 -47.5t-49.5 -67.5t-42 -78.5t-32.5 -80t-19.5 -72.5l-10 -50q20 -5 40 -8t46 -3q67 0 113.5 29t75 74.5t41.5 101.5t13 109zM494 359q0 -67 -17.5 -132.5t-54.5 -117t-95 -83.5t-139 -32q-40 0 -73.5 4 t-62.5 10l138 722h52l-52 -271q-2 -11 -5 -24.5t-9.5 -36l-16.5 -57l-25 -85.5l2 -1q19 51 45 96.5t57.5 80t69 54.5t80.5 20q51 0 78.5 -34.5t27.5 -112.5z" />
<glyph unicode="c" horiz-adv-x="420" d="M418 439q-23 11 -48 17t-57 6q-55 0 -95.5 -28t-67.5 -72t-40 -97t-13 -102q0 -22 4 -44t16.5 -39.5t36 -28.5t62.5 -11q35 0 67.5 8t58.5 20l8 -43q-28 -12 -66 -21t-80 -9q-48 0 -79.5 12.5t-50 33.5t-26.5 49.5t-8 60.5q0 70 18.5 134t54.5 112.5t88 77t118 28.5 q33 0 60 -5t51 -13z" />
<glyph unicode="d" horiz-adv-x="534" d="M423 450q-18 5 -39 8t-47 3q-67 0 -113.5 -29t-75 -74.5t-41.5 -101.5t-13 -109q0 -60 17.5 -85.5t45.5 -25.5q29 0 57.5 18t55 47.5t50 68t42.5 79t32 80.5t20 74l9 47v0zM423 180l-34 -180h-54q6 36 23 96.5t44 148.5l-2 1q-12 -30 -33 -73.5t-52.5 -84t-73.5 -69 t-95 -28.5q-51 0 -78.5 34.5t-27.5 112.5q0 67 17.5 132.5t54.5 117t95 83.5t139 32q23 0 43.5 -2t41.5 -5l44 234h53z" />
<glyph unicode="e" horiz-adv-x="468" d="M383 394q0 34 -23 51.5t-59 17.5q-35 0 -64.5 -14t-52.5 -38.5t-40 -57.5t-27 -71q142 6 204 34t62 78zM439 400q0 -71 -79.5 -115t-252.5 -51q-3 -14 -5 -36t-2 -40q0 -36 6.5 -59.5t21 -37t38 -18.5t57.5 -5q35 0 70 7.5t64 20.5l5 -44q-33 -14 -72.5 -22t-87.5 -8 q-77 0 -118 34t-41 120q0 67 17 131.5t50 115t82.5 81.5t115.5 31t98.5 -30t32.5 -75z" />
<glyph unicode="f" horiz-adv-x="331" d="M456 680q-41 11 -81 11q-64 0 -102.5 -38t-52.5 -121l-6 -35h156l-9 -42h-155l-93 -487q-12 -62 -31.5 -105.5t-47 -70.5t-63.5 -39.5t-80 -12.5q-45 0 -85 9l14 48q21 -7 42.5 -9.5t39.5 -2.5q32 0 57 9.5t44.5 30.5t33.5 55t23 84l94 491h-116l9 42h115l6 33 q19 106 74 155t144 49q22 0 42 -2t43 -7z" />
<glyph unicode="g" horiz-adv-x="533" d="M423 450q-18 5 -39 8t-47 3q-67 0 -113.5 -29t-75 -74.5t-41.5 -101.5t-13 -109q0 -60 17.5 -85.5t45.5 -25.5q29 0 57.5 18t55 47.5t50 68t42.5 79t32 80.5t20 74l9 47v0zM377 -60q-7 -38 -24 -74t-48.5 -64t-80 -45t-117.5 -17q-41 0 -70 4.5t-54 12.5l11 57 q28 -11 61.5 -18t68.5 -7q42 0 76 9t59.5 29.5t43 54.5t27.5 85q7 36 13 64t13.5 57.5t18 65l25.5 85.5l-2 1q-11 -27 -32 -69.5t-52 -82.5t-73 -68.5t-95 -28.5q-51 0 -78.5 34.5t-27.5 112.5q0 67 17.5 132.5t54.5 117t95 83.5t139 32q40 0 73.5 -4t62.5 -10z" />
<glyph unicode="h" horiz-adv-x="567" d="M422 0h-52l62 324q14 71 0 104t-57 33q-29 0 -57.5 -18t-55 -47.5t-49.5 -67.5t-42 -78.5t-32 -80t-19 -72.5l-18 -97h-52l139 730h52l-49 -256q-2 -13 -5.5 -29t-10 -40.5t-16.5 -59t-26 -84.5l2 -1q18 46 43.5 90t57 78.5t69 56t79.5 21.5q66 0 91.5 -44.5t9.5 -127.5z " />
<glyph unicode="i" horiz-adv-x="247" d="M102 0h-52l95 497h52zM242 662q0 -18 -11.5 -30t-28.5 -12t-27.5 11t-10.5 27q0 18 11.5 30t28.5 12t27.5 -11t10.5 -27z" />
<glyph unicode="j" horiz-adv-x="251" d="M90 -82q-9 -46 -22.5 -79.5t-34.5 -55.5t-51 -32.5t-72 -10.5q-18 0 -34 2t-28 5l10 49q14 -5 30 -8t30 -3q29 0 49 8t33.5 26t23 48t18.5 74l107 556h52zM246 662q0 -18 -11.5 -30t-28.5 -12t-27.5 11t-10.5 27q0 18 11.5 30t28.5 12t27.5 -11t10.5 -27z" />
<glyph unicode="k" horiz-adv-x="447" d="M212 275l166 -275h-65l-158 276l-53 -276h-52l139 730h52l-86 -453l249 240l33 -36z" />
<glyph unicode="l" horiz-adv-x="247" d="M102 0h-52l139 730h52z" />
<glyph unicode="m" horiz-adv-x="871" d="M726 0h-52l62 324q14 72 0.5 105t-53.5 33q-37 0 -76.5 -32.5t-74 -84.5t-61.5 -117.5t-39 -130.5l-18 -97h-52l62 324q14 72 1 105t-54 33q-37 0 -76.5 -32.5t-74 -84.5t-61.5 -117.5t-39 -130.5l-18 -97h-52l50 259l45 238h54q-5 -27 -19.5 -81.5t-45.5 -154.5l2 -1 q17 45 42 89.5t56 79t68 56t79 21.5q51 0 74.5 -26t23.5 -71q0 -32 -8.5 -65t-24.5 -83l2 -1q17 45 42 89.5t56 79t68 56t79 21.5q63 0 88 -44.5t9 -127.5z" />
<glyph unicode="n" horiz-adv-x="567" d="M422 0h-52l62 324q14 71 0 104t-57 33q-29 0 -57.5 -18t-55 -47.5t-49.5 -67.5t-42 -78.5t-32 -80t-19 -72.5l-18 -97h-52l50 259l45 238h54q-5 -27 -19.5 -81.5t-45.5 -154.5l2 -1q18 46 43.5 90t57 78.5t69 56t79.5 21.5q66 0 91.5 -44.5t9.5 -127.5z" />
<glyph unicode="o" horiz-adv-x="534" d="M439 324q0 66 -31 102t-96 36q-47 0 -86.5 -23.5t-68 -62.5t-44.5 -90.5t-16 -107.5q0 -70 30 -106t98 -36q40 0 78.5 20t68.5 57.5t48.5 90.5t18.5 120zM495 328q0 -77 -24 -139.5t-63 -106t-90 -67t-105 -23.5q-84 0 -127.5 44t-43.5 131q0 71 20 132.5t57 107.5t88 72 t113 26q90 0 132.5 -49t42.5 -128z" />
<glyph unicode="p" horiz-adv-x="534" d="M440 350q0 60 -17.5 85.5t-45.5 25.5q-29 0 -57.5 -18t-55 -47.5t-49.5 -67.5t-42 -78.5t-32.5 -80t-19.5 -72.5l-9 -45q19 -7 44 -11t42 -4q66 0 112.5 29t75 74.5t41.5 101t13 108.5zM494 359q0 -67 -17.5 -132.5t-54.5 -117t-95 -83t-139 -31.5q-25 0 -45.5 2t-40.5 5 l-48 -254h-52l98 510l45 239h54q-3 -18 -8 -38.5t-12.5 -48.5t-18.5 -65.5l-26 -88.5l2 -1q19 51 45 96.5t57.5 80t69 54.5t80.5 20q51 0 78.5 -34.5t27.5 -112.5z" />
<glyph unicode="q" horiz-adv-x="534" d="M423 450q-18 5 -39 8t-47 3q-67 0 -113.5 -29t-75 -74.5t-41.5 -101.5t-13 -109q0 -60 17.5 -85.5t46.5 -25.5t57.5 18t54.5 47.5t49.5 68t42.5 79t32 80.5t20 74l9 47v0zM341 -252h-52l48 252q4 24 9.5 47l12.5 50.5t17.5 63l25.5 84.5l-2 1q-12 -30 -33 -73.5 t-52.5 -84t-73.5 -69t-95 -28.5q-51 0 -78.5 34.5t-27.5 112.5q0 67 17.5 132.5t54.5 117t95 83.5t139 32q40 0 73.5 -4t62.5 -10z" />
<glyph unicode="r" horiz-adv-x="348" d="M361 453q-27 7 -54 -7.5t-51.5 -43t-46.5 -66.5t-39 -77.5t-29 -77t-17 -64.5l-22 -117h-52l50 259l45 238h53q-7 -36 -20.5 -86t-39.5 -130l2 -1q22 51 46 95t52 75.5t60.5 46.5t71.5 8z" />
<glyph unicode="s" horiz-adv-x="385" d="M336 449q-38 13 -83 13q-59 0 -89.5 -26.5t-30.5 -65.5q0 -24 12.5 -42t32 -33t41.5 -29.5t41.5 -31.5t32 -38t12.5 -50q0 -31 -13.5 -59t-39.5 -49t-63.5 -33.5t-85.5 -12.5q-25 0 -44 1.5t-38 4.5l10 54q20 -6 41 -9.5t44 -3.5q60 0 97.5 24.5t37.5 74.5q0 23 -12.5 40 t-32 32t-41.5 29.5t-41.5 32t-32 39.5t-12.5 53q0 30 12 55.5t35 44.5t56.5 30t77.5 11q28 0 47.5 -2t38.5 -6z" />
<glyph unicode="t" horiz-adv-x="361" d="M359 455h-152l-56 -295q-7 -35 -8 -58t5 -36.5t19.5 -19t35.5 -5.5q23 0 41 2t34 7v-48q-20 -4 -42 -6.5t-42 -2.5q-73 0 -93.5 36.5t-5.5 116.5l59 309h-116l9 42h116l32 170l56 15l-36 -185h153z" />
<glyph unicode="u" horiz-adv-x="567" d="M467 238l-45 -238h-54l7.5 33t12 48.5t18.5 66.5t27 88l-2 1q-18 -46 -43.5 -90t-57 -78.5t-69 -56t-79.5 -21.5q-66 0 -91.5 44.5t-9.5 127.5l64 334h52l-62 -324q-14 -71 0 -104t57 -33q29 0 57.5 18t55 47.5t49.5 67.5t42 78.5t32 80t19 72.5l18 97h52z" />
<glyph unicode="v" horiz-adv-x="452" d="M207 0h-54l-91 497h58l59 -366q3 -18 5.5 -37.5t4.5 -37.5h1l243 461l46 -21z" />
<glyph unicode="w" horiz-adv-x="767" d="M537 0h-63l-50 348q-3 22 -5.5 44.5t-4.5 44.5h-1l-217 -437h-67l-57 497h57l32 -340l5.5 -60.5t2.5 -42.5h1l222 443h65l47 -339q5 -35 7.5 -62.5t3.5 -42.5h1l226 464l47 -20z" />
<glyph unicode="x" horiz-adv-x="502" d="M281 249l140 -249h-65l-113 210l-224 -232l-35 36l237 237l-132 246h63l107 -207l220 227l34 -33z" />
<glyph unicode="y" horiz-adv-x="460" d="M475 500q-45 -107 -92.5 -207t-96.5 -187.5t-98.5 -158.5t-98.5 -120q-41 -40 -83.5 -63t-82.5 -23q-39 0 -66 7l10 52q27 -10 64 -10q29 0 62.5 19.5t63.5 53.5q35 40 51 83.5t16 105.5q0 45 -4.5 98t-13.5 110t-22 117t-29 120h60q14 -56 25.5 -114.5t19.5 -114 t12.5 -105.5t4.5 -90q0 -18 -2.5 -39.5t-7.5 -41.5h1l66 117l63.5 122.5t63 134l66.5 151.5l48 -17v0z" />
<glyph unicode="z" horiz-adv-x="424" d="M406 461l-334 -414q12 0 29.5 0.5t37 1t39.5 0.5h40h115l-10 -49h-322l7 37l334 415q-28 -1 -63.5 -1.5t-79.5 -0.5h-108l10 47h312z" />
<glyph unicode="{" horiz-adv-x="315" d="M376 727q-55 0 -81 -28.5t-39 -96.5l-28 -146q-24 -125 -119 -137v-2q45 -7 61 -42.5t5 -90.5l-41 -213q-13 -68 2 -96t68 -28l-7 -40h-15q-36 0 -58.5 12.5t-33 35t-11 53.5t6.5 67l42 214q11 57 -8 80.5t-80 27.5l9 46q33 2 55.5 8t37 18.5t23 32.5t14.5 49l28 147 q6 31 17 61.5t30 54t46.5 38t65.5 14.5h17z" />
<glyph unicode="|" horiz-adv-x="276" d="M64 -252h-41l190 1000h41z" />
<glyph unicode="}" horiz-adv-x="316" d="M301 297q-33 -2 -55.5 -8t-37 -18.5t-23 -32.5t-14.5 -49l-40 -213q-16 -83 -52 -125.5t-107 -42.5h-17l8 40q55 0 80.5 28t38.5 96l40 212q23 125 119 137v2q-45 7 -61 42.5t-5 90.5l29 147q14 69 -1 97t-69 28l7 39h12q37 0 60 -14t34 -37.5t11.5 -53.5t-6.5 -63 l-30 -148q-11 -57 8 -80.5t80 -27.5z" />
<glyph unicode="~" d="M541 565q-3 -60 -37.5 -98t-88.5 -38q-27 0 -45.5 8.5t-32.5 21.5t-24.5 28t-22.5 28t-26 21.5t-35 8.5q-19 0 -33.5 -8t-24.5 -21.5t-16 -31t-7 -36.5h-40q3 60 37.5 98t88.5 38q40 0 62.5 -18t39.5 -40t35 -40t49 -18q19 0 33.5 8t24.5 21.5t15.5 31t7.5 36.5h40v0z " />
<glyph d="M549 584q-24 13 -56.5 21.5t-63.5 8.5q-47 0 -83.5 -15.5t-65 -42t-49.5 -61.5t-36 -74h216l-8 -41h-221q-8 -27 -12.5 -53t-7.5 -52h221l-7 -41h-218q-3 -43 1.5 -79t22 -61.5t49.5 -39.5t84 -14q36 0 74 9.5t67 21.5l11 -44q-42 -18 -85.5 -26.5t-77.5 -8.5 q-65 0 -105.5 18.5t-63 51t-29.5 76.5t-4 96h-94l7 41h91q3 25 8 51.5t13 53.5h-92l8 41h97q16 46 41.5 89t62.5 76t85.5 52.5t111.5 19.5q32 0 66 -8t59 -20z" />
<glyph unicode="&#x20ac;" d="M549 584q-24 13 -56.5 21.5t-63.5 8.5q-47 0 -83.5 -15.5t-65 -42t-49.5 -61.5t-36 -74h216l-8 -41h-221q-8 -27 -12.5 -53t-7.5 -52h221l-7 -41h-218q-3 -43 1.5 -79t22 -61.5t49.5 -39.5t84 -14q36 0 74 9.5t67 21.5l11 -44q-42 -18 -85.5 -26.5t-77.5 -8.5 q-65 0 -105.5 18.5t-63 51t-29.5 76.5t-4 96h-94l7 41h91q3 25 8 51.5t13 53.5h-92l8 41h97q16 46 41.5 89t62.5 76t85.5 52.5t111.5 19.5q32 0 66 -8t59 -20z" />
<glyph unicode="&#xa1;" horiz-adv-x="312" d="M91 -201h-62l115 549h41zM227 461q0 -18 -12 -30.5t-30 -12.5t-30 12.5t-12 30.5t12 30.5t30 12.5t30 -12.5t12 -30.5z" />
<glyph unicode="&#xa2;" d="M492 487q-57 28 -120 28q-49 0 -90 -17.5t-70.5 -49.5t-46 -76t-16.5 -98q0 -28 7.5 -50.5t24.5 -38t44 -24t67 -8.5q71 0 146 35l7 -45q-34 -15 -69 -24.5t-71 -11.5l-20 -107h-45l20 107q-77 6 -121.5 41.5t-44.5 115.5q0 70 21 122.5t55.5 88.5t80 56t95.5 26l18 93 h45l-18 -91q28 -1 57.5 -7t61.5 -20z" />
<glyph unicode="&#xa3;" d="M499 594q-24 9 -52 15t-54 6q-53 0 -83.5 -24.5t-46.5 -64t-20 -88t-4 -96.5h169l-8 -42h-161q0 -46 -7 -81.5t-22.5 -65t-40.5 -55t-61 -52.5q17 1 38 1.5t47 0.5h239l-9 -48h-393l7 38q50 38 79.5 67t45 57.5t20 60.5t4.5 77h-117l8 42h109q0 59 7.5 116t30.5 101.5 t66 71.5t114 27q25 0 56.5 -4.5t56.5 -13.5z" />
<glyph unicode="&#xa4;" d="M410 372q0 38 -21 64.5t-73 26.5q-36 0 -63 -15.5t-45.5 -40.5t-27.5 -56.5t-9 -62.5q0 -39 20.5 -65.5t72.5 -26.5q31 0 58 15.5t46.5 40.5t30.5 56.5t11 63.5zM443 453q8 -12 13 -29.5t5 -42.5q0 -43 -16 -88.5t-55 -82.5l69 -110l-39 -28l-63 113q-26 -16 -52.5 -23.5 t-51.5 -7.5q-53 0 -79 17l-93 -99l-33 30l95 94q-24 30 -24 84q0 48 18 96t61 84l-63 100l40 27l57 -105q23 12 47 17.5t47 5.5q24 0 48 -4.5t43 -18.5l100 105l29 -30z" />
<glyph unicode="&#xa5;" d="M316 273h162l-8 -41h-175l-15 -81h174l-7 -41h-175l-21 -110h-53l21 110h-174l8 41h174l15 81h-174l8 41h162l-114 377h57l69 -235q10 -34 17 -63.5l14 -60.5h1q18 33 39.5 67.5t44.5 66.5l155 225h60z" />
<glyph unicode="&#xa6;" horiz-adv-x="276" d="M64 -252h-41l71 378h41zM184 380h-41l70 368h41z" />
<glyph unicode="&#xa7;" horiz-adv-x="500" d="M346 243q0 27 -11 53.5t-28 53t-37 52.5t-38 53q-42 -26 -59.5 -58t-17.5 -66q0 -27 11 -53.5t28 -52.5t36.5 -51.5t37.5 -52.5q42 26 60 58.5t18 63.5zM416 679q-18 6 -32 8.5t-28 2.5q-35 0 -57 -12.5t-35.5 -30t-18.5 -37.5t-5 -35q0 -24 12 -47.5t29.5 -48.5t38 -51 t38 -54.5t29.5 -59t12 -64.5q0 -45 -25 -87t-82 -80q10 -18 15.5 -36.5t5.5 -40.5q0 -32 -12.5 -62.5t-35 -54t-54.5 -37.5t-71 -14q-18 0 -37.5 2.5t-37.5 8.5l10 46q20 -7 36 -10t34 -3q31 0 52.5 11.5t35.5 28.5t20.5 37.5t6.5 37.5q0 37 -24.5 74t-54.5 76.5t-54.5 83 t-24.5 94.5q0 45 25 86.5t82 81.5q-23 45 -23 79q0 22 9 50t29 53t53.5 42t81.5 17q17 0 35 -2t32 -7z" />
<glyph unicode="&#xa8;" horiz-adv-x="535" d="M236 662q0 -18 -11.5 -29.5t-28.5 -11.5t-27.5 11t-10.5 26q0 18 11.5 29.5t28.5 11.5t27.5 -11t10.5 -26zM418 662q0 -18 -11.5 -29.5t-28.5 -11.5t-27.5 11t-10.5 26q0 18 11.5 29.5t28.5 11.5t27.5 -11t10.5 -26z" />
<glyph unicode="&#xa9;" horiz-adv-x="735" d="M496 460q-33 15 -77 15q-41 0 -68.5 -19t-44 -47.5t-23.5 -61t-7 -60.5q0 -42 19.5 -64.5t64.5 -22.5q46 0 90 15v-41q-23 -8 -49.5 -11.5t-46.5 -3.5q-72 0 -100.5 32.5t-28.5 85.5q0 49 14 92.5t40 75.5t63 50.5t84 18.5q27 0 46 -3t35 -8zM664 350q0 55 -21 104.5 t-58 86.5t-87 58.5t-107 21.5q-59 0 -112 -22.5t-93.5 -62t-64 -94t-23.5 -118.5q0 -56 21 -106t58 -87.5t87 -59t107 -21.5q59 0 112 22.5t93.5 62.5t64 95t23.5 120zM710 351q0 -74 -27.5 -136.5t-74.5 -108.5t-109 -72t-130 -26q-69 0 -127.5 24.5t-101 66.5t-66 99.5 t-23.5 123.5q0 73 27.5 135.5t74.5 108.5t109 72t131 26q67 0 125 -24.5t100.5 -66.5t67 -99t24.5 -123z" />
<glyph unicode="&#xaa;" horiz-adv-x="368" d="M334 634q-16 4 -30 5t-25 1q-34 0 -60.5 -15.5t-44.5 -41t-27.5 -57.5t-9.5 -65q0 -36 10.5 -50t30.5 -14q26 0 49.5 17t43.5 45.5t34.5 65.5t22.5 78l6 31v0zM336 246h-265l8 43h265zM386 671l-17 -86l-17 -91l-14.5 -80l-9.5 -53h-48q3 17 11.5 46t20.5 65h-1 q-24 -54 -61 -85t-82 -31q-42 0 -60.5 24t-18.5 70q0 44 12.5 85.5t38 73t62.5 50.5t87 19q25 0 48.5 -1.5t48.5 -5.5z" />
<glyph unicode="&#xab;" horiz-adv-x="468" d="M131 295l80 -140l-42 -26l-95 168l146 165l35 -28zM299 295l88 -140l-42 -26l-103 168l154 165l35 -28z" />
<glyph unicode="&#xac;" d="M448 111h-45l31 164h-385l9 45h430z" />
<glyph unicode="&#xad;" horiz-adv-x="326" d="M280 274h-226l9 45h226z" />
<glyph unicode="&#xae;" d="M378 592q0 23 -32 23h-29l-14 -73h17q29 0 43.5 15t14.5 35zM416 597q0 -35 -23.5 -55t-53.5 -24q3 -5 7.5 -14t9.5 -18l36 -74h-42l-47 104h-5l-20 -104h-36l44 233h63q35 0 51 -12.5t16 -35.5zM489 535q0 32 -11.5 61t-32 51t-48.5 35t-60 13q-33 0 -64 -13.5 t-54 -36.5t-37 -55t-14 -69q0 -33 11.5 -62t32 -51.5t48.5 -35.5t60 -13q33 0 64 13.5t54 37t37 55.5t14 70zM532 537q0 -46 -18 -85.5t-48 -69t-68.5 -46t-79.5 -16.5q-42 0 -77.5 15t-61.5 41t-40.5 61.5t-14.5 76.5q0 48 18 88t47.5 69.5t68.5 46t81 16.5q41 0 76.5 -15 t61.5 -41t40.5 -62t14.5 -79z" />
<glyph unicode="&#xaf;" horiz-adv-x="387" d="M382 633h-230l8 42h230z" />
<glyph unicode="&#x2c9;" horiz-adv-x="387" d="M382 633h-230l8 42h230z" />
<glyph unicode="&#xb0;" horiz-adv-x="357" d="M326 622q0 11 -3 23.5t-10.5 23.5t-20.5 18.5t-34 7.5q-30 0 -51.5 -21.5t-21.5 -59.5q0 -33 18 -53t50 -20q30 0 51.5 21.5t21.5 59.5zM373 626q0 -30 -10.5 -52.5t-28 -38.5t-40 -24t-45.5 -8q-54 0 -82.5 30t-28.5 77q0 30 10.5 52.5t28 38.5t40 24t45.5 8 q54 0 82.5 -30t28.5 -77z" />
<glyph unicode="&#xb1;" d="M457 0h-460l9 45h460zM519 325h-205l-40 -209h-50l40 209h-205l8 45h205l40 208h50l-40 -208h205z" />
<glyph unicode="&#xb2;" horiz-adv-x="306" d="M299 583q0 -35 -18.5 -64.5t-61.5 -61.5l-71 -54h132l-9 -44h-202l6 33l103 82q42 32 56.5 54.5t14.5 47.5q0 17 -11.5 28.5t-35.5 11.5q-14 0 -31 -5.5t-30 -15.5l-19 37q20 11 43 18t46 7q45 0 66.5 -21t21.5 -53z" />
<glyph unicode="&#xb3;" horiz-adv-x="674" d="M286 595q0 -57 -59 -83q23 -4 33.5 -18t10.5 -35q0 -48 -39.5 -77.5t-102.5 -29.5q-15 0 -29.5 2t-25.5 5l12 42q11 -3 25 -5.5t25 -2.5q43 0 63.5 16.5t20.5 45.5q0 20 -21.5 29.5t-77.5 3.5l6 37h25q47 0 66.5 18.5t19.5 42.5q0 12 -10 22t-34 10q-16 0 -30 -3.5 t-25 -8.5l-12 35q18 8 37.5 12t39.5 4q43 0 62.5 -18t19.5 -44z" />
<glyph unicode="&#xb4;" horiz-adv-x="376" d="M165 581l-26 29l128 124l34 -37z" />
<glyph unicode="&#xb5;" horiz-adv-x="611" d="M550 69q-18 -37 -42.5 -57t-56.5 -20q-62 0 -62 66q0 21 4.5 42.5t15.5 56.5l-2 1q-8 -23 -30 -52t-52 -54.5t-65.5 -42.5t-70.5 -17q-22 0 -45 9t-40 29l-46 -282h-56l143 749h52l-62 -324q-7 -35 -5 -60.5t11 -42.5t24 -25.5t33 -8.5q30 0 66 21t70.5 61t62 98 t41.5 131l28 150h52l-70 -367q-10 -52 -4 -69.5t24 -17.5q16 0 28.5 11.5t22.5 30.5l31 -16v0z" />
<glyph unicode="&#x3bc;" horiz-adv-x="611" d="M550 69q-18 -37 -42.5 -57t-56.5 -20q-62 0 -62 66q0 21 4.5 42.5t15.5 56.5l-2 1q-8 -23 -30 -52t-52 -54.5t-65.5 -42.5t-70.5 -17q-22 0 -45 9t-40 29l-46 -282h-56l143 749h52l-62 -324q-7 -35 -5 -60.5t11 -42.5t24 -25.5t33 -8.5q30 0 66 21t70.5 61t62 98 t41.5 131l28 150h52l-70 -367q-10 -52 -4 -69.5t24 -17.5q16 0 28.5 11.5t22.5 30.5l31 -16v0z" />
<glyph unicode="&#xb6;" horiz-adv-x="547" d="M282 264q-44 0 -76 12t-52.5 33t-30.5 50.5t-10 63.5q0 43 16 88t47.5 81.5t77.5 59.5t106 23zM553 636h-75l-140 -732h-127l7 39h75l139 732h127z" />
<glyph unicode="&#xb7;" horiz-adv-x="200" d="M155 299q0 -20 -14.5 -34t-33.5 -14q-18 0 -31 13t-13 31q0 20 14.5 34t33.5 14q18 0 31 -13t13 -31z" />
<glyph unicode="&#x2219;" horiz-adv-x="200" d="M155 299q0 -20 -14.5 -34t-33.5 -14q-18 0 -31 13t-13 31q0 20 14.5 34t33.5 14q18 0 31 -13t13 -31z" />
<glyph unicode="&#xb8;" horiz-adv-x="392" d="M198 -41q30 -48 16 -94.5t-61 -100.5h-54q24 27 40 49t22.5 42.5t3 39.5t-17.5 40l51 24v0z" />
<glyph unicode="&#xb9;" horiz-adv-x="294" d="M205 359h-48l46 244l-80 -36l-6 40l101 43h42z" />
<glyph unicode="&#xba;" horiz-adv-x="405" d="M345 562q0 15 -3.5 28.5t-11.5 24t-21.5 17t-33.5 6.5q-33 0 -55.5 -16.5t-37 -40.5t-20.5 -52t-6 -52q0 -36 16 -56t50 -20q27 0 49.5 12t39 34t25.5 51t9 64zM324 246h-250l9 43h250zM401 570q0 -55 -16.5 -95.5t-43.5 -66.5t-60.5 -39t-66.5 -13q-54 0 -84 25t-30 85 q0 41 12.5 80t35.5 69t56 48.5t75 18.5q64 0 93 -29.5t29 -82.5z" />
<glyph unicode="&#xbb;" horiz-adv-x="468" d="M106 130l-35 28l132 139l-88 140l42 26l103 -168zM282 130l-35 28l124 139l-80 140l42 26l95 -168z" />
<glyph unicode="&#xbc;" horiz-adv-x="676" d="M390 102h92l29 150zM577 62h-55l-12 -62h-47l12 62h-145l5 36l157 193h74l-37 -189h56zM40 -19l-31 27l609 659l32 -27zM205 359h-48l46 244l-80 -36l-6 40l101 43h42z" />
<glyph unicode="&#xbd;" horiz-adv-x="682" d="M205 359h-48l46 244l-80 -36l-6 40l101 43h42zM40 -19l-31 27l609 659l32 -27zM591 224q0 -35 -18.5 -64.5t-61.5 -61.5l-71 -54h132l-9 -44h-202l6 33l103 82q42 32 56.5 54.5t14.5 47.5q0 17 -11.5 28.5t-35.5 11.5q-14 0 -31 -5.5t-30 -15.5l-19 37q20 11 43 18t46 7 q45 0 66.5 -21t21.5 -53z" />
<glyph unicode="&#xbe;" horiz-adv-x="674" d="M286 595q0 -57 -59 -83q23 -4 33.5 -18t10.5 -35q0 -48 -39.5 -77.5t-102.5 -29.5q-15 0 -29.5 2t-25.5 5l12 42q11 -3 25 -5.5t25 -2.5q43 0 63.5 16.5t20.5 45.5q0 20 -21.5 29.5t-77.5 3.5l6 37h25q47 0 66.5 18.5t19.5 42.5q0 12 -10 22t-34 10q-16 0 -30 -3.5 t-25 -8.5l-12 35q18 8 37.5 12t39.5 4q43 0 62.5 -18t19.5 -44zM37 -19l-31 27l609 659l32 -27zM576 62h-55l-12 -62h-47l12 62h-145l5 36l157 193h74l-37 -189h56zM389 102h92l29 150z" />
<glyph unicode="&#xbf;" horiz-adv-x="432" d="M291 348q7 -55 -5.5 -94.5t-35 -70t-50.5 -55l-53 -48t-42 -49t-17 -59.5q0 -48 46.5 -83t121.5 -46l-16 -49q-50 6 -89 23t-66 40.5t-41 52.5t-14 60q0 40 17.5 69t43 53.5t54.5 48t52 52t35.5 65.5t5.5 90h53v0zM328 461q0 -18 -12 -30.5t-30 -12.5t-30 12.5t-12 30.5 t12 30.5t30 12.5t30 -12.5t12 -30.5z" />
<glyph unicode="&#xc0;" horiz-adv-x="596" d="M380 524q-4 23 -7.5 47t-5.5 45h-1q-20 -42 -46 -89l-168 -306h281zM469 0l-28 177h-313l-98 -177h-61l381 675h56l121 -675h-58zM410 734l-171 59l24 48l162 -73z" />
<glyph unicode="&#xc1;" horiz-adv-x="596" d="M380 524q-4 23 -7.5 47t-5.5 45h-1q-20 -42 -46 -89l-168 -306h281zM469 0l-28 177h-313l-98 -177h-61l381 675h56l121 -675h-58zM340 734l-13 34l168 73l17 -48z" />
<glyph unicode="&#xc2;" horiz-adv-x="596" d="M380 524q-4 23 -7.5 47t-5.5 45h-1q-20 -42 -46 -89l-168 -306h281zM469 0l-28 177h-313l-98 -177h-61l381 675h56l121 -675h-58zM506 732l-118 66l-139 -66l-18 35l162 83l136 -80z" />
<glyph unicode="&#xc3;" horiz-adv-x="596" d="M380 524q-4 23 -7.5 47t-5.5 45h-1q-20 -42 -46 -89l-168 -306h281zM469 0l-28 177h-313l-98 -177h-61l381 675h56l121 -675h-58zM551 807q-19 -31 -45 -48t-56 -17q-24 0 -41 9t-31.5 19.5l-28 19.5t-30.5 9q-37 0 -69 -47l-28 23q18 31 43.5 48t56.5 17q24 0 41 -9 t31.5 -19.5l28 -19.5t30.5 -9q36 0 69 47l29 -23v0z" />
<glyph unicode="&#xc4;" horiz-adv-x="596" d="M380 524q-4 23 -7.5 47t-5.5 45h-1q-20 -42 -46 -89l-168 -306h281zM469 0l-28 177h-313l-98 -177h-61l381 675h56l121 -675h-58zM324 777q0 -17 -11.5 -28.5t-28.5 -11.5t-27.5 10.5t-10.5 27.5t11.5 28.5t28.5 11.5t27.5 -10.5t10.5 -27.5zM531 777q0 -17 -11.5 -28.5 t-28.5 -11.5t-27.5 10.5t-10.5 27.5t11.5 28.5t28.5 11.5t27.5 -10.5t10.5 -27.5z" />
<glyph unicode="&#xc5;" horiz-adv-x="596" d="M380 524q-4 23 -7.5 47t-5.5 45h-1q-20 -42 -46 -89l-168 -306h281zM444 743q0 23 -15 40t-39 17t-43 -18.5t-19 -46.5q0 -23 15 -40t39 -17t43 18.5t19 46.5zM469 0l-28 177h-313l-98 -177h-61l367 651q-23 11 -36 31.5t-13 49.5q0 23 9 42.5t24 33.5t34 21.5t39 7.5 q40 0 66 -26t26 -65q0 -35 -21.5 -62t-52.5 -38l116 -646h-58z" />
<glyph unicode="&#xc6;" horiz-adv-x="751" d="M425 629q-8 -11 -16 -23.5t-19 -28l-25 -35.5l-33 -45l-202 -276h221l77 408h-3zM744 632h-262l-50 -262h252l-8 -43h-252l-55 -283h274l-8 -44h-327l34 177h-244l-130 -177h-62l502 675h344z" />
<glyph unicode="&#xc7;" horiz-adv-x="575" d="M580 612q-77 26 -155 26q-80 0 -138.5 -35t-96.5 -93t-56 -131.5t-18 -150.5q0 -41 9 -75.5t31 -59.5t59.5 -39t93.5 -14q45 0 90 10t81 27l8 -44q-43 -18 -93.5 -29t-100.5 -11q-68 0 -113.5 18t-72.5 48.5t-38.5 72t-11.5 89.5q0 91 24.5 174.5t72.5 147.5t119 101.5 t164 37.5q45 0 83.5 -5.5t73.5 -15.5zM290 -41q30 -48 16 -94.5t-61 -100.5h-54q24 27 40 49t22.5 42.5t3 39.5t-17.5 40l51 24v0z" />
<glyph unicode="&#xc8;" horiz-adv-x="499" d="M492 632h-268l-50 -262h256l-8 -43h-256l-53 -283h268l-9 -44h-321l128 675h321zM387 734l-171 59l24 48l162 -73z" />
<glyph unicode="&#xc9;" horiz-adv-x="499" d="M492 632h-268l-50 -262h256l-8 -43h-256l-53 -283h268l-9 -44h-321l128 675h321zM302 734l-13 34l168 73l17 -48z" />
<glyph unicode="&#xca;" horiz-adv-x="499" d="M492 632h-268l-50 -262h256l-8 -43h-256l-53 -283h268l-9 -44h-321l128 675h321zM473 732l-118 66l-139 -66l-18 35l162 83l136 -80z" />
<glyph unicode="&#xcb;" horiz-adv-x="499" d="M492 632h-268l-50 -262h256l-8 -43h-256l-53 -283h268l-9 -44h-321l128 675h321zM286 777q0 -17 -11.5 -28.5t-28.5 -11.5t-27.5 10.5t-10.5 27.5t11.5 28.5t28.5 11.5t27.5 -10.5t10.5 -27.5zM493 777q0 -17 -11.5 -28.5t-28.5 -11.5t-27.5 10.5t-10.5 27.5t11.5 28.5 t28.5 11.5t27.5 -10.5t10.5 -27.5z" />
<glyph unicode="&#xcc;" horiz-adv-x="249" d="M104 0h-53l128 675h53zM244 734l-171 59l24 48l162 -73z" />
<glyph unicode="&#xcd;" horiz-adv-x="249" d="M104 0h-53l128 675h53zM176 734l-13 34l168 73l17 -48z" />
<glyph unicode="&#xce;" horiz-adv-x="249" d="M104 0h-53l128 675h53zM346 732l-118 66l-139 -66l-18 35l162 83l136 -80z" />
<glyph unicode="&#xcf;" horiz-adv-x="249" d="M104 0h-53l128 675h53zM154 777q0 -17 -11.5 -28.5t-28.5 -11.5t-27.5 10.5t-10.5 27.5t11.5 28.5t28.5 11.5t27.5 -10.5t10.5 -27.5zM361 777q0 -17 -11.5 -28.5t-28.5 -11.5t-27.5 10.5t-10.5 27.5t11.5 28.5t28.5 11.5t27.5 -10.5t10.5 -27.5z" />
<glyph unicode="&#xd0;" horiz-adv-x="685" d="M601 425q0 44 -11.5 82.5t-40 67t-76 44.5t-118.5 16q-32 0 -66.5 -1t-57.5 -2l-50 -261h162l-8 -42h-162l-53 -281q23 -3 52 -5t47 -2q102 0 174 33t118.5 87t68 123t21.5 141zM657 432q0 -82 -26 -160.5t-80.5 -139.5t-139 -98t-200.5 -37q-52 0 -87 2t-66 1l62 329 h-103l8 42h103l58 304q38 0 86 1.5t92 1.5q84 0 140.5 -19.5t90 -53t48 -78.5t14.5 -95z" />
<glyph unicode="&#xd1;" horiz-adv-x="692" d="M547 0h-62l-215 487q-16 36 -30 71.5t-25 68.5l-24.5 -153t-27.5 -156l-59 -318h-54l128 675h63l214 -486q30 -67 56 -138l23.5 136.5l25.5 145.5l62 342h54zM612 807q-19 -31 -45 -48t-56 -17q-24 0 -41 9t-31.5 19.5l-28 19.5t-30.5 9q-37 0 -69 -47l-28 23 q18 31 43.5 48t56.5 17q24 0 41 -9t31.5 -19.5l28 -19.5t30.5 -9q36 0 69 47l29 -23v0z" />
<glyph unicode="&#xd2;" horiz-adv-x="692" d="M612 434q0 96 -46 150t-141 54q-66 0 -123 -31t-99 -85t-65.5 -126t-23.5 -154q0 -94 46 -149t135 -55q64 0 121.5 30t101 83t69 125.5t25.5 157.5zM671 440q0 -96 -30 -178t-81.5 -142t-121.5 -94t-149 -34q-118 0 -176 63.5t-58 180.5q0 92 29 173.5t79.5 142t120 96 t150.5 35.5q114 0 175.5 -63.5t61.5 -179.5zM477 734l-171 59l24 48l162 -73z" />
<glyph unicode="&#xd3;" horiz-adv-x="692" d="M612 434q0 96 -46 150t-141 54q-66 0 -123 -31t-99 -85t-65.5 -126t-23.5 -154q0 -94 46 -149t135 -55q64 0 121.5 30t101 83t69 125.5t25.5 157.5zM671 440q0 -96 -30 -178t-81.5 -142t-121.5 -94t-149 -34q-118 0 -176 63.5t-58 180.5q0 92 29 173.5t79.5 142t120 96 t150.5 35.5q114 0 175.5 -63.5t61.5 -179.5zM405 734l-13 34l168 73l17 -48z" />
<glyph unicode="&#xd4;" horiz-adv-x="692" d="M612 434q0 96 -46 150t-141 54q-66 0 -123 -31t-99 -85t-65.5 -126t-23.5 -154q0 -94 46 -149t135 -55q64 0 121.5 30t101 83t69 125.5t25.5 157.5zM671 440q0 -96 -30 -178t-81.5 -142t-121.5 -94t-149 -34q-118 0 -176 63.5t-58 180.5q0 92 29 173.5t79.5 142t120 96 t150.5 35.5q114 0 175.5 -63.5t61.5 -179.5zM565 732l-118 66l-139 -66l-18 35l162 83l136 -80z" />
<glyph unicode="&#xd5;" horiz-adv-x="692" d="M612 434q0 96 -46 150t-141 54q-66 0 -123 -31t-99 -85t-65.5 -126t-23.5 -154q0 -94 46 -149t135 -55q64 0 121.5 30t101 83t69 125.5t25.5 157.5zM671 440q0 -96 -30 -178t-81.5 -142t-121.5 -94t-149 -34q-118 0 -176 63.5t-58 180.5q0 92 29 173.5t79.5 142t120 96 t150.5 35.5q114 0 175.5 -63.5t61.5 -179.5zM617 807q-19 -31 -45 -48t-56 -17q-24 0 -41 9t-31.5 19.5l-28 19.5t-30.5 9q-37 0 -69 -47l-28 23q18 31 43.5 48t56.5 17q24 0 41 -9t31.5 -19.5l28 -19.5t30.5 -9q36 0 69 47l29 -23v0z" />
<glyph unicode="&#xd6;" horiz-adv-x="692" d="M612 434q0 96 -46 150t-141 54q-66 0 -123 -31t-99 -85t-65.5 -126t-23.5 -154q0 -94 46 -149t135 -55q64 0 121.5 30t101 83t69 125.5t25.5 157.5zM671 440q0 -96 -30 -178t-81.5 -142t-121.5 -94t-149 -34q-118 0 -176 63.5t-58 180.5q0 92 29 173.5t79.5 142t120 96 t150.5 35.5q114 0 175.5 -63.5t61.5 -179.5zM389 777q0 -17 -11.5 -28.5t-28.5 -11.5t-27.5 10.5t-10.5 27.5t11.5 28.5t28.5 11.5t27.5 -10.5t10.5 -27.5zM596 777q0 -17 -11.5 -28.5t-28.5 -11.5t-27.5 10.5t-10.5 27.5t11.5 28.5t28.5 11.5t27.5 -10.5t10.5 -27.5z" />
<glyph unicode="&#xd7;" d="M315 295l146 -181l-35 -29l-146 181l-215 -181l-28 33l216 181l-147 181l35 29l147 -181l215 181l27 -33z" />
<glyph unicode="&#xd8;" horiz-adv-x="692" d="M494 629q-30 9 -69 9q-66 0 -123 -31t-99 -85t-65.5 -126t-23.5 -154q0 -57 16.5 -100.5t52.5 -69.5l311 557v0zM612 434q0 61 -19 105.5t-58 70.5l-313 -560q31 -12 73 -12q64 0 121.5 30t101 83t69 125.5t25.5 157.5zM671 440q0 -96 -30 -178t-81.5 -142t-121.5 -94 t-149 -34q-26 0 -49.5 3.5t-43.5 9.5l-57 -102l-39 21l55 99q-51 29 -75.5 82.5t-24.5 130.5q0 92 29 173.5t79.5 142t120 96t150.5 35.5q44 0 85 -11l53 95l39 -21l-51 -91q54 -27 82.5 -81.5t28.5 -133.5z" />
<glyph unicode="&#xd9;" horiz-adv-x="688" d="M590 247q-25 -131 -99 -193t-200 -62q-72 0 -116 18t-66 49t-24.5 73.5t6.5 90.5l86 452h53l-86 -449q-9 -47 -6 -82.5t20.5 -59.5t51.5 -36t88 -12q49 0 88.5 11t69.5 36.5t50.5 67.5t32.5 104l80 420h52zM479 734l-171 59l24 48l162 -73z" />
<glyph unicode="&#xda;" horiz-adv-x="688" d="M590 247q-25 -131 -99 -193t-200 -62q-72 0 -116 18t-66 49t-24.5 73.5t6.5 90.5l86 452h53l-86 -449q-9 -47 -6 -82.5t20.5 -59.5t51.5 -36t88 -12q49 0 88.5 11t69.5 36.5t50.5 67.5t32.5 104l80 420h52zM395 734l-13 34l168 73l17 -48z" />
<glyph unicode="&#xdb;" horiz-adv-x="688" d="M590 247q-25 -131 -99 -193t-200 -62q-72 0 -116 18t-66 49t-24.5 73.5t6.5 90.5l86 452h53l-86 -449q-9 -47 -6 -82.5t20.5 -59.5t51.5 -36t88 -12q49 0 88.5 11t69.5 36.5t50.5 67.5t32.5 104l80 420h52zM553 732l-118 66l-139 -66l-18 35l162 83l136 -80z" />
<glyph unicode="&#xdc;" horiz-adv-x="688" d="M590 247q-25 -131 -99 -193t-200 -62q-72 0 -116 18t-66 49t-24.5 73.5t6.5 90.5l86 452h53l-86 -449q-9 -47 -6 -82.5t20.5 -59.5t51.5 -36t88 -12q49 0 88.5 11t69.5 36.5t50.5 67.5t32.5 104l80 420h52zM372 777q0 -17 -11.5 -28.5t-28.5 -11.5t-27.5 10.5t-10.5 27.5 t11.5 28.5t28.5 11.5t27.5 -10.5t10.5 -27.5zM579 777q0 -17 -11.5 -28.5t-28.5 -11.5t-27.5 10.5t-10.5 27.5t11.5 28.5t28.5 11.5t27.5 -10.5t10.5 -27.5z" />
<glyph unicode="&#xdd;" horiz-adv-x="502" d="M274 247l-47 -247h-53l47 247l-125 428h55l73 -260q9 -31 16.5 -61.5l14.5 -61.5h1q18 32 40 66l45 68l164 249h62zM301 734l-13 34l168 73l17 -48z" />
<glyph unicode="&#xde;" horiz-adv-x="503" d="M455 399q0 57 -38.5 90.5t-125.5 33.5q-16 0 -43 -1.5t-47 -4.5l-61 -322q17 -2 35.5 -3.5t40.5 -1.5q59 0 104 17.5t75 46.5t45 66.5t15 78.5zM512 408q0 -49 -20 -96.5t-59.5 -84.5t-97.5 -59.5t-134 -22.5q-20 0 -37 1t-33 3l-28 -149h-53l128 675h53l-20 -110 q23 2 48.5 2.5t50.5 0.5q54 0 92 -12.5t62.5 -34t36 -51t11.5 -62.5z" />
<glyph unicode="&#xdf;" horiz-adv-x="546" d="M514 631q0 -39 -13.5 -64.5t-33.5 -43.5t-43.5 -31.5t-43.5 -28t-33.5 -33.5t-13.5 -48q0 -37 21 -62.5t46.5 -50t46.5 -52.5t21 -71q0 -33 -14.5 -61t-40 -49t-61 -32.5t-77.5 -11.5q-28 0 -44.5 1.5t-35.5 4.5l10 54q20 -6 38 -9.5t41 -3.5q61 0 95 26.5t34 72.5 q0 36 -21 61.5t-46 49.5t-46 52.5t-21 70.5q0 37 13.5 61.5t33.5 42t43.5 31.5t43.5 29t33.5 35t13.5 50q0 31 -21.5 50.5t-65.5 19.5q-66 0 -109.5 -41.5t-62.5 -139.5l-104 -545q-13 -66 -32.5 -109.5t-46.5 -69t-61.5 -36t-77.5 -10.5q-16 0 -34.5 2t-34.5 5l12 49 q33 -10 73 -10q31 0 54 7.5t41 27.5t31 54.5t23 88.5l103 541q23 122 80.5 175.5t153.5 53.5q66 0 99.5 -30t33.5 -73z" />
<glyph unicode="&#xe0;" horiz-adv-x="534" d="M423 450q-18 5 -39 8t-47 3q-67 0 -113.5 -29t-75 -74.5t-41.5 -101.5t-13 -109q0 -60 17.5 -85.5t45.5 -25.5q29 0 57.5 18t55 47.5t50 68t42.5 79t32 80.5t20 74l9 47v0zM482 489l-38 -197.5l-24.5 -128l-16.5 -87.5t-14 -76h-55q7 36 24 96.5t44 148.5l-2 1 q-12 -30 -33 -73.5t-52.5 -84t-73.5 -69t-95 -28.5q-51 0 -78.5 34.5t-27.5 112.5q0 67 17.5 132.5t54.5 117t95 83.5t139 32q40 0 73.5 -4t62.5 -10zM359 581l-102 122l45 31l92 -129z" />
<glyph unicode="&#xe1;" horiz-adv-x="534" d="M423 450q-18 5 -39 8t-47 3q-67 0 -113.5 -29t-75 -74.5t-41.5 -101.5t-13 -109q0 -60 17.5 -85.5t45.5 -25.5q29 0 57.5 18t55 47.5t50 68t42.5 79t32 80.5t20 74l9 47v0zM482 489l-38 -197.5l-24.5 -128l-16.5 -87.5t-14 -76h-55q7 36 24 96.5t44 148.5l-2 1 q-12 -30 -33 -73.5t-52.5 -84t-73.5 -69t-95 -28.5q-51 0 -78.5 34.5t-27.5 112.5q0 67 17.5 132.5t54.5 117t95 83.5t139 32q40 0 73.5 -4t62.5 -10zM353 581l-26 29l128 124l34 -37z" />
<glyph unicode="&#xe2;" horiz-adv-x="534" d="M423 450q-18 5 -39 8t-47 3q-67 0 -113.5 -29t-75 -74.5t-41.5 -101.5t-13 -109q0 -60 17.5 -85.5t45.5 -25.5q29 0 57.5 18t55 47.5t50 68t42.5 79t32 80.5t20 74l9 47v0zM482 489l-38 -197.5l-24.5 -128l-16.5 -87.5t-14 -76h-55q7 36 24 96.5t44 148.5l-2 1 q-12 -30 -33 -73.5t-52.5 -84t-73.5 -69t-95 -28.5q-51 0 -78.5 34.5t-27.5 112.5q0 67 17.5 132.5t54.5 117t95 83.5t139 32q40 0 73.5 -4t62.5 -10zM448 581l-80 88l-108 -88l-26 26l143 127l102 -125z" />
<glyph unicode="&#xe3;" horiz-adv-x="534" d="M423 450q-18 5 -39 8t-47 3q-67 0 -113.5 -29t-75 -74.5t-41.5 -101.5t-13 -109q0 -60 17.5 -85.5t45.5 -25.5q29 0 57.5 18t55 47.5t50 68t42.5 79t32 80.5t20 74l9 47v0zM482 489l-38 -197.5l-24.5 -128l-16.5 -87.5t-14 -76h-55q7 36 24 96.5t44 148.5l-2 1 q-12 -30 -33 -73.5t-52.5 -84t-73.5 -69t-95 -28.5q-51 0 -78.5 34.5t-27.5 112.5q0 67 17.5 132.5t54.5 117t95 83.5t139 32q40 0 73.5 -4t62.5 -10zM513 675q-18 -32 -44 -49t-55 -17q-24 0 -40 9t-29 20t-26 20t-29 9q-33 0 -66 -48l-29 24q18 32 43 49t54 17 q24 0 40.5 -9t30 -20t26.5 -20t30 -9q34 0 64 48l30 -24v0z" />
<glyph unicode="&#xe4;" horiz-adv-x="534" d="M423 450q-18 5 -39 8t-47 3q-67 0 -113.5 -29t-75 -74.5t-41.5 -101.5t-13 -109q0 -60 17.5 -85.5t45.5 -25.5q29 0 57.5 18t55 47.5t50 68t42.5 79t32 80.5t20 74l9 47v0zM482 489l-38 -197.5l-24.5 -128l-16.5 -87.5t-14 -76h-55q7 36 24 96.5t44 148.5l-2 1 q-12 -30 -33 -73.5t-52.5 -84t-73.5 -69t-95 -28.5q-51 0 -78.5 34.5t-27.5 112.5q0 67 17.5 132.5t54.5 117t95 83.5t139 32q40 0 73.5 -4t62.5 -10zM294 662q0 -18 -11.5 -29.5t-28.5 -11.5t-27.5 11t-10.5 26q0 18 11.5 29.5t28.5 11.5t27.5 -11t10.5 -26zM476 662 q0 -18 -11.5 -29.5t-28.5 -11.5t-27.5 11t-10.5 26q0 18 11.5 29.5t28.5 11.5t27.5 -11t10.5 -26z" />
<glyph unicode="&#xe5;" horiz-adv-x="534" d="M423 450q-18 5 -39 8t-47 3q-67 0 -113.5 -29t-75 -74.5t-41.5 -101.5t-13 -109q0 -60 17.5 -85.5t45.5 -25.5q29 0 57.5 18t55 47.5t50 68t42.5 79t32 80.5t20 74l9 47v0zM482 489l-38 -197.5l-24.5 -128l-16.5 -87.5t-14 -76h-55q7 36 24 96.5t44 148.5l-2 1 q-12 -30 -33 -73.5t-52.5 -84t-73.5 -69t-95 -28.5q-51 0 -78.5 34.5t-27.5 112.5q0 67 17.5 132.5t54.5 117t95 83.5t139 32q40 0 73.5 -4t62.5 -10zM434 662q0 23 -15 40t-39 17t-43 -18.5t-19 -46.5q0 -23 15 -40t39 -17t43 18.5t19 46.5zM475 665q0 -22 -9 -41 t-24 -33.5t-34 -22.5t-39 -8q-39 0 -65.5 25t-26.5 66q0 23 9 42.5t24 33.5t34 21.5t39 7.5q40 0 66 -26t26 -65z" />
<glyph unicode="&#xe6;" horiz-adv-x="764" d="M348 231q-58 -4 -107 -11t-85 -21.5t-56.5 -37.5t-20.5 -59q0 -29 20 -47t50 -18q37 0 69.5 16t59 42.5t44.5 61.5t26 74zM679 394q0 34 -23 51.5t-59 17.5q-35 0 -64 -14t-52.5 -38.5t-40.5 -57.5t-27 -71q60 4 109 10.5t84 19t54 32t19 50.5zM735 400q0 -32 -13.5 -59 t-50.5 -48.5t-101.5 -36.5t-167.5 -22q-2 -14 -4 -36t-2 -40q0 -36 6.5 -59.5t21 -37t38 -18.5t57.5 -5q35 0 70.5 7.5t65.5 21.5v-46q-31 -14 -70 -21.5t-87 -7.5q-41 0 -68.5 9.5t-45 26.5t-26.5 39.5t-13 49.5q-11 -23 -31 -45t-47 -40t-59 -29t-68 -11q-59 0 -88.5 25 t-29.5 70q0 55 27 89.5t73 55t107 30.5t128 15l8 39q15 72 -4 109t-87 37q-35 0 -78 -13t-77 -33v51q38 17 79.5 27.5t82.5 10.5q40 0 65.5 -7.5t41.5 -20.5t23.5 -29.5t10.5 -34.5q13 17 31 33.5t41.5 29.5t51 21t58.5 8q66 0 98.5 -30t32.5 -75z" />
<glyph unicode="&#xe7;" horiz-adv-x="420" d="M418 439q-23 11 -48 17t-57 6q-55 0 -95.5 -28t-67.5 -72t-40 -97t-13 -102q0 -22 4 -44t16.5 -39.5t36 -28.5t62.5 -11q35 0 67.5 8t58.5 20l8 -43q-28 -12 -66 -21t-80 -9q-48 0 -79.5 12.5t-50 33.5t-26.5 49.5t-8 60.5q0 70 18.5 134t54.5 112.5t88 77t118 28.5 q33 0 60 -5t51 -13zM193 -41q30 -48 16 -94.5t-61 -100.5h-54q24 27 40 49t22.5 42.5t3 39.5t-17.5 40l51 24v0z" />
<glyph unicode="&#xe8;" horiz-adv-x="468" d="M383 394q0 34 -23 51.5t-59 17.5q-35 0 -64.5 -14t-52.5 -38.5t-40 -57.5t-27 -71q142 6 204 34t62 78zM439 400q0 -71 -79.5 -115t-252.5 -51q-3 -14 -5 -36t-2 -40q0 -36 6.5 -59.5t21 -37t38 -18.5t57.5 -5q35 0 70 7.5t64 20.5l5 -44q-33 -14 -72.5 -22t-87.5 -8 q-77 0 -118 34t-41 120q0 67 17 131.5t50 115t82.5 81.5t115.5 31t98.5 -30t32.5 -75zM334 581l-102 122l45 31l92 -129z" />
<glyph unicode="&#xe9;" horiz-adv-x="468" d="M383 394q0 34 -23 51.5t-59 17.5q-35 0 -64.5 -14t-52.5 -38.5t-40 -57.5t-27 -71q142 6 204 34t62 78zM439 400q0 -71 -79.5 -115t-252.5 -51q-3 -14 -5 -36t-2 -40q0 -36 6.5 -59.5t21 -37t38 -18.5t57.5 -5q35 0 70 7.5t64 20.5l5 -44q-33 -14 -72.5 -22t-87.5 -8 q-77 0 -118 34t-41 120q0 67 17 131.5t50 115t82.5 81.5t115.5 31t98.5 -30t32.5 -75zM311 581l-26 29l128 124l34 -37z" />
<glyph unicode="&#xea;" horiz-adv-x="468" d="M383 394q0 34 -23 51.5t-59 17.5q-35 0 -64.5 -14t-52.5 -38.5t-40 -57.5t-27 -71q142 6 204 34t62 78zM439 400q0 -71 -79.5 -115t-252.5 -51q-3 -14 -5 -36t-2 -40q0 -36 6.5 -59.5t21 -37t38 -18.5t57.5 -5q35 0 70 7.5t64 20.5l5 -44q-33 -14 -72.5 -22t-87.5 -8 q-77 0 -118 34t-41 120q0 67 17 131.5t50 115t82.5 81.5t115.5 31t98.5 -30t32.5 -75zM407 581l-80 88l-108 -88l-26 26l143 127l102 -125z" />
<glyph unicode="&#xeb;" horiz-adv-x="468" d="M383 394q0 34 -23 51.5t-59 17.5q-35 0 -64.5 -14t-52.5 -38.5t-40 -57.5t-27 -71q142 6 204 34t62 78zM439 400q0 -71 -79.5 -115t-252.5 -51q-3 -14 -5 -36t-2 -40q0 -36 6.5 -59.5t21 -37t38 -18.5t57.5 -5q35 0 70 7.5t64 20.5l5 -44q-33 -14 -72.5 -22t-87.5 -8 q-77 0 -118 34t-41 120q0 67 17 131.5t50 115t82.5 81.5t115.5 31t98.5 -30t32.5 -75zM283 662q0 -18 -11.5 -29.5t-28.5 -11.5t-27.5 11t-10.5 26q0 18 11.5 29.5t28.5 11.5t27.5 -11t10.5 -26zM465 662q0 -18 -11.5 -29.5t-28.5 -11.5t-27.5 11t-10.5 26q0 18 11.5 29.5 t28.5 11.5t27.5 -11t10.5 -26z" />
<glyph unicode="&#xec;" horiz-adv-x="247" d="M102 0h-52l95 497h52zM205 581l-102 122l45 31l92 -129z" />
<glyph unicode="&#xed;" horiz-adv-x="247" d="M102 0h-52l95 497h52zM156 581l-26 29l128 124l34 -37z" />
<glyph unicode="&#xee;" horiz-adv-x="247" d="M102 0h-52l95 497h52zM282 581l-80 88l-108 -88l-26 26l143 127l102 -125z" />
<glyph unicode="&#xef;" horiz-adv-x="247" d="M102 0h-52l95 497h52zM144 662q0 -18 -11.5 -29.5t-28.5 -11.5t-27.5 11t-10.5 26q0 18 11.5 29.5t28.5 11.5t27.5 -11t10.5 -26zM326 662q0 -18 -11.5 -29.5t-28.5 -11.5t-27.5 11t-10.5 26q0 18 11.5 29.5t28.5 11.5t27.5 -11t10.5 -26z" />
<glyph unicode="&#xf0;" horiz-adv-x="527" d="M435 330q0 60 -31.5 96t-95.5 36q-51 0 -91 -25t-67.5 -65t-42 -90t-14.5 -99q0 -70 33.5 -108.5t95.5 -38.5q61 0 101.5 32.5t65.5 79t35.5 96.5t10.5 86zM412 629q40 -63 60 -131.5t20 -140.5q0 -66 -17 -131.5t-51.5 -117t-87 -84t-122.5 -32.5q-84 0 -130 43.5 t-46 133.5q0 61 18 121.5t53.5 108t87 77t118.5 29.5q42 0 75.5 -14t46.5 -46q-5 20 -12 37t-10 25q-25 59 -54 101l-121 -50l-18 37l113 47q-14 17 -30.5 34l-36.5 37l53 25q18 -17 35 -35.5t32 -38.5l120 49l17 -37z" />
<glyph unicode="&#xf1;" horiz-adv-x="567" d="M422 0h-52l62 324q14 71 0 104t-57 33q-29 0 -57.5 -18t-55 -47.5t-49.5 -67.5t-42 -78.5t-32 -80t-19 -72.5l-18 -97h-52l50 259l45 238h54q-5 -27 -19.5 -81.5t-45.5 -154.5l2 -1q18 46 43.5 90t57 78.5t69 56t79.5 21.5q66 0 91.5 -44.5t9.5 -127.5zM511 675 q-18 -32 -44 -49t-55 -17q-24 0 -40 9t-29 20t-26 20t-29 9q-33 0 -66 -48l-29 24q18 32 43 49t54 17q24 0 40.5 -9t30 -20t26.5 -20t30 -9q34 0 64 48l30 -24v0z" />
<glyph unicode="&#xf2;" horiz-adv-x="534" d="M439 324q0 66 -31 102t-96 36q-47 0 -86.5 -23.5t-68 -62.5t-44.5 -90.5t-16 -107.5q0 -70 30 -106t98 -36q40 0 78.5 20t68.5 57.5t48.5 90.5t18.5 120zM495 328q0 -77 -24 -139.5t-63 -106t-90 -67t-105 -23.5q-84 0 -127.5 44t-43.5 131q0 71 20 132.5t57 107.5t88 72 t113 26q90 0 132.5 -49t42.5 -128zM357 581l-102 122l45 31l92 -129z" />
<glyph unicode="&#xf3;" horiz-adv-x="534" d="M439 324q0 66 -31 102t-96 36q-47 0 -86.5 -23.5t-68 -62.5t-44.5 -90.5t-16 -107.5q0 -70 30 -106t98 -36q40 0 78.5 20t68.5 57.5t48.5 90.5t18.5 120zM495 328q0 -77 -24 -139.5t-63 -106t-90 -67t-105 -23.5q-84 0 -127.5 44t-43.5 131q0 71 20 132.5t57 107.5t88 72 t113 26q90 0 132.5 -49t42.5 -128zM331 581l-26 29l128 124l34 -37z" />
<glyph unicode="&#xf4;" horiz-adv-x="534" d="M439 324q0 66 -31 102t-96 36q-47 0 -86.5 -23.5t-68 -62.5t-44.5 -90.5t-16 -107.5q0 -70 30 -106t98 -36q40 0 78.5 20t68.5 57.5t48.5 90.5t18.5 120zM495 328q0 -77 -24 -139.5t-63 -106t-90 -67t-105 -23.5q-84 0 -127.5 44t-43.5 131q0 71 20 132.5t57 107.5t88 72 t113 26q90 0 132.5 -49t42.5 -128zM438 581l-80 88l-108 -88l-26 26l143 127l102 -125z" />
<glyph unicode="&#xf5;" horiz-adv-x="534" d="M439 324q0 66 -31 102t-96 36q-47 0 -86.5 -23.5t-68 -62.5t-44.5 -90.5t-16 -107.5q0 -70 30 -106t98 -36q40 0 78.5 20t68.5 57.5t48.5 90.5t18.5 120zM495 328q0 -77 -24 -139.5t-63 -106t-90 -67t-105 -23.5q-84 0 -127.5 44t-43.5 131q0 71 20 132.5t57 107.5t88 72 t113 26q90 0 132.5 -49t42.5 -128zM502 675q-18 -32 -44 -49t-55 -17q-24 0 -40 9t-29 20t-26 20t-29 9q-33 0 -66 -48l-29 24q18 32 43 49t54 17q24 0 40.5 -9t30 -20t26.5 -20t30 -9q34 0 64 48l30 -24v0z" />
<glyph unicode="&#xf6;" horiz-adv-x="534" d="M439 324q0 66 -31 102t-96 36q-47 0 -86.5 -23.5t-68 -62.5t-44.5 -90.5t-16 -107.5q0 -70 30 -106t98 -36q40 0 78.5 20t68.5 57.5t48.5 90.5t18.5 120zM495 328q0 -77 -24 -139.5t-63 -106t-90 -67t-105 -23.5q-84 0 -127.5 44t-43.5 131q0 71 20 132.5t57 107.5t88 72 t113 26q90 0 132.5 -49t42.5 -128zM297 662q0 -18 -11.5 -29.5t-28.5 -11.5t-27.5 11t-10.5 26q0 18 11.5 29.5t28.5 11.5t27.5 -11t10.5 -26zM479 662q0 -18 -11.5 -29.5t-28.5 -11.5t-27.5 11t-10.5 26q0 18 11.5 29.5t28.5 11.5t27.5 -11t10.5 -26z" />
<glyph unicode="&#xf7;" d="M283 95q0 -18 -12 -30.5t-30 -12.5t-30 12.5t-12 30.5t12 30.5t30 12.5t30 -12.5t12 -30.5zM509 275h-460l9 45h460zM362 499q0 -18 -12 -30.5t-30 -12.5t-30 12.5t-12 30.5t12 30.5t30 12.5t30 -12.5t12 -30.5z" />
<glyph unicode="&#xf8;" horiz-adv-x="534" d="M349 458q-15 4 -37 4q-47 0 -86.5 -23.5t-68 -62.5t-44.5 -90.5t-16 -107.5q0 -73 33 -109l219 389v0zM439 324q0 84 -49 117l-222 -396q24 -9 57 -9q40 0 78.5 20t68.5 57.5t48.5 90.5t18.5 120zM495 328q0 -77 -24 -139.5t-63 -106t-90 -67t-105 -23.5q-40 0 -69 10 l-58 -102l-39 21l57 101q-62 43 -62 145q0 71 20 132.5t57 107.5t88 72t113 26q29 0 53 -6l54 97l39 -21l-51 -91q41 -21 60.5 -61.5t19.5 -94.5z" />
<glyph unicode="&#xf9;" horiz-adv-x="567" d="M467 238l-45 -238h-54l7.5 33t12 48.5t18.5 66.5t27 88l-2 1q-18 -46 -43.5 -90t-57 -78.5t-69 -56t-79.5 -21.5q-66 0 -91.5 44.5t-9.5 127.5l64 334h52l-62 -324q-14 -71 0 -104t57 -33q29 0 57.5 18t55 47.5t49.5 67.5t42 78.5t32 80t19 72.5l18 97h52zM345 581 l-102 122l45 31l92 -129z" />
<glyph unicode="&#xfa;" horiz-adv-x="567" d="M467 238l-45 -238h-54l7.5 33t12 48.5t18.5 66.5t27 88l-2 1q-18 -46 -43.5 -90t-57 -78.5t-69 -56t-79.5 -21.5q-66 0 -91.5 44.5t-9.5 127.5l64 334h52l-62 -324q-14 -71 0 -104t57 -33q29 0 57.5 18t55 47.5t49.5 67.5t42 78.5t32 80t19 72.5l18 97h52zM336 581 l-26 29l128 124l34 -37z" />
<glyph unicode="&#xfb;" horiz-adv-x="567" d="M467 238l-45 -238h-54l7.5 33t12 48.5t18.5 66.5t27 88l-2 1q-18 -46 -43.5 -90t-57 -78.5t-69 -56t-79.5 -21.5q-66 0 -91.5 44.5t-9.5 127.5l64 334h52l-62 -324q-14 -71 0 -104t57 -33q29 0 57.5 18t55 47.5t49.5 67.5t42 78.5t32 80t19 72.5l18 97h52zM441 581 l-80 88l-108 -88l-26 26l143 127l102 -125z" />
<glyph unicode="&#xfc;" horiz-adv-x="567" d="M467 238l-45 -238h-54l7.5 33t12 48.5t18.5 66.5t27 88l-2 1q-18 -46 -43.5 -90t-57 -78.5t-69 -56t-79.5 -21.5q-66 0 -91.5 44.5t-9.5 127.5l64 334h52l-62 -324q-14 -71 0 -104t57 -33q29 0 57.5 18t55 47.5t49.5 67.5t42 78.5t32 80t19 72.5l18 97h52zM304 662 q0 -18 -11.5 -29.5t-28.5 -11.5t-27.5 11t-10.5 26q0 18 11.5 29.5t28.5 11.5t27.5 -11t10.5 -26zM486 662q0 -18 -11.5 -29.5t-28.5 -11.5t-27.5 11t-10.5 26q0 18 11.5 29.5t28.5 11.5t27.5 -11t10.5 -26z" />
<glyph unicode="&#xfd;" horiz-adv-x="460" d="M475 500q-45 -107 -92.5 -207t-96.5 -187.5t-98.5 -158.5t-98.5 -120q-41 -40 -83.5 -63t-82.5 -23q-39 0 -66 7l10 52q27 -10 64 -10q29 0 62.5 19.5t63.5 53.5q35 40 51 83.5t16 105.5q0 45 -4.5 98t-13.5 110t-22 117t-29 120h60q14 -56 25.5 -114.5t19.5 -114 t12.5 -105.5t4.5 -90q0 -18 -2.5 -39.5t-7.5 -41.5h1l66 117l63.5 122.5t63 134l66.5 151.5l48 -17v0zM268 581l-26 29l128 124l34 -37z" />
<glyph unicode="&#xfe;" horiz-adv-x="534" d="M440 350q0 60 -17.5 85.5t-45.5 25.5q-29 0 -57.5 -18t-55 -47.5t-49.5 -67.5t-42 -78.5t-32.5 -80t-19.5 -72.5l-9 -45q19 -7 44 -11t42 -4q66 0 112.5 29t75 74.5t41.5 101t13 108.5zM494 359q0 -67 -17.5 -132.5t-54.5 -117t-95 -83t-139 -31.5q-25 0 -45.5 2t-40.5 5 l-48 -254h-52l188 982h52l-45 -233q-3 -18 -7.5 -38.5t-12 -48.5l-18 -65.5l-25.5 -88.5l2 -1q19 51 45 96.5t57.5 80t69 54.5t80.5 20q51 0 78.5 -34.5t27.5 -112.5z" />
<glyph unicode="&#xff;" horiz-adv-x="460" d="M475 500q-45 -107 -92.5 -207t-96.5 -187.5t-98.5 -158.5t-98.5 -120q-41 -40 -83.5 -63t-82.5 -23q-39 0 -66 7l10 52q27 -10 64 -10q29 0 62.5 19.5t63.5 53.5q35 40 51 83.5t16 105.5q0 45 -4.5 98t-13.5 110t-22 117t-29 120h60q14 -56 25.5 -114.5t19.5 -114 t12.5 -105.5t4.5 -90q0 -18 -2.5 -39.5t-7.5 -41.5h1l66 117l63.5 122.5t63 134l66.5 151.5l48 -17v0zM238 662q0 -18 -11.5 -29.5t-28.5 -11.5t-27.5 11t-10.5 26q0 18 11.5 29.5t28.5 11.5t27.5 -11t10.5 -26zM420 662q0 -18 -11.5 -29.5t-28.5 -11.5t-27.5 11t-10.5 26 q0 18 11.5 29.5t28.5 11.5t27.5 -11t10.5 -26z" />
<glyph unicode="&#x131;" horiz-adv-x="247" d="M102 0h-52l95 497h52z" />
<glyph unicode="&#x141;" horiz-adv-x="422" d="M369 0h-311l71 374l-87 -31l-14 39l110 40l48 253h53l-44 -232l122 44l14 -40l-145 -52l-66 -351h258z" />
<glyph unicode="&#x142;" horiz-adv-x="276" d="M210 483l-91 -483h-52l87 463l-77 -29l-14 39l100 37l43 220h52l-39 -199l90 33l14 -40z" />
<glyph unicode="&#x152;" horiz-adv-x="849" d="M518 624q-23 7 -45 10.5t-48 3.5q-66 0 -123 -31t-99 -85t-65.5 -126t-23.5 -154q0 -94 46 -149t135 -55q64 0 115 12l108 574v0zM842 632h-269l-50 -262h256l-8 -43h-256l-53 -283h268l-9 -44h-321q-29 -4 -56 -6t-55 -2q-118 0 -176 63.5t-58 180.5q0 92 29 173.5 t79.5 142t120 96t150.5 35.5q27 0 51 -2t45 -6h320z" />
<glyph unicode="&#x153;" horiz-adv-x="845" d="M439 324q0 66 -31 102t-96 36q-47 0 -86.5 -23.5t-68 -62.5t-44.5 -90.5t-16 -107.5q0 -70 30 -106t98 -36q40 0 78.5 20t68.5 57.5t48.5 90.5t18.5 120zM760 394q0 34 -23 51.5t-59 17.5q-35 0 -64 -14t-52.5 -38.5t-40.5 -57.5t-27 -71q142 6 204 34t62 78zM816 400 q0 -71 -79.5 -115t-252.5 -51q-2 -14 -4.5 -36t-2.5 -40q0 -36 6.5 -59.5t21 -37t38 -18.5t57.5 -5q35 0 70 7.5t64 20.5l5 -44q-33 -14 -72.5 -22t-87.5 -8q-67 0 -106.5 25.5t-48.5 88.5q-38 -54 -94 -84t-117 -30q-84 0 -127.5 44t-43.5 131q0 71 20 132.5t57 107.5 t88 72t113 26q69 0 110 -31t56 -83q34 51 83.5 82.5t115.5 31.5t98.5 -30t32.5 -75z" />
<glyph unicode="&#x160;" horiz-adv-x="447" d="M420 624q-26 9 -51.5 12t-42.5 3q-43 0 -74.5 -12t-52.5 -31.5t-31 -43t-10 -47.5q0 -35 16 -60.5t40.5 -46t52.5 -39.5t52.5 -40.5t40.5 -50t16 -67.5q0 -45 -18.5 -83.5t-52 -66t-80 -43.5t-102.5 -16q-23 0 -50.5 3t-50.5 11l11 54q18 -8 45.5 -14t51.5 -6 q91 0 141 43t50 111q0 33 -16 57t-40 43.5t-51.5 38t-51.5 40.5t-40 50.5t-16 69.5q0 38 15.5 72.5t45 60.5t72.5 41.5t99 15.5q22 0 42.5 -1.5t49.5 -7.5zM320 732l-136 80l23 38l118 -66l139 66l18 -35z" />
<glyph unicode="&#x161;" horiz-adv-x="385" d="M336 449q-38 13 -83 13q-59 0 -89.5 -26.5t-30.5 -65.5q0 -24 12.5 -42t32 -33t41.5 -29.5t41.5 -31.5t32 -38t12.5 -50q0 -31 -13.5 -59t-39.5 -49t-63.5 -33.5t-85.5 -12.5q-25 0 -44 1.5t-38 4.5l10 54q20 -6 41 -9.5t44 -3.5q60 0 97.5 24.5t37.5 74.5q0 23 -12.5 40 t-32 32t-41.5 29.5t-41.5 32t-32 39.5t-12.5 53q0 30 12 55.5t35 44.5t56.5 30t77.5 11q28 0 47.5 -2t38.5 -6zM253 581l-102 125l31 28l80 -88l108 88l26 -26z" />
<glyph unicode="&#x178;" horiz-adv-x="502" d="M274 247l-47 -247h-53l47 247l-125 428h55l73 -260q9 -31 16.5 -61.5l14.5 -61.5h1q18 32 40 66l45 68l164 249h62zM277 777q0 -17 -11.5 -28.5t-28.5 -11.5t-27.5 10.5t-10.5 27.5t11.5 28.5t28.5 11.5t27.5 -10.5t10.5 -27.5zM484 777q0 -17 -11.5 -28.5t-28.5 -11.5 t-27.5 10.5t-10.5 27.5t11.5 28.5t28.5 11.5t27.5 -10.5t10.5 -27.5z" />
<glyph unicode="&#x17d;" horiz-adv-x="516" d="M542 638l-414 -520l-29.5 -36l-30.5 -36q18 2 68 2.5t118 0.5h180l-10 -49h-426l7 37l392 494l42 50l43 48q-30 -1 -69.5 -1.5t-93.5 -0.5h-190l9 48h411zM355 732l-136 80l23 38l118 -66l139 66l18 -35z" />
<glyph unicode="&#x17e;" horiz-adv-x="424" d="M406 461l-334 -414q12 0 29.5 0.5t37 1t39.5 0.5h40h115l-10 -49h-322l7 37l334 415q-28 -1 -63.5 -1.5t-79.5 -0.5h-108l10 47h312zM271 581l-102 125l31 28l80 -88l108 88l26 -26z" />
<glyph unicode="&#x192;" d="M582 641q-46 16 -89 16q-54 0 -89.5 -32.5t-56.5 -106.5l-51 -176h157l-8 -42h-161l-80 -281q-26 -94 -78.5 -136t-133.5 -42q-43 0 -88 14l12 45q46 -16 89 -16q54 0 89.5 32t55.5 104l80 280h-116l8 42h120l52 178q28 95 79.5 137.5t132.5 42.5q43 0 88 -14z" />
<glyph unicode="&#x2c6;" horiz-adv-x="431" d="M342 581l-80 88l-108 -88l-26 26l143 127l102 -125z" />
<glyph unicode="&#x2c7;" horiz-adv-x="431" d="M231 581l-102 125l31 28l80 -88l108 88l26 -26z" />
<glyph unicode="&#x2d8;" horiz-adv-x="418" d="M417 715q-4 -23 -14.5 -44t-27.5 -37t-40.5 -25.5t-52.5 -9.5t-48 9.5t-29 26t-12.5 37t2.5 43.5h37q-5 -29 9 -51t49 -22q33 0 55.5 19.5t29.5 53.5h42v0z" />
<glyph unicode="&#x2d9;" horiz-adv-x="274" d="M262 662q0 -18 -11.5 -30t-28.5 -12t-27.5 11t-10.5 27q0 18 11.5 30t28.5 12t27.5 -11t10.5 -27z" />
<glyph unicode="&#x2da;" horiz-adv-x="392" d="M340 662q0 23 -15 40t-39 17t-43 -18.5t-19 -46.5q0 -23 15 -40t39 -17t43 18.5t19 46.5zM381 665q0 -22 -9 -41t-24 -33.5t-34 -22.5t-39 -8q-39 0 -65.5 25t-26.5 66q0 23 9 42.5t24 33.5t34 21.5t39 7.5q40 0 66 -26t26 -65z" />
<glyph unicode="&#x2db;" horiz-adv-x="258" d="M136 0q-33 -20 -54 -38.5t-33 -34.5t-17 -29.5t-5 -23.5q0 -11 6 -18.5t21 -7.5q24 0 49 30l29 -22q-19 -27 -44.5 -41.5t-53.5 -14.5q-32 0 -49 15.5t-17 44.5q0 16 7 34.5t20 37.5t32 36.5t43 31.5h66v0z" />
<glyph unicode="&#x2dc;" horiz-adv-x="514" d="M449 675q-18 -32 -44 -49t-55 -17q-24 0 -40 9t-29 20t-26 20t-29 9q-33 0 -66 -48l-29 24q18 32 43 49t54 17q24 0 40.5 -9t30 -20t26.5 -20t30 -9q34 0 64 48l30 -24v0z" />
<glyph unicode="&#x2dd;" horiz-adv-x="472" d="M186 581l-28 27l127 126l34 -35zM340 581l-28 27l133 122l33 -36z" />
<glyph unicode="&#x394;" horiz-adv-x="695" d="M431 651l-348 -604h472zM-1 0l409 700h62l148 -700h-619z" />
<glyph unicode="&#x2206;" horiz-adv-x="695" d="M431 651l-348 -604h472zM-1 0l409 700h62l148 -700h-619z" />
<glyph unicode="&#x3a9;" horiz-adv-x="819" d="M696 435q0 -37 -10 -89t-35 -107.5t-68 -108t-109 -89.5h154l-8 -41h-206l9 48q109 69 163 169.5t54 215.5q0 45 -11 83t-34.5 65.5t-59 43.5t-84.5 16q-53 0 -96 -17.5t-77 -46.5t-59 -67t-41.5 -79.5t-24.5 -83.5t-8 -79q0 -73 25 -124.5t79 -95.5l-10 -48h-209l8 41 h161q-17 12 -35.5 30.5t-34 45t-25.5 62.5t-10 83q0 69 22 143t67.5 136t115.5 102t166 40q105 0 168 -63t63 -185z" />
<glyph unicode="&#x2126;" horiz-adv-x="819" d="M696 435q0 -37 -10 -89t-35 -107.5t-68 -108t-109 -89.5h154l-8 -41h-206l9 48q109 69 163 169.5t54 215.5q0 45 -11 83t-34.5 65.5t-59 43.5t-84.5 16q-53 0 -96 -17.5t-77 -46.5t-59 -67t-41.5 -79.5t-24.5 -83.5t-8 -79q0 -73 25 -124.5t79 -95.5l-10 -48h-209l8 41 h161q-17 12 -35.5 30.5t-34 45t-25.5 62.5t-10 83q0 69 22 143t67.5 136t115.5 102t166 40q105 0 168 -63t63 -185z" />
<glyph unicode="&#x3c0;" horiz-adv-x="662" d="M614 455h-119l-49 -257q-10 -53 -14 -84.5t-1 -48.5t15 -22.5t33 -5.5q14 0 29 2t27 6v-44q-17 -4 -38.5 -6t-42.5 -2q-31 0 -48.5 8.5t-25 26t-6 44.5t8.5 64l60 319h-217l-86 -455h-52l86 455h-118l9 42h558z" />
<glyph unicode="&#x2013;" d="M554 275h-550l9 45h550z" />
<glyph unicode="&#x2014;" horiz-adv-x="1000" d="M879 275h-750l9 45h750z" />
<glyph unicode="&#x2018;" horiz-adv-x="217" d="M263 719q-54 -46 -67 -80t-2 -56q10 -19 -0.5 -36t-30.5 -17q-22 0 -33.5 18t-5 47.5t34 68t83.5 80.5l21 -25v0z" />
<glyph unicode="&#x2019;" horiz-adv-x="217" d="M199 739q22 0 33.5 -18t5 -47.5t-34 -68t-83.5 -80.5l-21 25q54 46 67 80t2 56q-9 19 1 36t30 17z" />
<glyph unicode="&#x201a;" horiz-adv-x="217" d="M65 79q22 0 33.5 -18t5 -47.5t-34 -68t-83.5 -80.5l-21 25q54 46 67 80t2 56q-9 19 1 36t30 17z" />
<glyph unicode="&#x201c;" horiz-adv-x="375" d="M263 719q-54 -46 -67 -80t-2 -56q9 -19 -1 -36t-30 -17q-22 0 -33.5 18t-5 47.5t34 68t83.5 80.5l21 -25v0zM422 719q-54 -46 -67 -80t-2 -56q9 -19 -1 -36t-30 -17q-22 0 -33.5 18t-5 47.5t34 68t83.5 80.5l21 -25v0z" />
<glyph unicode="&#x201d;" horiz-adv-x="375" d="M199 739q22 0 33.5 -18t5 -47.5t-34 -68t-83.5 -80.5l-21 25q54 46 67 80t2 56q-9 19 1 36t30 17zM357 739q22 0 33.5 -18t5 -47.5t-34 -68t-83.5 -80.5l-21 25q54 46 67 80t2 56q-9 19 1 36t30 17z" />
<glyph unicode="&#x201e;" horiz-adv-x="375" d="M65 79q22 0 33.5 -18t5 -47.5t-34 -68t-83.5 -80.5l-21 25q54 46 67 80t2 56q-9 19 1 36t30 17zM224 79q22 0 33.5 -18t5 -47.5t-34 -68t-83.5 -80.5l-21 25q54 46 67 80t2 56q-9 19 1 36t30 17z" />
<glyph unicode="&#x2020;" horiz-adv-x="431" d="M441 580h-142l-9 -107l-61 -247h-35l33 247l33 107h-142l7 42h143l14 138h63l-38 -138h142z" />
<glyph unicode="&#x2021;" horiz-adv-x="431" d="M441 580h-142l-11 -117l-34 -117h142l-8 -42h-142l-15 -138h-62l38 138h-142l8 42h142l10 117l35 117h-142l7 42h143l14 138h63l-38 -138h142z" />
<glyph unicode="&#x2022;" horiz-adv-x="418" d="M312 302q0 -21 -8 -39.5t-21 -31.5t-31 -20.5t-37 -7.5q-20 0 -36.5 7.5t-28.5 19.5t-19 28t-7 34q0 21 8 39.5t21 31.5t30.5 20.5t37.5 7.5q19 0 36 -7.5t29 -19.5t19 -28t7 -34z" />
<glyph unicode="&#x2026;" horiz-adv-x="596" d="M109 39q0 -20 -13.5 -33t-31.5 -13t-28.5 12t-10.5 28q0 20 13.5 33t31.5 13t28.5 -12t10.5 -28zM302 39q0 -20 -13.5 -33t-31.5 -13t-28.5 12t-10.5 28q0 20 13.5 33t31.5 13t28.5 -12t10.5 -28zM495 39q0 -20 -13.5 -33t-31.5 -13t-28.5 12t-10.5 28q0 20 13.5 33 t31.5 13t28.5 -12t10.5 -28z" />
<glyph unicode="&#x2030;" horiz-adv-x="980" d="M548 186q0 29 -13.5 45t-45.5 16q-29 0 -49 -15.5t-33 -38.5t-18.5 -50t-5.5 -49q0 -29 13.5 -45t45.5 -16q29 0 49.5 15.5t33 38.5t18 49.5t5.5 49.5zM312 556q0 29 -13.5 45t-45.5 16q-29 0 -49 -15.5t-33 -38.5t-18.5 -50t-5.5 -49q0 -29 13.5 -45t45.5 -16 q29 0 49.5 15.5t33 38.5t18 49.5t5.5 49.5zM852 186q0 29 -13.5 45t-45.5 16q-29 0 -49 -15.5t-33 -38.5t-18.5 -50t-5.5 -49q0 -29 13.5 -45t45.5 -16q29 0 49.5 15.5t33 38.5t18 49.5t5.5 49.5zM597 191q0 -36 -10.5 -71.5t-31 -64t-51 -46t-70.5 -17.5q-44 0 -72 22 t-28 75q0 34 10 69t30.5 64t51 47.5t71.5 18.5q44 0 72 -22t28 -75zM37 -13l-28 29l648 647l29 -30zM361 561q0 -36 -10.5 -71.5t-31 -64t-51 -46t-70.5 -17.5q-44 0 -72 22t-28 75q0 34 10 69t30.5 64t51 47.5t71.5 18.5q44 0 72 -22t28 -75zM901 191q0 -36 -10.5 -71.5 t-31 -64t-51 -46t-70.5 -17.5q-44 0 -72 22t-28 75q0 34 10 69t30.5 64t51 47.5t71.5 18.5q44 0 72 -22t28 -75z" />
<glyph unicode="&#x2039;" horiz-adv-x="308" d="M130 295l81 -138l-40 -28l-97 170l150 163l35 -30z" />
<glyph unicode="&#x203a;" horiz-adv-x="308" d="M106 129l-35 30l129 137l-81 138l40 28l97 -170z" />
<glyph unicode="&#x2044;" horiz-adv-x="394" d="M-13 -20l-36 27l529 688l36 -27z" />
<glyph unicode="&#x2215;" horiz-adv-x="394" d="M-13 -20l-36 27l529 688l36 -27z" />
<glyph unicode="&#x2122;" horiz-adv-x="694" d="M335 641h-78l-47 -247h-47l48 247h-79l6 34h203zM655 394h-44l7 173l4 60l-23 -50l-92 -183h-51l-20 185l-4 48l-11 -38l-65 -195h-42l94 281h64l19 -184l3 -51l17 45l95 190h62z" />
<glyph unicode="&#x2202;" horiz-adv-x="632" d="M470 256q0 24 -8 47.5t-25 41.5t-44 29t-64 11q-40 0 -74.5 -16t-60 -44.5t-40.5 -68t-15 -85.5q0 -62 33 -98t96 -36q39 0 75 16.5t64.5 45.5t45.5 69.5t17 87.5zM579 477q0 -53 -8.5 -109.5t-25.5 -110.5t-43 -102t-61.5 -84.5t-81 -57.5t-100.5 -21q-48 0 -81.5 13.5 t-54.5 36.5t-30.5 54t-9.5 66q0 58 19.5 107t54 84.5t82 55.5t102.5 20q31 0 59 -8t50.5 -23.5t38 -38.5t21.5 -52q2 28 9 68t7 83q0 110 -54 171.5t-157 61.5l15 43q63 -3 109.5 -23t77.5 -54t46.5 -80t15.5 -100z" />
<glyph unicode="&#x220f;" horiz-adv-x="862" d="M805 683h-112l-181 -935h-53l181 935h-343l-181 -935h-53l182 935h-112l9 47h672z" />
<glyph unicode="&#x2211;" horiz-adv-x="693" d="M610 683h-407l220 -442l-398 -444h430l-10 -49h-502l8 40l408 459l-217 443l8 40h468z" />
<glyph unicode="&#x2212;" d="M509 275h-460l9 45h460z" />
<glyph unicode="&#x221a;" horiz-adv-x="600" d="M265 0h-59l-73 455h-94l9 42h133l46 -319q5 -32 9 -65t7 -65h2l27 59l29 61l283 590h56z" />
<glyph unicode="&#x221e;" horiz-adv-x="981" d="M442 300l-45 38.5t-44.5 33t-45 23t-45.5 8.5q-29 0 -53 -10.5t-41 -28.5t-27 -41.5t-10 -50.5q0 -34 21.5 -56t63.5 -22q46 0 104 32t122 74zM835 326q0 33 -21.5 55t-65.5 22q-22 0 -47.5 -8.5t-54 -23t-59 -33.5l-62.5 -40q22 -21 44.5 -39.5t44.5 -33t44 -23t45 -8.5 q29 0 53 10.5t41.5 28.5t27.5 42t10 51zM891 332q0 -30 -12 -63t-36 -60t-59 -44.5t-81 -17.5q-32 0 -61.5 10t-57.5 26.5t-54.5 38.5t-51.5 45l-69.5 -44.5t-68 -38.5t-65.5 -27t-61 -10q-73 0 -106 33.5t-33 84.5q0 37 15 71t40.5 59t59.5 40t73 15q31 0 61 -10t58 -27 t54.5 -38.5l52.5 -44.5l69.5 44.5t68 38.5t65 27t60.5 10q37 0 63 -9t43 -25t25 -37.5t8 -46.5z" />
<glyph unicode="&#x222b;" horiz-adv-x="333" d="M393 680q-10 4 -23.5 6.5t-27.5 2.5q-21 0 -38 -8.5t-31.5 -30.5t-27 -60t-23.5 -98q-11 -58 -20 -111.5l-18 -112t-20.5 -125.5t-27.5 -151q-14 -72 -31 -120.5t-39.5 -77.5t-51 -41.5t-64.5 -12.5q-26 0 -47 6l9 49q10 -4 23.5 -6.5t27.5 -2.5q21 0 38 8.5t31.5 30 t26 58t22.5 92.5q10 55 19 109.5l19 114.5l21.5 129t27.5 153q14 72 30.5 121t39 78t51 41.5t66.5 12.5q26 0 47 -6z" />
<glyph unicode="&#x2248;" d="M489 218q-22 -19 -53.5 -34.5t-70.5 -15.5q-38 0 -60.5 9.5t-41.5 21t-39.5 21t-52.5 9.5q-16 0 -31 -4.5t-28.5 -11t-24.5 -13.5t-19 -13l-20 40q23 17 55 33t71 16q34 0 57.5 -10t43.5 -21.5t41 -21.5t51 -10q26 0 50.5 12t52.5 33l19 -40v0zM519 370 q-22 -19 -53.5 -34.5t-70.5 -15.5q-38 0 -60.5 9.5t-41.5 21t-39.5 21t-52.5 9.5q-16 0 -31 -4.5t-28.5 -11t-24.5 -13.5t-19 -13l-20 40q23 17 55 33t71 16q34 0 57.5 -10t43.5 -21.5t41 -21.5t51 -10q26 0 50.5 12t52.5 33l19 -40v0z" />
<glyph unicode="&#x2260;" d="M511 350h-174l-63 -105h217l-9 -46h-235l-93 -156h-46l93 156h-153l9 46h171l62 105h-213l8 46h231l96 161h47l-96 -161h156z" />
<glyph unicode="&#x2264;" d="M437 0h-420l9 45h420zM162 349l295 -199l-31 -41l-348 243l428 237l21 -41z" />
<glyph unicode="&#x2265;" d="M437 0h-420l9 45h420zM81 109l-22 40l365 200l-296 200l31 40l350 -243z" />
<glyph unicode="&#x25ca;" horiz-adv-x="600" d="M377 624l-251 -284l147 -287l251 279zM279 -8h-33l-176 350l302 341h31l177 -349z" />
<glyph unicode="&#xe000;" horiz-adv-x="515" d="M0 515h515v-515h-515v515z" />
<glyph unicode="&#xf6c9;" horiz-adv-x="376" d="M208 734l-13 34l168 73l17 -48z" />
<glyph unicode="&#xf6ca;" horiz-adv-x="431" d="M308 732l-136 80l23 38l118 -66l139 66l18 -35z" />
<glyph unicode="&#xf6cb;" horiz-adv-x="535" d="M296 777q0 -17 -11.5 -28.5t-28.5 -11.5t-27.5 10.5t-10.5 27.5t11.5 28.5t28.5 11.5t27.5 -10.5t10.5 -27.5zM503 777q0 -17 -11.5 -28.5t-28.5 -11.5t-27.5 10.5t-10.5 27.5t11.5 28.5t28.5 11.5t27.5 -10.5t10.5 -27.5z" />
<glyph unicode="&#xf6ce;" horiz-adv-x="358" d="M344 734l-171 59l24 48l162 -73z" />
<glyph unicode="&#xf8ff;" horiz-adv-x="1039" d="M134 354v-27l-105 -4v35zM529 355q2 0 3.5 5t-0.5 5q2 -5 -3 -10zM527 357q5 0 2.5 2t0.5 2v1q-4 0 -2 -2t-1 -2v-1v0zM525 361q-2 2 -2.5 -2t2.5 2zM524 357h1l1 5q-4 1 -4.5 -3.5t3.5 0.5zM520 355q-2 5 3 10q-2 0 -3.5 -5t0.5 -5zM517 358q-2 -1 -1.5 1.5t2.5 1.5v1 q-2 1 -3.5 -2.5t2.5 -2.5v1zM513 362l-1 -3q-1 -2 -1 0l1 3h-1l-1 -3q-1 -2 0 -2q2 0 3 2l1 3h-1zM509 358h-2l2 6h-1l-2 -6q0 -1 1 -1h2v1zM635 9l-249 -63l28 -68h213l16 38l-8 17l-79 -20l-10 25l108 27zM634 90l-248 -64l19 -47l249 62zM391 164v-62l17 -42l241 61v43 h-258zM568 341q-14 3 -25.5 3.5t-22.5 0.5t-23.5 -0.5t-26.5 -3.5l15 -150h69l14 150v0zM462 191l-17 146q-12 -3 -20 -6.5t-15 -5.5q-6 -2 -9.5 2t-4.5 10t1 11.5t5 6.5q27 8 57.5 13.5t60.5 5.5q31 0 61 -5.5t58 -13.5q3 -1 4.5 -6.5t0.5 -11.5t-4 -10t-9 -2q-8 4 -17 6.5 t-21 5.5l-15 -146h68q26 23 47 61.5t21 87.5q0 40 -15.5 76t-41.5 62t-61.5 41.5t-75.5 15.5q-41 0 -76.5 -15.5t-61.5 -41.5t-41.5 -62t-15.5 -76q0 -42 17 -81t52 -68h68zM747 340q0 -53 -20 -95t-49 -68v-75l-16 -5l31 -73l-29 -7l29 -70l-29 -7l11 -26l-28 -63h-46 q-2 -17 -25.5 -29t-55.5 -12q-33 0 -56 12t-25 29h-46l-46 112l30 8l-30 73l33 8l-19 47v77q-29 28 -49 70.5t-20 93.5q0 47 18 88.5t48.5 72.5t72 49t89.5 18q47 0 88.5 -18t72 -49t48.5 -72.5t18 -88.5zM1010 323l-105 4v27l105 4v-35zM847 692q13 -12 24 -24l-76 -71 q-5 5 -9.5 10t-9.5 10zM506 706l-3 104h34l-3 -104h-28zM168 669l11.5 12t12.5 12l71 -77q-5 -5 -10 -9t-10 -9l-75 71v0z" />
<glyph horiz-adv-x="431" d="M439 732l-118 66l-139 -66l-18 35l162 83l136 -80z" />
<glyph horiz-adv-x="514" d="M534 807q-19 -31 -45 -48t-56 -17q-24 0 -41 9t-31.5 19.5l-28 19.5t-30.5 9q-37 0 -69 -47l-28 23q18 31 43.5 48t56.5 17q24 0 41 -9t31.5 -19.5l28 -19.5t30.5 -9q36 0 69 47l29 -23v0z" />
</font>
</defs>
</svg>
