<?xml version="1.0" standalone="no"?>
<!DOCTYPE svg PUBLIC "-//W3C//DTD SVG 1.1//EN" "http://www.w3.org/Graphics/SVG/1.1/DTD/svg11.dtd" >
<svg xmlns="http://www.w3.org/2000/svg">
<metadata>
Copyright   : Copyright  2000-2011 Lucas de Groo.t All rights reserved. Published by LucasFonts.
Designer    : Lucas de Groot
Foundry     : LucasFonts
Foundry URL : http://lucasfonts.com
</metadata>
<defs>
<font id="TheSaB3_" horiz-adv-x="550" >
<font-face units-per-em="1000" ascent="740" descent="-260" />
<missing-glyph horiz-adv-x="218" />
<glyph unicode="&#xfb01;" horiz-adv-x="586" d="M428 0v447h-245v-447h-63v447h-114v50h114v25q0 102 54 157.5t168 55.5q34 0 67.5 -5.5t61.5 -13.5l-13 -53q-28 9 -61 14.5t-59 5.5q-82 0 -118.5 -39.5t-36.5 -110.5v-36h307v-497h-62z" />
<glyph unicode="&#xfb02;" horiz-adv-x="586" d="M428 0v676q-26 4 -50 6t-48 2q-76 0 -111.5 -31t-35.5 -102v-54h152v-50h-152v-447h-63v447h-114v50h114v64q0 82 53 128t164 46q38 0 77.5 -4t75.5 -9v-722h-62z" />
<glyph horiz-adv-x="0" />
<glyph horiz-adv-x="0" />
<glyph unicode="&#xd;" horiz-adv-x="500" />
<glyph unicode=" "  horiz-adv-x="218" />
<glyph unicode="&#x09;" horiz-adv-x="218" />
<glyph unicode="&#xa0;" horiz-adv-x="218" />
<glyph unicode="!" horiz-adv-x="318" d="M217 40q0 -20 -14 -34t-34 -14t-34 14t-14 34t14 33.5t34 13.5t34 -13.5t14 -33.5zM195 154h-51l-13 545h76z" />
<glyph unicode="&#x22;" horiz-adv-x="338" d="M116 484h-46l-12 213h71zM268 484h-46l-12 213h70z" />
<glyph unicode="#" d="M205 425l-19 -192h161l19 192h-161zM416 425l-19 -192h94v-43h-98l-21 -190h-51l21 190h-161l-20 -190h-51l21 190h-96v43h100l20 192h-96v42h100l20 183h51l-20 -183h161l19 183h51l-20 -183h94v-42h-99z" />
<glyph unicode="$" d="M450 195q0 -33 -11 -62t-33 -52.5t-53.5 -39.5t-71.5 -22v-104h-49v102q-38 0 -68.5 3.5t-59.5 10.5l8 62q26 -10 63 -16t67 -6t56 6.5t45.5 20.5t31 35.5t11.5 51.5q0 36 -22 58.5t-54.5 38t-71 29t-71 33t-54.5 49t-22 77.5q0 31 11.5 58.5t33 49.5t51.5 36t67 18v98 h50v-95q31 -1 59.5 -4t50.5 -8l-9 -59q-26 8 -55 13t-57 5q-39 0 -66 -9t-43.5 -24t-23.5 -33.5t-7 -36.5q0 -36 22 -58t55 -38t71.5 -30t71.5 -34t55 -49t22 -75z" />
<glyph unicode="%" horiz-adv-x="743" d="M271 503q0 54 -19.5 81.5t-64.5 27.5q-37 0 -59 -29t-22 -76q0 -54 19.5 -82.5t65.5 -28.5q36 0 58 29.5t22 77.5zM637 145q0 54 -19.5 81.5t-64.5 27.5q-37 0 -59 -29t-22 -76q0 -55 19.5 -83t65.5 -28q35 0 57.5 29.5t22.5 77.5zM328 510q0 -35 -9.5 -64t-28.5 -50.5 t-46 -33.5t-61 -12q-72 0 -103.5 39.5t-31.5 111.5q0 33 10 62t28.5 50t45.5 33t61 12q72 0 103.5 -38.5t31.5 -109.5zM145 -19l-43 29l494 657l43 -29zM694 151q0 -69 -38 -114t-107 -45q-72 0 -103.5 39t-31.5 111q0 33 10 62t28.5 50.5t45.5 33.5t61 12q72 0 103.5 -38.5 t31.5 -110.5z" />
<glyph unicode="&#x26;" horiz-adv-x="794" d="M501 128l-69.5 60l-69.5 64l-64 63t-53 57q-64 -50 -91.5 -91.5t-27.5 -87.5q0 -30 11.5 -57t32.5 -47.5t51 -32t67 -11.5q71 0 124 25t89 58zM358 599q0 35 -21.5 60.5t-69.5 25.5q-42 0 -67.5 -24.5t-25.5 -64.5q0 -27 18.5 -61.5t66.5 -88.5q49 39 74 74.5t25 78.5z M688 -16q-38 26 -76 55t-69 55q-51 -46 -117 -74t-151 -28q-51 0 -90.5 14t-66.5 39.5t-41.5 61t-14.5 77.5q0 36 11 66t30.5 56.5t46.5 51.5t60 50q-29 33 -47.5 58.5t-30 47t-16 40.5t-4.5 39q0 28 10.5 54t31 45.5t51 31t69.5 11.5q72 0 109.5 -37t37.5 -91 q0 -50 -28.5 -96.5t-99.5 -101.5l53.5 -56l62 -60.5l66.5 -61t67 -56.5v-1q35 47 56.5 114t16.5 152h64q3 -88 -21 -164.5t-72 -136.5l77.5 -59t64.5 -47z" />
<glyph unicode="'" horiz-adv-x="187" d="M116 484h-46l-12 213h71z" />
<glyph unicode="(" horiz-adv-x="301" d="M228 -205q-46 73 -74.5 139t-44 126.5t-21 116t-5.5 106.5t6.5 109t23 120t44.5 129t72 136l43 -23q-63 -107 -95.5 -225.5t-32.5 -239.5q0 -130 31.5 -245t98.5 -224z" />
<glyph unicode=")" horiz-adv-x="301" d="M225 290q0 -51 -6.5 -109t-23 -120.5t-45 -129.5t-71.5 -136l-43 24q63 107 95.5 225t32.5 240q0 130 -31.5 245t-97.5 224l46 24q46 -73 74 -139t43.5 -126t21 -115.5t5.5 -106.5z" />
<glyph unicode="*" horiz-adv-x="366" d="M290 494l-94 64l8 -114h-50l8 114l-95 -64l-24 43l104 50l-104 49l25 44l95 -64l-8 114h50l-8 -114l94 64l24 -43l-103 -49l103 -50z" />
<glyph unicode="+" d="M304 271v-211h-60v211h-200v53h200v210h60v-210h202v-53h-202z" />
<glyph unicode="," horiz-adv-x="208" d="M101 88q22 0 36 -18t11.5 -49t-24.5 -72.5t-71 -89.5l-29 25q46 49 52 84.5t-7 52.5q-8 11 -9 23t4 21.5t15 16t22 6.5z" />
<glyph unicode="-" horiz-adv-x="327" d="M49 268v52h229v-52h-229z" />
<glyph unicode="." horiz-adv-x="208" d="M152 41q0 -20 -14 -34.5t-34 -14.5t-34 14.5t-14 34.5t14 34t34 14t34 -14t14 -34z" />
<glyph unicode="/" horiz-adv-x="420" d="M71 -161h-59l350 918h59z" />
<glyph unicode="0" d="M425 326q0 75 -9 128.5t-28 87t-47 49t-67 15.5q-32 0 -59 -14.5t-47.5 -47t-32 -84t-11.5 -125.5q0 -70 7.5 -124t25 -91t46.5 -56t71 -19q71 0 111 72t40 209zM493 333q0 -96 -19.5 -161t-51.5 -105t-72.5 -57.5t-81.5 -17.5q-53 0 -92.5 18.5t-66 58.5t-40 104 t-13.5 156q0 85 17 147.5t47 102.5t71.5 59.5t89.5 19.5q44 0 82.5 -14.5t67.5 -51.5t45.5 -100t16.5 -159z" />
<glyph unicode="1" d="M81 0v57h182v531l-170 -67l-13 58l194 71h54v-593h161v-57h-408z" />
<glyph unicode="2" d="M63 0v50l176 173q46 46 75 79.5t45.5 60.5t22 50.5t5.5 50.5q0 29 -9.5 55t-28.5 45t-46 30t-61 11q-23 0 -45 -5t-42 -13t-36.5 -18t-28.5 -20l-21 53q36 24 81.5 40t99.5 16q50 0 88 -15t63.5 -40.5t38.5 -59t13 -70.5q0 -32 -6.5 -60.5t-24 -60t-48 -68t-79.5 -82.5 l-151 -143v-1q29 1 85.5 1.5t134.5 0.5h114v-60h-415z" />
<glyph unicode="3" d="M466 193q0 -45 -18 -82.5t-52 -63.5t-82 -40.5t-109 -14.5q-32 0 -63 4t-57 12l9 59q26 -9 57 -14.5t64 -5.5q88 0 135.5 37t47.5 99t-46.5 97.5t-131.5 35.5q-26 0 -47 -1t-47 -3v53h18q115 0 177 32.5t62 101.5q0 51 -36.5 79t-96.5 28q-42 0 -77.5 -11t-68.5 -28 l-7 58q34 14 73.5 23.5t87.5 9.5t84 -12t60 -32.5t36 -48t12 -59.5q0 -60 -34 -99t-97 -56l-1 -2q31 -2 58 -15t47 -34t31.5 -48.5t11.5 -58.5z" />
<glyph unicode="4" d="M345 587h-1l-251 -375q26 1 62.5 1.5t72.5 0.5h68h49v373zM408 157v-157h-63v157h-314l-4 48l295 445h86v-436h119v-57h-119z" />
<glyph unicode="5" d="M466 210q0 -49 -18.5 -89.5t-52.5 -69t-82 -44t-107 -15.5q-61 0 -116 13v60q27 -9 58 -14t65 -5q91 0 138.5 42t47.5 113q0 68 -50.5 102.5t-133.5 34.5q-32 0 -61 -2t-47 -6v320h336v-61h-278v-201q15 2 33.5 2.5t32.5 0.5q58 0 102.5 -14.5t73.5 -39t44 -57.5t15 -70z " />
<glyph unicode="6" d="M433 204q0 66 -37 107t-110 41q-36 0 -64 -13t-47.5 -33.5t-30 -45.5t-10.5 -48q0 -34 10 -64.5t29.5 -53.5t48 -36.5t66.5 -13.5q69 0 107 44.5t38 115.5zM497 217q0 -50 -15.5 -91.5t-44 -71t-68.5 -46t-89 -16.5q-52 0 -92.5 19t-68.5 53.5t-42.5 83.5t-14.5 110 q0 109 24.5 185t68 124t103 69.5t129.5 21.5q13 0 26.5 -0.5t20.5 -1.5v-56q-12 2 -25 2.5t-31 0.5q-111 0 -170.5 -63.5t-78.5 -178.5q-1 -8 -3.5 -23t-4.5 -33h1q26 48 72 74t103 26q48 0 85.5 -14.5t63 -40t38.5 -60t13 -73.5z" />
<glyph unicode="7" d="M492 595q-41 -74 -79 -151.5l-72.5 -153.5t-64.5 -149.5t-54 -140.5h-75q55 140 123.5 290.5t149.5 299.5q-8 0 -36.5 -0.5t-67.5 -1t-84 -0.5h-83h-89v62h432v-55v0z" />
<glyph unicode="8" d="M419 151q0 31 -12.5 54t-33 41t-47.5 32t-56 27q-27 -15 -52 -30.5t-44.5 -33.5t-31 -39.5t-11.5 -48.5q0 -48 37.5 -78.5t109.5 -30.5q29 0 54.5 7t45 20.5t30.5 33.5t11 46zM402 498q0 54 -36 81t-93 27q-59 0 -92.5 -30.5t-33.5 -74.5q0 -23 7.5 -41t23.5 -34 t41 -30.5t59 -31.5q25 14 47.5 28t39.5 30t27 34.5t10 41.5zM486 158q0 -37 -16 -67.5t-45 -52.5t-68.5 -34t-86.5 -12q-46 0 -84 11t-65.5 31.5t-42.5 49.5t-15 64q0 33 13 59.5t34.5 48t49 40t57.5 34.5q-65 31 -101 69t-36 97q0 34 14 63.5t40.5 51.5t63 34.5t81.5 12.5 q91 0 140.5 -42.5t49.5 -111.5q0 -29 -11.5 -52.5t-30 -43.5t-43.5 -37t-52 -32q29 -15 56.5 -31.5t49.5 -37.5t35 -48.5t13 -63.5z" />
<glyph unicode="9" d="M412 439q0 36 -10 66.5t-29 53t-47 35t-64 12.5q-34 0 -61 -12.5t-45.5 -33.5t-28 -49.5t-9.5 -61.5q0 -69 37 -110.5t105 -41.5q36 0 64.5 11.5t48 31t29.5 45t10 54.5zM484 392q0 -112 -25.5 -188.5t-69.5 -123.5t-104 -67.5t-129 -20.5q-36 0 -72 6v59 q19 -4 40.5 -6.5t43.5 -2.5q107 0 165.5 56t75.5 170q2 16 4 27.5t5 25.5h-1q-25 -40 -68 -63t-100 -23q-47 0 -83.5 14.5t-61.5 41t-38 62.5t-13 79q0 49 16 90t44.5 69.5t68 44.5t86.5 16q49 0 88.5 -15t68 -47.5t44 -83t15.5 -120.5z" />
<glyph unicode=":" horiz-adv-x="278" d="M204 41q0 -20 -14 -34.5t-34 -14.5t-34 14.5t-14 34.5t14 34t34 14t34 -14t14 -34zM204 340q0 -20 -14 -34t-34 -14t-34 14t-14 34t14 34t34 14t34 -14t14 -34z" />
<glyph unicode=";" horiz-adv-x="278" d="M155 88q22 0 35.5 -18t11.5 -49t-24 -72.5t-71 -89.5l-29 25q23 25 35 46t16.5 38.5t2 30.5t-8.5 22q-8 11 -9 23t4 21.5t14.5 16t22.5 6.5zM204 340q0 -20 -14 -34t-34 -14t-34 14t-14 34t14 34t34 14t34 -14t14 -34z" />
<glyph unicode="&#x37e;" horiz-adv-x="278" d="M155 88q22 0 35.5 -18t11.5 -49t-24 -72.5t-71 -89.5l-29 25q23 25 35 46t16.5 38.5t2 30.5t-8.5 22q-8 11 -9 23t4 21.5t14.5 16t22.5 6.5zM204 340q0 -20 -14 -34t-34 -14t-34 14t-14 34t14 34t34 14t34 -14t14 -34z" />
<glyph unicode="&#x3c;" d="M392 29l-314 275l314 275l40 -39l-273 -235l273 -233z" />
<glyph unicode="=" d="M57 192v54h436v-54h-436zM57 349v53h436v-53h-436z" />
<glyph unicode="&#x3e;" d="M158 29l-40 39l273 235l-273 233l40 43l314 -275z" />
<glyph unicode="?" horiz-adv-x="441" d="M238 40q0 -20 -14 -34t-34 -14t-33.5 14t-13.5 34t13.5 33.5t33.5 13.5t34 -13.5t14 -33.5zM372 519q0 -41 -15.5 -70t-37 -52.5t-45 -45.5t-40.5 -49t-22.5 -62.5t9.5 -85.5h-62q-16 51 -11.5 88.5t20.5 66t39 51.5l44 46t36 48t15 58q0 26 -15 49.5t-42 42t-65 30 t-84 13.5l8 58q61 -3 110.5 -18.5t84.5 -41t54 -58t19 -68.5z" />
<glyph unicode="@" horiz-adv-x="984" d="M586 472q-27 7 -69 7q-40 0 -68.5 -21t-46.5 -52.5t-26.5 -67.5t-8.5 -67q0 -86 51 -86q21 0 44 14.5t44 43t39 71.5t29 100l12 58v0zM885 401q0 -65 -17 -116t-46 -85.5t-68.5 -52.5t-84.5 -18q-33 0 -55.5 10.5t-35.5 27t-16.5 38t0.5 42.5h-3q-5 -15 -19 -35.5 t-35 -39t-47 -31t-55 -12.5q-50 0 -72.5 34t-22.5 94q0 55 14 104t41.5 86t69 58.5t96.5 21.5q33 0 65.5 -3t56.5 -8l-41 -223q-11 -57 8.5 -83.5t62.5 -26.5q31 0 57.5 14t46 41.5t30.5 67.5t11 91q0 52 -16.5 103t-53.5 91.5t-95 65t-140 24.5q-77 0 -145 -29t-118 -81 t-79 -123t-29 -156q0 -75 21.5 -135t63.5 -103t102.5 -66t138.5 -23q45 0 84 5.5t80 18.5l9 -54q-42 -13 -90.5 -19t-90.5 -6q-88 0 -158 26.5t-119 75t-75 117t-26 153.5q0 98 35 180.5t95 142t139 93t167 33.5q91 0 159 -27.5t112 -73.5t66 -105.5t22 -123.5z" />
<glyph unicode="A" horiz-adv-x="608" d="M332 514l-16.5 47t-13.5 43h-1l-14.5 -43.5l-15.5 -45.5l-107 -291h274zM518 0l-61 172h-311l-63 -172h-67l254 675h69l253 -675h-74z" />
<glyph unicode="B" horiz-adv-x="563" d="M438 195q0 38 -16.5 63t-45 40t-66.5 21t-82 6h-32t-36 -1v-269q15 -2 38.5 -4t58.5 -2q48 0 82.5 11t56 30.5t32 46.5t10.5 58zM417 508q0 25 -7 47t-24.5 37.5t-47 24.5t-75.5 9q-26 0 -53 -0.5t-50 -1.5v-249q17 -1 32 -1h36q95 0 142 35t47 99zM504 198 q0 -26 -9 -60.5t-36.5 -66t-77 -53t-130.5 -21.5q-30 0 -73.5 1t-81.5 2v675q32 0 75 1t103 1q108 0 158.5 -43t50.5 -115q0 -57 -33.5 -100t-93.5 -62v-1q40 -6 68 -21t46 -36.5t26 -47.5t8 -53z" />
<glyph unicode="C" horiz-adv-x="595" d="M548 32q-40 -17 -89.5 -28t-104.5 -11q-76 0 -132.5 22.5t-94 65.5t-56.5 104.5t-19 138.5q0 75 18.5 140.5t57.5 114t100.5 76t148.5 27.5q40 0 81.5 -6t79.5 -17l-12 -59q-79 28 -163 28q-65 0 -111 -23.5t-75 -63.5t-42.5 -93.5t-13.5 -112.5q0 -136 61.5 -211 t190.5 -75q42 0 85.5 10.5t76.5 27.5l13 -55v0z" />
<glyph unicode="D" horiz-adv-x="686" d="M567 339q0 145 -73.5 216t-216.5 71q-29 0 -62 -1t-55 -2v-566q23 -3 52 -5t51 -2q67 0 123 17t96.5 52.5t62.5 90t22 129.5zM634 343q0 -87 -28.5 -152t-79 -108t-120 -64.5t-152.5 -21.5q-51 0 -88 2t-70 1v675q39 0 89 1.5t100 1.5q83 0 148 -20.5t109.5 -61.5 t68 -104.5t23.5 -148.5z" />
<glyph unicode="E" horiz-adv-x="508" d="M96 0v675h333v-52h-269v-249h256v-51h-256v-270h269v-53h-333z" />
<glyph unicode="F" horiz-adv-x="471" d="M160 623v-250h254v-52h-254v-321h-64v675h332v-52h-268z" />
<glyph unicode="G" horiz-adv-x="687" d="M597 29q-51 -19 -108.5 -28t-108.5 -9q-74 0 -135.5 22.5t-105 65t-67.5 104.5t-24 141q0 76 24.5 141.5t70 113.5t111 75.5t148.5 27.5q48 0 93 -7.5t91 -21.5l-15 -58q-43 17 -87.5 25.5t-89.5 8.5q-54 0 -104 -18t-89 -54t-62 -91.5t-23 -130.5q0 -70 20 -124t56 -91 t86.5 -56t111.5 -19q41 0 75.5 5.5t67.5 16.5v269h64v-308v0z" />
<glyph unicode="H" horiz-adv-x="706" d="M546 0v324h-386v-324h-64v675h64v-298h386v298h64v-675h-64z" />
<glyph unicode="I" horiz-adv-x="256" d="M96 0v675h64v-675h-64z" />
<glyph unicode="J" horiz-adv-x="325" d="M230 167q0 -85 -37 -129t-123 -44q-18 0 -36.5 2.5t-32.5 5.5v59q15 -5 35 -9t39 -4q22 0 38.5 5.5t28 19.5t17.5 38t6 62v502h65v-508v0z" />
<glyph unicode="K" horiz-adv-x="575" d="M464 0l-304 342v-342h-64v675h64v-327l304 327h81l-312 -327l322 -348h-91z" />
<glyph unicode="L" horiz-adv-x="425" d="M96 0v675h64v-622h258v-53h-322z" />
<glyph unicode="M" horiz-adv-x="895" d="M766 0l-63 437l-13.5 102.5t-7.5 68.5h-2l-12.5 -45.5t-19.5 -60.5l-170 -502h-77l-161 471q-14 39 -24 73t-18 64h-1q-2 -39 -7 -81.5l-11 -95.5l-51 -431h-67l94 675h84l164 -480l19 -60t20 -69h1q9 34 17.5 61.5t19.5 58.5l167 489h88l99 -675h-68z" />
<glyph unicode="N" horiz-adv-x="714" d="M531 0l-299 472q-23 36 -42.5 69.5t-36.5 66.5q1 -30 2.5 -80t2.5 -107.5t1.5 -116t0.5 -105.5v-199h-64v675h87l295 -464l42.5 -70.5l40.5 -70.5l-2.5 88t-2.5 110.5t-1.5 118t-0.5 108.5v180h64v-675h-87z" />
<glyph unicode="O" horiz-adv-x="706" d="M589 333q0 142 -62 219t-174 77q-47 0 -90 -19t-75.5 -55.5t-51.5 -89.5t-19 -121q0 -66 14.5 -120.5t43.5 -93.5t73.5 -61t103.5 -22q47 0 90 19t75.5 55t52 89.5t19.5 122.5zM658 344q0 -85 -25 -150.5t-67.5 -110.5t-100 -68t-121.5 -23q-75 0 -130.5 24.5t-92.5 69 t-55 107t-18 138.5q0 85 25 150.5t67.5 110.5t99.5 68t121 23q69 0 124.5 -22.5t93.5 -66t58.5 -106.5t20.5 -144z" />
<glyph unicode="P" horiz-adv-x="519" d="M413 478q0 72 -43 109.5t-132 37.5h-42t-36 -2v-295q15 -2 32 -3.5t35 -1.5q87 1 136.5 43.5t49.5 111.5zM480 489q0 -50 -20 -90t-55 -69t-82 -44.5t-101 -15.5q-32 0 -62 3v-273h-64v675q69 3 154 3q56 0 99 -14t72 -39t44 -59.5t15 -76.5z" />
<glyph unicode="Q" horiz-adv-x="705" d="M589 333q0 142 -62 219t-174 77q-47 0 -90 -19t-75.5 -55.5t-51.5 -89.5t-19 -121q0 -66 14.5 -120.5t43.5 -93.5t73.5 -61t103.5 -22q47 0 90 19t75.5 55t52 89.5t19.5 122.5zM704 -173q-62 -8 -108.5 -1t-88.5 17.5t-83 18.5t-91 1v59q57 7 101 -0.5t85.5 -17.5 t85 -17.5t99.5 -0.5v-59v0zM658 344q0 -85 -25 -150.5t-67.5 -110.5t-100 -68t-121.5 -23q-75 0 -130.5 24.5t-92.5 69t-55 107t-18 138.5q0 85 25 150.5t67.5 110.5t99.5 68t121 23q69 0 124.5 -22.5t93.5 -66t58.5 -106.5t20.5 -144z" />
<glyph unicode="R" horiz-adv-x="544" d="M398 501q0 71 -44 98.5t-125 27.5q-20 0 -36 -0.5t-33 -2.5v-254q9 -1 25 -1.5t40 -0.5q83 0 128 37t45 96zM422 0l-249 319h-13v-319h-64v675l64.5 2t86.5 1q46 0 85.5 -8.5t69 -28t46.5 -51.5t17 -78q0 -47 -18 -82t-49 -59t-71 -36.5t-83 -13.5l31.5 -35t29.5 -35 l202 -251h-85z" />
<glyph unicode="S" horiz-adv-x="504" d="M446 191q0 -44 -17 -80.5t-48.5 -63t-76.5 -41t-100 -14.5q-39 0 -76 5t-67 14l11 63q32 -12 67 -19t70 -7q34 0 65 7.5t54 23.5t37 41.5t14 62.5q0 42 -24 67t-59.5 42.5t-77 32.5t-77 36.5t-59.5 53.5t-24 85q0 39 14.5 72.5t43 58t70 38.5t95.5 14q31 0 62.5 -3.5 t58.5 -9.5l-8 -58q-27 8 -57.5 13t-59.5 5q-78 0 -116 -33.5t-38 -89.5q0 -41 24 -65.5t60 -42t77.5 -32.5t77.5 -36.5t60 -54t24 -85.5z" />
<glyph unicode="T" horiz-adv-x="520" d="M292 622v-622h-64v622h-209v53h482v-53h-209z" />
<glyph unicode="U" horiz-adv-x="701" d="M605 255q0 -129 -65.5 -196t-197.5 -67q-78 0 -126 20t-75 52.5t-36 74t-9 83.5v453h64v-446q0 -38 7.5 -71.5t28.5 -58.5t57.5 -40t94.5 -15q48 0 84.5 11t61 35t36.5 63t12 96v426h63v-420v0z" />
<glyph unicode="V" horiz-adv-x="610" d="M335 0h-69l-250 675h74l164 -462l24 -68.5t24 -74.5h1l24 73l27 76l171 456h67z" />
<glyph unicode="W" horiz-adv-x="953" d="M730 0h-81l-149 512q-8 27 -14.5 52.5t-11.5 48.5h-1q-4 -25 -10 -50t-14 -52l-144 -511h-81l-183 675h69l129 -487q10 -35 16.5 -64t12.5 -61h1q6 30 13 60t15 59l140 493h80l147 -501q8 -26 15 -54.5t12 -56.5h1q5 26 10 49t12 47l134 516h63z" />
<glyph unicode="X" horiz-adv-x="578" d="M476 0l-191 301l-189 -301h-74l226 349l-212 326h75l175 -275l173 275h73l-209 -320l233 -355h-80z" />
<glyph unicode="Y" horiz-adv-x="519" d="M289 246v-246h-64v246l-211 429h71l120 -251l28.5 -61.5t25.5 -60.5h1q13 32 28.5 65.5l31.5 66.5l117 241h68z" />
<glyph unicode="Z" horiz-adv-x="540" d="M47 0v45l311 481l32 48l32 46q-29 -1 -70.5 -1.5t-95.5 -0.5h-198v57h434v-46l-328 -505l-22 -34l-23 -34q18 2 66 2h118h193v-58h-449z" />
<glyph unicode="[" horiz-adv-x="318" d="M96 -195v962h182v-47h-123v-866h123v-49h-182z" />
<glyph unicode="\" horiz-adv-x="415" d="M365 -161l-350 918h58l350 -918h-58z" />
<glyph unicode="]" horiz-adv-x="318" d="M39 -195v49h124v866h-124v47h182v-962h-182z" />
<glyph unicode="^" d="M416 347l-154 278l-146 -278l-45 25l166 303h54l174 -302z" />
<glyph unicode="_" d="M0 -251v49h550v-49h-550z" />
<glyph unicode="`" horiz-adv-x="366" d="M219 578l-128 118l42 41l119 -126z" />
<glyph unicode="a" horiz-adv-x="519" d="M359 241q-71 0 -117.5 -9.5t-74 -24.5t-39 -35t-11.5 -41q0 -38 23.5 -62.5t62.5 -24.5q35 0 64 16t49.5 42.5t31.5 59.5t11 67v12zM360 0q0 30 1 58.5t5 50.5l-2 1q-18 -49 -64 -83.5t-112 -34.5q-58 0 -96.5 34.5t-38.5 94.5q0 37 19.5 68t58 53.5t96 35t132.5 12.5v38 q0 61 -25.5 93.5t-92.5 32.5q-36 0 -76.5 -10.5t-70.5 -27.5l-16 53q35 16 80 26t93 10q50 0 83 -12t52.5 -33.5t27.5 -50.5t8 -63v-192q0 -38 0.5 -79t1.5 -75h-64z" />
<glyph unicode="b" horiz-adv-x="558" d="M444 265q0 89 -31 139t-97 50q-40 0 -69.5 -21t-49 -52.5t-29 -69.5t-9.5 -71v-181q23 -8 48.5 -11.5t55.5 -3.5q82 0 131.5 52t49.5 169zM510 271q0 -68 -18 -119.5t-51.5 -86.5t-80 -53t-103.5 -18q-50 0 -86.5 4.5t-74.5 13.5v718h63v-261q0 -20 -2 -45.5t-7 -44.5 l2 -1q21 60 67.5 93.5t106.5 33.5q88 0 136 -58.5t48 -175.5z" />
<glyph unicode="c" horiz-adv-x="443" d="M414 23q-33 -14 -73.5 -21.5t-81.5 -7.5q-39 0 -77.5 10t-68.5 36.5t-48.5 72.5t-18.5 118q0 62 15 112t44.5 85.5t73 55t100.5 19.5q77 0 132 -23l-14 -52q-26 10 -59.5 17.5t-68.5 7.5q-38 0 -67 -15.5t-48.5 -43.5t-30 -66.5t-10.5 -83.5q0 -40 7 -76t24.5 -63 t48.5 -42.5t79 -15.5q35 0 67.5 7t61.5 20l13 -51v0z" />
<glyph unicode="d" horiz-adv-x="556" d="M397 440q-52 13 -104 13q-82 0 -131 -52t-49 -169q0 -89 30.5 -139t96.5 -50q40 0 69.5 21t49 52.5t29 69.5t9.5 71v183zM396 0q0 12 0.5 27t1.5 30.5t3 30t4 26.5l-2 1q-20 -57 -66.5 -90t-106.5 -33q-94 0 -139 62.5t-45 171.5q0 67 18 119t51.5 87t80 53t103.5 18 q44 0 98 -6v233h63v-730h-64z" />
<glyph unicode="e" horiz-adv-x="503" d="M385 317q2 63 -32.5 101.5t-95.5 38.5q-56 0 -93 -37t-47 -103h268v0zM452 305v-14t-2 -22h-337q-2 -59 8 -101.5t31.5 -69.5t54.5 -39.5t77 -12.5q36 0 72 7.5t68 21.5l12 -53q-35 -14 -77 -22t-89 -8q-109 0 -166.5 61.5t-57.5 193.5q0 55 14.5 102.5t42.5 82t67.5 54 t90.5 19.5t87 -16t59 -43.5t34 -64t11 -76.5z" />
<glyph unicode="f" horiz-adv-x="346" d="M381 672q-20 6 -40.5 8.5t-40.5 2.5q-62 0 -89.5 -36.5t-27.5 -113.5v-36h153v-50h-153v-447h-63v447h-114v50h114v34q0 105 49 154.5t136 49.5q41 0 82 -9z" />
<glyph unicode="g" horiz-adv-x="537" d="M441 -85q0 43 -29 67.5t-89 26.5l-104 4h-34q-35 -23 -55.5 -51t-20.5 -62q0 -26 11.5 -45.5t32 -33.5t48.5 -21t61 -7q87 0 133 34.5t46 87.5zM393 328q0 60 -33.5 94t-95.5 34q-66 0 -101.5 -37t-35.5 -92q0 -60 34.5 -92.5t97.5 -32.5q62 0 98 33t36 93zM506 -76 q0 -39 -19 -72.5t-53 -58t-81 -38.5t-103 -14q-93 0 -149.5 39t-56.5 110q0 48 26.5 83t62.5 56q-23 10 -36.5 29.5t-13.5 43.5q0 25 14 46t39 34q-35 21 -54 55t-19 84q0 37 13.5 70t40 58.5t64.5 40.5t87 15q18 0 31.5 -2t31.5 -6h169v-50h-94q24 -18 37.5 -47t13.5 -65 q0 -38 -12.5 -71t-38.5 -57.5t-65 -39t-91 -14.5q-18 0 -33 2t-30 7q-19 -8 -29 -21.5t-10 -27.5q0 -23 22.5 -32.5t69.5 -11.5l101 -4q81 -3 123 -40.5t42 -100.5z" />
<glyph unicode="h" horiz-adv-x="579" d="M420 0v322q0 62 -21.5 97t-79.5 35q-35 0 -64.5 -16t-50.5 -45t-33 -69t-12 -87v-237h-63v730h63v-251q0 -26 -1.5 -53t-6.5 -46l2 -1q22 58 68 92t112 34q43 0 72 -12.5t46 -34t24.5 -50.5t7.5 -62v-346h-63z" />
<glyph unicode="i" horiz-adv-x="255" d="M96 0v497h63v-497h-63zM173 658q0 -18 -13 -31.5t-32 -13.5t-32 13t-13 32t13 32t32 13t32 -12.5t13 -32.5z" />
<glyph unicode="j" horiz-adv-x="263" d="M167 -68q0 -50 -7.5 -85.5t-25.5 -59t-48 -34.5t-75 -11q-17 0 -35 2t-32 7l7 57q14 -5 31 -8.5t34 -3.5q27 0 44 6t26.5 21t13.5 40.5t4 64.5v569h63v-565v0zM181 658q0 -18 -13 -31.5t-32 -13.5t-32 13t-13 32t13 32t32 13t32 -12.5t13 -32.5z" />
<glyph unicode="k" horiz-adv-x="473" d="M364 0l-205 264v-264h-63v730h63v-459l196 226h76l-202 -226l219 -271h-84z" />
<glyph unicode="l" horiz-adv-x="255" d="M96 0v730h63v-730h-63z" />
<glyph unicode="m" horiz-adv-x="888" d="M729 0v322q0 30 -4 54.5t-15 41.5t-29.5 26.5t-47.5 9.5q-31 0 -59.5 -15t-50.5 -43t-35 -69t-13 -92v-235h-63v323q0 27 -3.5 50.5t-14 41.5t-29 28.5t-49.5 10.5q-33 0 -61.5 -16t-49.5 -45t-33.5 -69.5t-12.5 -88.5v-235h-63v497h64q0 -26 -2 -59t-7 -57l2 -1 q21 57 68 91t110 34q44 0 71.5 -14t42.5 -34t20 -41t5 -34q6 18 19.5 39t35 40t51.5 31.5t69 12.5q70 0 108.5 -37.5t38.5 -122.5v-345h-63z" />
<glyph unicode="n" horiz-adv-x="579" d="M420 0v322q0 62 -21.5 97t-79.5 35q-35 0 -64.5 -16t-50.5 -45t-33 -69t-12 -87v-237h-63v497h64q0 -26 -2 -59.5t-7 -56.5l2 -1q21 57 67.5 91t112.5 34q43 0 72 -12.5t46 -34t24.5 -50.5t7.5 -62v-346h-63z" />
<glyph unicode="o" horiz-adv-x="540" d="M429 253q0 94 -40 147.5t-119 53.5q-31 0 -59.5 -12t-51 -37t-36 -63t-13.5 -90q0 -100 41.5 -154t119.5 -54q31 0 59.5 12t50.5 37.5t35 65t13 94.5zM494 256q0 -54 -16 -102t-46 -84t-73.5 -57t-98.5 -21q-99 0 -157.5 62t-58.5 193q0 52 15.5 99t45 82t73 56t99.5 21 q43 0 82.5 -13t69.5 -42t47.5 -77t17.5 -117z" />
<glyph unicode="p" horiz-adv-x="558" d="M444 265q0 89 -31 139t-97 50q-40 0 -69.5 -21t-49 -52.5t-29 -69.5t-9.5 -71v-181q23 -8 48.5 -11.5t55.5 -3.5q82 0 131.5 52t49.5 169zM510 271q0 -68 -18 -119.5t-51 -86t-79.5 -52.5t-103.5 -18q-28 0 -50 1t-49 5v-252h-63v748h64q0 -12 -0.5 -27t-1.5 -30.5 t-2.5 -30.5t-4.5 -26l2 -1q21 57 67 90t106 33q88 0 136 -58.5t48 -175.5z" />
<glyph unicode="q" horiz-adv-x="558" d="M399 441q-51 13 -104 13q-82 0 -131 -52.5t-49 -169.5q0 -89 30.5 -139t96.5 -50q40 0 69.5 21t49 52.5t29 69.5t9.5 71v184zM399 -251v282q0 14 1 37.5t6 45.5l-2 1q-20 -57 -66 -90t-106 -33q-88 0 -136 58t-48 176q0 67 18 119t51.5 87t80.5 53t106 18q39 0 79.5 -3.5 t78.5 -9.5v-741h-63z" />
<glyph unicode="r" horiz-adv-x="354" d="M326 443q-85 13 -126 -51t-41 -194v-198h-63v497h64q0 -26 -3 -61.5t-10 -68.5l2 -1q7 28 20.5 55t35.5 47t52.5 30.5t71.5 5.5z" />
<glyph unicode="s" horiz-adv-x="431" d="M374 146q0 -32 -14 -60t-40 -49t-64 -33t-86 -12q-29 0 -58.5 3t-52.5 10l9 60q24 -9 54 -14t59 -5q56 0 92 24.5t36 66.5q0 32 -18.5 49t-46.5 27t-61 18t-61 22.5t-46.5 39.5t-18.5 70q0 62 47.5 102t140.5 40q24 0 50.5 -3t49.5 -8l-8 -54q-23 7 -49 11t-52 4 q-58 0 -86.5 -23t-28.5 -62q0 -32 18.5 -49t47 -27.5t61 -18.5t61 -22t47 -39t18.5 -68z" />
<glyph unicode="t" horiz-adv-x="369" d="M334 3q-20 -5 -46 -7.5t-49 -2.5q-36 0 -60.5 8.5t-38.5 26t-20 44.5t-6 65v310h-113v50h113v168l63 17v-185h153v-50h-153v-279q0 -36 3.5 -59t12.5 -36.5t24.5 -18.5t38.5 -5q39 0 69 8l9 -54v0z" />
<glyph unicode="u" horiz-adv-x="579" d="M419 0q0 26 2 59.5t7 56.5l-2 1q-21 -57 -67.5 -91t-112.5 -34q-43 0 -72 12.5t-46 34t-24.5 50.5t-7.5 62v346h63v-322q0 -62 21 -97t80 -35q35 0 64.5 16t50.5 45t33 69t12 87v237h63v-497h-64z" />
<glyph unicode="v" horiz-adv-x="471" d="M267 0h-66l-189 497h72l124 -347l14.5 -42.5t12.5 -40.5h1l12.5 40t14.5 40l127 350h70z" />
<glyph unicode="w" horiz-adv-x="791" d="M607 0h-75l-118 344q-16 47 -27 91h-1q-8 -32 -17.5 -62.5l-19.5 -62.5l-98 -310h-76l-155 497h72l92 -320l18 -62.5t15 -53.5h1q7 28 15.5 57.5l17.5 58.5l103 320h76l104 -319l13.5 -41.5l9.5 -31l7 -24l6 -21.5h1q7 27 15 52.5l19 63.5l97 321h68z" />
<glyph unicode="x" horiz-adv-x="512" d="M399 0l-146 208l-146 -208h-80l191 248l-181 249h80l141 -203l145 203h73l-183 -245l191 -252h-85z" />
<glyph unicode="y" horiz-adv-x="464" d="M245 -51q-22 -57 -44 -96.5t-48.5 -64.5t-58.5 -36t-73 -11q-12 0 -25.5 2t-24.5 4l7 58q11 -4 27 -6t30 -2q22 0 41.5 6.5t37 22.5t34 43.5t32.5 69.5l24 61l-192 497h74l112 -306q13 -35 21.5 -61.5l16.5 -53.5h1q6 23 20 64.5l30 86.5l96 270h69z" />
<glyph unicode="z" horiz-adv-x="445" d="M49 0v44l266 399q-26 -1 -65.5 -1.5t-83.5 -0.5h-112v56h332v-43l-264 -398q12 0 30 0.5t39 1t42 0.5h41h117v-58h-342z" />
<glyph unicode="{" horiz-adv-x="326" d="M278 -195q-77 0 -107.5 45.5t-30.5 130.5v203q0 28 -5 48t-18 33t-34 19.5t-53 8.5v52q33 2 54.5 8t33.5 18.5t17 32.5t5 49v139q0 35 6.5 66.5t22 55.5t42 38.5t67.5 14.5h16v-47q-54 0 -75 -27.5t-21 -96.5v-138q0 -57 -22.5 -92.5t-70.5 -45.5v-1q48 -8 70.5 -45 t22.5 -94v-203q0 -69 21 -96t75 -27v-49h-16z" />
<glyph unicode="|" horiz-adv-x="283" d="M116 -251v1000h50v-1000h-50z" />
<glyph unicode="}" horiz-adv-x="322" d="M303 293q-32 -2 -52.5 -8.5t-33.5 -19.5t-18 -33t-5 -48v-203q0 -85 -30.5 -130.5t-107.5 -45.5h-16v49q54 0 75 27t21 96v203q0 57 22.5 94t70.5 45v1q-49 7 -71 43t-22 90v143q0 69 -21 96.5t-75 27.5v47h16q40 0 67 -14.5t42.5 -38.5t22 -55.5t6.5 -66.5v-134 q0 -31 5 -52t17 -34t33 -19t54 -8v-52v0z" />
<glyph unicode="~" d="M489 563q0 -60 -32.5 -98.5t-88.5 -38.5q-41 0 -64.5 18t-41 39t-35 39t-47.5 18q-36 0 -52.5 -27t-17.5 -67h-47v4q0 60 32.5 98.5t88.5 38.5q41 0 64.5 -18t41 -39t35 -39t47.5 -18q36 0 52.5 27t17.5 68h47v-5v0z" />
<glyph d="M510 26q-39 -17 -82 -25.5t-80 -8.5q-111 0 -170.5 58.5t-73.5 180.5h-93v46h90q-1 8 -1 17v19q0 17 0.5 33t1.5 32h-91v46h97q8 52 27.5 95t51 74t75.5 48t102 17q35 0 72 -7.5t63 -18.5l-17 -52q-26 11 -60.5 19t-71.5 8q-41 0 -71.5 -14.5t-51.5 -39.5t-34 -58.5 t-19 -70.5h207v-46h-214q-1 -14 -1 -28v-28v-45h215v-46h-210q12 -92 57 -138t135 -46q30 0 65.5 8.5t65.5 20.5l16 -50v0z" />
<glyph unicode="&#x20ac;" d="M510 26q-39 -17 -82 -25.5t-80 -8.5q-111 0 -170.5 58.5t-73.5 180.5h-93v46h90q-1 8 -1 17v19q0 17 0.5 33t1.5 32h-91v46h97q8 52 27.5 95t51 74t75.5 48t102 17q35 0 72 -7.5t63 -18.5l-17 -52q-26 11 -60.5 19t-71.5 8q-41 0 -71.5 -14.5t-51.5 -39.5t-34 -58.5 t-19 -70.5h207v-46h-214q-1 -14 -1 -28v-28v-45h215v-46h-210q12 -92 57 -138t135 -46q30 0 65.5 8.5t65.5 20.5l16 -50v0z" />
<glyph unicode="&#xa1;" horiz-adv-x="318" d="M112 -202l12 545h51l12 -545h-75zM197 457q0 -20 -13.5 -33.5t-33.5 -13.5t-34 13.5t-14 33.5t14 34t34 14t33.5 -14t13.5 -34z" />
<glyph unicode="&#xa2;" d="M466 141q-30 -14 -62 -23t-67 -12v-106h-52v106q-96 5 -149 60t-53 164q0 97 54 155.5t148 72.5v92h52v-90q29 -1 60.5 -7t60.5 -18l-11 -55q-27 13 -58.5 20.5t-65.5 7.5q-81 0 -127.5 -43.5t-46.5 -131.5q0 -37 8.5 -68.5t29 -55t53 -36.5t80.5 -13q35 0 69.5 8.5 t60.5 24.5l16 -52v0z" />
<glyph unicode="&#xa3;" d="M77 0v45q50 44 76.5 82t26.5 83q0 20 -2.5 42t-5.5 45h-114v49h106q-6 32 -10 64t-4 64q0 97 49 140.5t132 43.5q25 0 57.5 -4.5t59.5 -12.5l-15 -54q-25 8 -54 14t-55 6q-56 0 -83.5 -32t-27.5 -92q0 -34 5 -68.5t11 -68.5h165v-49h-158q3 -22 5 -41.5t2 -39.5 q0 -50 -22 -87t-66 -75q17 1 38.5 1.5t46.5 0.5h234v-56h-397z" />
<glyph unicode="&#xa4;" d="M386 334q0 26 -6 49t-19.5 40t-35.5 26.5t-54 9.5q-46 0 -76.5 -34.5t-30.5 -92.5q0 -27 5.5 -51t19 -42t35.5 -28.5t54 -10.5q21 0 40.5 9.5t34.5 27t24 42t9 55.5zM448 69l-83 111q-43 -29 -97 -29q-44 0 -78 16l-73 -98l-45 33l76 93q-20 23 -31.5 56.5t-11.5 78.5 q0 80 48 128l-80 99l43 33l76 -104q20 11 42.5 16.5t46.5 5.5q21 0 45 -4.5t45 -17.5l79 104l42 -34l-83 -102q17 -19 26.5 -48.5t9.5 -71.5q0 -75 -42 -122l89 -109z" />
<glyph unicode="&#xa5;" d="M321 279h156v-46h-172v-78h172v-47h-172v-108h-64v108h-171v47h171v78h-171v46h156l-183 371h71l108 -226q16 -33 28.5 -63t23.5 -60h1q13 33 28 66.5t31 65.5l106 217h68z" />
<glyph unicode="&#xa6;" horiz-adv-x="283" d="M116 -251v378h50v-378h-50zM116 381v368h50v-368h-50z" />
<glyph unicode="&#xa7;" horiz-adv-x="513" d="M354 218q0 31 -15 60.5t-38.5 57.5t-51.5 56t-54 57q-28 -19 -39.5 -44t-11.5 -48q0 -31 15 -60t38.5 -57.5t51.5 -56.5l55 -57q27 19 38.5 43.5t11.5 48.5zM416 226q0 -79 -79 -139q18 -24 28.5 -49.5t10.5 -54.5t-10.5 -55.5t-31 -46.5t-51 -32t-70.5 -12 q-16 0 -36 2.5t-40 8.5l6 54q23 -7 39.5 -10t35.5 -3q45 0 69 25t24 63q0 29 -17 56.5t-42.5 55.5t-55 57t-55 60.5t-42.5 66.5t-17 75q0 79 79 140q-18 25 -28.5 50t-10.5 54q0 30 10 56t29.5 45.5t49 30.5t69.5 11q16 0 35 -2t35 -7l-6 -54q-20 6 -35 8.5t-33 2.5 q-45 0 -67 -23t-22 -61q0 -29 17 -57t42.5 -56t55 -57.5t55 -61t42.5 -66.5t17 -75z" />
<glyph unicode="&#xa8;" horiz-adv-x="546" d="M216 658q0 -18 -12.5 -30.5t-30.5 -12.5q-19 0 -31 12.5t-12 30.5q0 19 12 31t31 12q18 0 30.5 -12t12.5 -31zM400 658q0 -18 -12.5 -30.5t-30.5 -12.5t-30.5 12.5t-12.5 30.5q0 19 12.5 31t30.5 12t30.5 -12t12.5 -31z" />
<glyph unicode="&#xa9;" horiz-adv-x="752" d="M471 174q-22 -8 -47 -11.5t-49 -3.5q-44 0 -73.5 13t-48.5 36.5t-27 54.5t-8 67q0 35 9 68.5t29.5 59t53.5 41t81 15.5q22 0 41 -3.5t36 -8.5l-4 -49q-37 16 -78 16q-31 0 -52 -10.5t-34 -29t-18.5 -43t-5.5 -52.5q0 -61 25 -94.5t81 -33.5q45 0 84 15l5 -47v0zM652 335 q0 57 -22 108.5t-59.5 89.5t-88 60.5t-108.5 22.5t-108.5 -22t-88 -59.5t-59.5 -88.5t-22 -109t22 -109.5t59.5 -89.5t88 -60.5t108.5 -22.5t108.5 22t88 60t59.5 89t22 109zM705 337q0 -69 -26 -129t-71 -105t-105 -71t-129 -26q-71 0 -131.5 25.5t-105 70t-70 104.5 t-25.5 129t26 129t71 104.5t105.5 70.5t129.5 26t129.5 -25.5t105 -70t70.5 -104t26 -128.5z" />
<glyph unicode="&#xaa;" horiz-adv-x="378" d="M249 505q-75 0 -106 -18.5t-31 -48.5q0 -19 12 -30t35 -11q24 0 41.5 11.5t28 27t15.5 32.5t5 28v9zM62 237v50h272v-50h-272zM247 356q0 12 1 27t4 29l-2 1q-4 -12 -14 -23t-23.5 -20t-30 -14.5t-33.5 -5.5q-49 0 -71.5 22t-22.5 57q0 50 49 83.5t145 32.5v21 q0 10 -2 22.5t-9.5 22.5t-21.5 17t-37 7q-28 0 -54.5 -7.5t-47.5 -18.5l-4 52q23 10 53 15.5t61 5.5q34 0 56.5 -9t36 -24t19 -34.5t5.5 -40.5v-129v-63q0 -18 1 -26h-58z" />
<glyph unicode="&#xab;" horiz-adv-x="492" d="M179 125l-116 169l118 172l45 -28l-97 -143l97 -141zM362 126l-125 168l126 171l45 -28l-105 -142l106 -141z" />
<glyph unicode="&#xac;" d="M423 109v162h-379v53h433v-215h-54z" />
<glyph unicode="&#xad;" horiz-adv-x="327" d="M49 268v52h229v-52h-229z" />
<glyph unicode="&#xae;" horiz-adv-x="561" d="M317 581q0 17 -8.5 24.5t-30.5 7.5h-26v-71h16q28 0 38.5 12.5t10.5 26.5zM319 413l-64 102h-3v-102h-40v232h70q42 0 59.5 -16.5t17.5 -42.5q0 -29 -16.5 -46.5t-44.5 -20.5q4 -5 10 -13.5l13 -18.5l48 -74h-50zM443 526q0 34 -12.5 64t-34.5 53t-52 36.5t-64 13.5 t-63.5 -13t-51.5 -35t-35 -52t-13 -64t13 -64t35 -53t51.5 -36.5t63.5 -13.5t64 13t52 35t34.5 52t12.5 64zM491 527q0 -43 -17 -81t-46 -66.5t-67 -45.5t-81 -17q-45 0 -83 16.5t-66.5 45t-44.5 66.5t-16 82q0 43 16.5 81.5t45 67.5t66.5 45.5t82 16.5q45 0 83.5 -16 t67 -44.5t44.5 -67t16 -83.5z" />
<glyph unicode="&#xaf;" horiz-adv-x="395" d="M78 629v48h239v-48h-239z" />
<glyph unicode="&#x2c9;" horiz-adv-x="395" d="M78 629v48h239v-48h-239z" />
<glyph unicode="&#xb0;" horiz-adv-x="367" d="M251 615q0 12 -3 25.5t-11 24.5t-21.5 18t-33.5 7q-29 0 -48.5 -20.5t-19.5 -54.5q0 -35 19 -54.5t48 -19.5q30 0 50 20.5t20 53.5zM304 616q0 -27 -10.5 -49t-28 -37.5t-40 -24t-46.5 -8.5q-54 0 -86 31.5t-32 84.5q0 28 10.5 50.5t27.5 38.5t39.5 24t45.5 8 q30 0 52.5 -9.5t37.5 -26t22.5 -37.5t7.5 -45z" />
<glyph unicode="&#xb1;" d="M45 0v53h460v-53h-460zM305 328v-206h-60v206h-201v53h201v204h60v-204h201v-53h-201z" />
<glyph unicode="&#xb2;" horiz-adv-x="313" d="M48 358v38l85 77q32 29 43 47t11 40t-15 36.5t-42 14.5q-14 0 -30 -5.5t-27 -14.5l-21 42q19 11 41.5 17.5t47.5 6.5q54 0 79.5 -27t25.5 -60q0 -29 -13.5 -55.5t-48.5 -56.5l-58 -51h132v-49h-210z" />
<glyph unicode="&#xb3;" horiz-adv-x="302" d="M241 444q0 -47 -36.5 -70t-95.5 -23q-15 0 -31 2t-28 5l9 45q11 -3 25.5 -5.5t28.5 -2.5q36 0 52 12.5t16 33.5q0 32 -24.5 41t-82.5 4v40h26q42 0 58 13.5t16 33.5q0 17 -12 29.5t-41 12.5q-15 0 -28.5 -3.5t-24.5 -8.5l-14 38q17 8 37 12t42 4q51 0 74 -23t23 -52 q0 -26 -11.5 -42.5t-34.5 -27.5q29 -4 43 -23t14 -45z" />
<glyph unicode="&#xb4;" horiz-adv-x="385" d="M146 578l-32 33l119 126l41 -41z" />
<glyph unicode="&#xb5;" horiz-adv-x="584" d="M577 3q-14 -4 -33.5 -7.5t-43.5 -3.5q-25 0 -41 10t-24.5 26.5t-10 38t3.5 43.5h-1q-18 -53 -63.5 -85.5t-103.5 -32.5q-71 0 -101 33v-276h-63v748h63v-314q0 -32 5 -57.5t18 -43.5t34 -28t53 -10t59.5 15.5t48 42t32 61.5t11.5 74v260h63v-362q0 -51 7.5 -69t27.5 -18 q14 0 28.5 2t23.5 5l7 -52v0z" />
<glyph unicode="&#x3bc;" horiz-adv-x="584" d="M577 3q-14 -4 -33.5 -7.5t-43.5 -3.5q-25 0 -41 10t-24.5 26.5t-10 38t3.5 43.5h-1q-18 -53 -63.5 -85.5t-103.5 -32.5q-71 0 -101 33v-276h-63v748h63v-314q0 -32 5 -57.5t18 -43.5t34 -28t53 -10t59.5 15.5t48 42t32 61.5t11.5 74v260h63v-362q0 -51 7.5 -69t27.5 -18 q14 0 28.5 2t23.5 5l7 -52v0z" />
<glyph unicode="&#xb6;" horiz-adv-x="563" d="M286 260q-54 0 -93.5 16.5t-66 45t-39.5 67t-13 81.5t15 80.5t43 65t67 43.5t87 16v-415v0zM421 628v-724h-137v47h76v724h135v-47h-74z" />
<glyph unicode="&#xb7;" horiz-adv-x="209" d="M156 297q0 -22 -15 -36.5t-36 -14.5q-22 0 -36.5 14.5t-14.5 36.5t14.5 36.5t36.5 14.5q21 0 36 -14.5t15 -36.5z" />
<glyph unicode="&#x2219;" horiz-adv-x="209" d="M156 297q0 -22 -15 -36.5t-36 -14.5q-22 0 -36.5 14.5t-14.5 36.5t14.5 36.5t36.5 14.5q21 0 36 -14.5t15 -36.5z" />
<glyph unicode="&#xb8;" horiz-adv-x="400" d="M260 -41q38 -48 29.5 -95t-51.5 -100h-56q21 26 33.5 48t15.5 41.5t-3.5 38.5t-24.5 40l57 27v0z" />
<glyph unicode="&#xb9;" horiz-adv-x="302" d="M136 358v241l-73 -35l-15 44l94 42h50v-292h-56z" />
<glyph unicode="&#xba;" horiz-adv-x="415" d="M293 522q0 20 -4 39.5t-14 35.5t-27 25.5t-42 9.5q-17 0 -33 -6.5t-29 -20t-20.5 -35t-7.5 -52.5q0 -21 3.5 -41.5t13 -37t26.5 -27t43 -10.5q41 0 66 29t25 91zM69 237v50h273v-50h-273zM356 522q0 -38 -11.5 -69.5t-32.5 -54t-50.5 -35t-64.5 -12.5q-65 0 -104 38 t-39 129q0 35 11.5 65.5t31.5 52.5t48.5 34.5t62.5 12.5q24 0 50.5 -6.5t48 -24.5t35.5 -49.5t14 -80.5z" />
<glyph unicode="&#xbb;" horiz-adv-x="492" d="M127 126l-45 27l106 143l-104 140l46 29l124 -168zM310 125l-45 28l98 143l-97 141l47 29l116 -169z" />
<glyph unicode="&#xbc;" horiz-adv-x="693" d="M526 280l-104 -165q10 0 24.5 0.5t29.5 0.5h28h22v164zM135 351v271l-72 -29l-10 48l92 34h47v-324h-57zM581 71v-71h-55v71h-155l-3 37l136 216h77v-208h54v-45h-54zM116 -20l-42 30l471 685l43 -30z" />
<glyph unicode="&#xbd;" horiz-adv-x="721" d="M135 351v271l-72 -29l-10 48l92 34h47v-324h-57zM116 -20l-42 30l471 685l43 -30zM434 0v42l82 81q33 32 45 55t12 46q0 26 -14.5 42t-43.5 16q-20 0 -37.5 -5.5t-31.5 -14.5l-8 46q18 8 41 14t49 6q53 0 78.5 -26.5t25.5 -67.5q0 -32 -16 -62t-51 -65l-61 -58q29 2 65 2 h78v-51h-213z" />
<glyph unicode="&#xbe;" horiz-adv-x="712" d="M545 280l-104 -165q10 0 24.5 0.5t29.5 0.5h28h22v164zM253 450q0 -48 -35 -76t-92 -28q-31 0 -61 6l7 46q13 -5 26 -7.5t29 -2.5q29 0 48.5 16t19.5 43t-26 42.5t-89 7.5v40q54 0 82.5 13.5t28.5 45.5q0 20 -13.5 31t-37.5 11q-17 0 -33 -4t-30 -11l-6 43q20 8 40 11 t41 3q45 0 70 -20t25 -58q0 -60 -59 -78q31 -3 48 -25.5t17 -48.5zM600 71v-71h-55v71h-154l-4 37l136 216h77v-208h54v-45h-54zM136 -20l-43 30l472 685l43 -30z" />
<glyph unicode="&#xbf;" horiz-adv-x="441" d="M338 -208q-61 3 -110.5 18.5t-84.5 41t-54 58t-19 68.5q0 41 15.5 70t37 52.5t45 45.5t40 49t22 62t-9.5 86h62q16 -51 11.5 -88.5t-20.5 -66t-39 -51.5l-44 -46t-36 -48t-15 -58q0 -26 15 -49.5t42 -42t65 -30t85 -13.5zM299 457q0 -20 -14 -33.5t-34 -13.5t-34 13.5 t-14 33.5t14 34t34 14t34 -14t14 -34z" />
<glyph unicode="&#xc0;" horiz-adv-x="608" d="M332 514l-16.5 47t-13.5 43h-1l-14.5 -43.5l-15.5 -45.5l-107 -291h274zM518 0l-61 172h-311l-63 -172h-67l254 675h69l253 -675h-74zM341 732l-172 58l23 54l164 -74z" />
<glyph unicode="&#xc1;" horiz-adv-x="608" d="M332 514l-16.5 47t-13.5 43h-1l-14.5 -43.5l-15.5 -45.5l-107 -291h274zM518 0l-61 172h-311l-63 -172h-67l254 675h69l253 -675h-74zM258 732l-15 38l163 74l23 -54z" />
<glyph unicode="&#xc2;" horiz-adv-x="608" d="M332 514l-16.5 47t-13.5 43h-1l-14.5 -43.5l-15.5 -45.5l-107 -291h274zM518 0l-61 172h-311l-63 -172h-67l254 675h69l253 -675h-74zM434 730l-135 65l-129 -65l-20 38l152 84l155 -81z" />
<glyph unicode="&#xc3;" horiz-adv-x="608" d="M332 514l-16.5 47t-13.5 43h-1l-14.5 -43.5l-15.5 -45.5l-107 -291h274zM518 0l-61 172h-311l-63 -172h-67l254 675h69l253 -675h-74zM476 807q-19 -32 -45 -49.5t-58 -17.5q-25 0 -43 8.5t-33 19l-29 19.5t-31 9t-34 -12t-31 -35l-35 26q37 67 103 67q25 0 43 -8.5 t32.5 -19t28.5 -19t31 -8.5q38 0 66 46l35 -26v0z" />
<glyph unicode="&#xc4;" horiz-adv-x="608" d="M332 514l-16.5 47t-13.5 43h-1l-14.5 -43.5l-15.5 -45.5l-107 -291h274zM518 0l-61 172h-311l-63 -172h-67l254 675h69l253 -675h-74zM238 777q0 -17 -12 -29.5t-30 -12.5q-17 0 -29.5 12.5t-12.5 29.5q0 18 12.5 30t29.5 12q18 0 30 -12t12 -30zM451 777 q0 -17 -12.5 -29.5t-29.5 -12.5q-18 0 -30 12.5t-12 29.5q0 18 12 30t30 12q17 0 29.5 -12t12.5 -30z" />
<glyph unicode="&#xc5;" horiz-adv-x="608" d="M333 512q-12 23 -18 46.5t-13 45.5h-1l-14.5 -44.5t-16.5 -46.5l-106 -289h274zM363 737q0 24 -16.5 41.5t-40.5 17.5q-25 0 -41 -17.5t-16 -41.5q0 -25 16 -42t41 -17q24 0 40.5 17t16.5 42zM518 0l-61 172h-311l-63 -172h-67l244 648q-26 11 -42 34t-16 55 q0 21 8.5 39.5t22.5 32t33 21.5t40 8q45 0 74 -29t29 -72q0 -29 -16.5 -54t-43.5 -36l243 -647h-74z" />
<glyph unicode="&#xc6;" horiz-adv-x="777" d="M361 621h-2l-27 -54.5l-42 -79.5l-145 -262h216v396zM361 0v173h-243l-95 -173h-69l376 675h62h295v-52h-262v-249h253v-51h-253v-270h274v-53h-338z" />
<glyph unicode="&#xc7;" horiz-adv-x="595" d="M548 32q-40 -17 -89.5 -28t-104.5 -11q-76 0 -132.5 22.5t-94 65.5t-56.5 104.5t-19 138.5q0 75 18.5 140.5t57.5 114t100.5 76t148.5 27.5q40 0 81.5 -6t79.5 -17l-12 -59q-79 28 -163 28q-65 0 -111 -23.5t-75 -63.5t-42.5 -93.5t-13.5 -112.5q0 -136 61.5 -211 t190.5 -75q42 0 85.5 10.5t76.5 27.5l13 -55v0zM355 -41q38 -48 29.5 -95t-51.5 -100h-56q21 26 33.5 48t15.5 41.5t-3.5 38.5t-24.5 40l57 27v0z" />
<glyph unicode="&#xc8;" horiz-adv-x="508" d="M96 0v675h333v-52h-269v-249h256v-51h-256v-270h269v-53h-333zM302 732l-172 58l23 54l164 -74z" />
<glyph unicode="&#xc9;" horiz-adv-x="508" d="M96 0v675h333v-52h-269v-249h256v-51h-256v-270h269v-53h-333zM217 732l-15 38l163 74l23 -54z" />
<glyph unicode="&#xca;" horiz-adv-x="508" d="M96 0v675h333v-52h-269v-249h256v-51h-256v-270h269v-53h-333zM393 730l-135 65l-129 -65l-20 38l152 84l155 -81z" />
<glyph unicode="&#xcb;" horiz-adv-x="508" d="M96 0v675h333v-52h-269v-249h256v-51h-256v-270h269v-53h-333zM192 777q0 -17 -12 -29.5t-30 -12.5q-17 0 -29.5 12.5t-12.5 29.5q0 18 12.5 30t29.5 12q18 0 30 -12t12 -30zM405 777q0 -17 -12.5 -29.5t-29.5 -12.5q-18 0 -30 12.5t-12 29.5q0 18 12 30t30 12 q17 0 29.5 -12t12.5 -30z" />
<glyph unicode="&#xcc;" horiz-adv-x="256" d="M96 0v675h64v-675h-64zM166 732l-172 58l23 54l164 -74z" />
<glyph unicode="&#xcd;" horiz-adv-x="256" d="M96 0v675h64v-675h-64zM95 732l-15 38l163 74l23 -54z" />
<glyph unicode="&#xce;" horiz-adv-x="256" d="M96 0v675h64v-675h-64zM261 730l-135 65l-129 -65l-20 38l152 84l155 -81z" />
<glyph unicode="&#xcf;" horiz-adv-x="256" d="M96 0v675h64v-675h-64zM64 777q0 -17 -12 -29.5t-30 -12.5q-17 0 -29.5 12.5t-12.5 29.5q0 18 12.5 30t29.5 12q18 0 30 -12t12 -30zM277 777q0 -17 -12.5 -29.5t-29.5 -12.5q-18 0 -30 12.5t-12 29.5q0 18 12 30t30 12q17 0 29.5 -12t12.5 -30z" />
<glyph unicode="&#xd0;" horiz-adv-x="697" d="M578 338q0 145 -73.5 216.5t-216.5 71.5q-30 0 -62.5 -1t-54.5 -2v-249h154v-50h-154v-269q3 0 15 -1t28 -2t32.5 -1.5t27.5 -0.5q67 0 123 17t96.5 52t62.5 89.5t22 129.5zM645 342q0 -87 -28.5 -152t-79 -107.5t-120.5 -64t-153 -21.5q-50 0 -87 2t-70 1v324h-107v50 h107v301q39 0 88.5 1.5t100.5 1.5q83 0 148 -20.5t109.5 -62t68 -105t23.5 -148.5z" />
<glyph unicode="&#xd1;" horiz-adv-x="714" d="M531 0l-299 472q-23 36 -42.5 69.5t-36.5 66.5q1 -30 2.5 -80t2.5 -107.5t1.5 -116t0.5 -105.5v-199h-64v675h87l295 -464l42.5 -70.5l40.5 -70.5l-2.5 88t-2.5 110.5t-1.5 118t-0.5 108.5v180h64v-675h-87zM526 807q-19 -32 -45 -49.5t-58 -17.5q-25 0 -43 8.5t-33 19 l-29 19.5t-31 9t-34 -12t-31 -35l-35 26q37 67 103 67q25 0 43 -8.5t32.5 -19t28.5 -19t31 -8.5q38 0 66 46l35 -26v0z" />
<glyph unicode="&#xd2;" horiz-adv-x="706" d="M589 333q0 142 -62 219t-174 77q-47 0 -90 -19t-75.5 -55.5t-51.5 -89.5t-19 -121q0 -66 14.5 -120.5t43.5 -93.5t73.5 -61t103.5 -22q47 0 90 19t75.5 55t52 89.5t19.5 122.5zM658 344q0 -85 -25 -150.5t-67.5 -110.5t-100 -68t-121.5 -23q-75 0 -130.5 24.5t-92.5 69 t-55 107t-18 138.5q0 85 25 150.5t67.5 110.5t99.5 68t121 23q69 0 124.5 -22.5t93.5 -66t58.5 -106.5t20.5 -144zM382 732l-172 58l23 54l164 -74z" />
<glyph unicode="&#xd3;" horiz-adv-x="706" d="M589 333q0 142 -62 219t-174 77q-47 0 -90 -19t-75.5 -55.5t-51.5 -89.5t-19 -121q0 -66 14.5 -120.5t43.5 -93.5t73.5 -61t103.5 -22q47 0 90 19t75.5 55t52 89.5t19.5 122.5zM658 344q0 -85 -25 -150.5t-67.5 -110.5t-100 -68t-121.5 -23q-75 0 -130.5 24.5t-92.5 69 t-55 107t-18 138.5q0 85 25 150.5t67.5 110.5t99.5 68t121 23q69 0 124.5 -22.5t93.5 -66t58.5 -106.5t20.5 -144zM328 732l-15 38l163 74l23 -54z" />
<glyph unicode="&#xd4;" horiz-adv-x="706" d="M589 333q0 142 -62 219t-174 77q-47 0 -90 -19t-75.5 -55.5t-51.5 -89.5t-19 -121q0 -66 14.5 -120.5t43.5 -93.5t73.5 -61t103.5 -22q47 0 90 19t75.5 55t52 89.5t19.5 122.5zM658 344q0 -85 -25 -150.5t-67.5 -110.5t-100 -68t-121.5 -23q-75 0 -130.5 24.5t-92.5 69 t-55 107t-18 138.5q0 85 25 150.5t67.5 110.5t99.5 68t121 23q69 0 124.5 -22.5t93.5 -66t58.5 -106.5t20.5 -144zM488 730l-135 65l-129 -65l-20 38l152 84l155 -81z" />
<glyph unicode="&#xd5;" horiz-adv-x="706" d="M589 333q0 142 -62 219t-174 77q-47 0 -90 -19t-75.5 -55.5t-51.5 -89.5t-19 -121q0 -66 14.5 -120.5t43.5 -93.5t73.5 -61t103.5 -22q47 0 90 19t75.5 55t52 89.5t19.5 122.5zM658 344q0 -85 -25 -150.5t-67.5 -110.5t-100 -68t-121.5 -23q-75 0 -130.5 24.5t-92.5 69 t-55 107t-18 138.5q0 85 25 150.5t67.5 110.5t99.5 68t121 23q69 0 124.5 -22.5t93.5 -66t58.5 -106.5t20.5 -144zM521 807q-19 -32 -45 -49.5t-58 -17.5q-25 0 -43 8.5t-33 19l-29 19.5t-31 9t-34 -12t-31 -35l-35 26q37 67 103 67q25 0 43 -8.5t32.5 -19t28.5 -19t31 -8.5 q38 0 66 46l35 -26v0z" />
<glyph unicode="&#xd6;" horiz-adv-x="706" d="M589 333q0 142 -62 219t-174 77q-47 0 -90 -19t-75.5 -55.5t-51.5 -89.5t-19 -121q0 -66 14.5 -120.5t43.5 -93.5t73.5 -61t103.5 -22q47 0 90 19t75.5 55t52 89.5t19.5 122.5zM658 344q0 -85 -25 -150.5t-67.5 -110.5t-100 -68t-121.5 -23q-75 0 -130.5 24.5t-92.5 69 t-55 107t-18 138.5q0 85 25 150.5t67.5 110.5t99.5 68t121 23q69 0 124.5 -22.5t93.5 -66t58.5 -106.5t20.5 -144zM288 777q0 -17 -12 -29.5t-30 -12.5q-17 0 -29.5 12.5t-12.5 29.5q0 18 12.5 30t29.5 12q18 0 30 -12t12 -30zM501 777q0 -17 -12.5 -29.5t-29.5 -12.5 q-18 0 -30 12.5t-12 29.5q0 18 12 30t30 12q17 0 29.5 -12t12.5 -30z" />
<glyph unicode="&#xd7;" d="M451 83l-177 177l-178 -177l-35 35l177 178l-177 177l38 38l177 -177l178 177l35 -35l-177 -178l177 -177z" />
<glyph unicode="&#xd8;" horiz-adv-x="706" d="M425 619q-34 10 -76 10q-47 -1 -89 -20t-74 -55.5t-51 -90t-19 -122.5q0 -88 24.5 -156.5t82.5 -104.5l202 539v0zM590 331q0 95 -29.5 165t-88.5 102l-201 -540q19 -7 39 -9t39 -2q52 0 96 19t76 55t50.5 89t18.5 121zM658 341q0 -85 -24 -150t-67 -109.5t-101 -67 t-125 -22.5q-26 0 -48 2.5t-42 8.5l-39 -105l-50 17l39 105q-40 19 -69 50.5t-47.5 72t-27.5 88.5t-9 102q0 84 24.5 149.5t67 110t99.5 67.5t121 23q46 0 84 -9l37 99l50 -18l-37 -97q78 -34 121 -114t43 -203z" />
<glyph unicode="&#xd9;" horiz-adv-x="701" d="M605 255q0 -129 -65.5 -196t-197.5 -67q-78 0 -126 20t-75 52.5t-36 74t-9 83.5v453h64v-446q0 -38 7.5 -71.5t28.5 -58.5t57.5 -40t94.5 -15q48 0 84.5 11t61 35t36.5 63t12 96v426h63v-420v0zM375 732l-172 58l23 54l164 -74z" />
<glyph unicode="&#xda;" horiz-adv-x="701" d="M605 255q0 -129 -65.5 -196t-197.5 -67q-78 0 -126 20t-75 52.5t-36 74t-9 83.5v453h64v-446q0 -38 7.5 -71.5t28.5 -58.5t57.5 -40t94.5 -15q48 0 84.5 11t61 35t36.5 63t12 96v426h63v-420v0zM338 732l-15 38l163 74l23 -54z" />
<glyph unicode="&#xdb;" horiz-adv-x="701" d="M605 255q0 -129 -65.5 -196t-197.5 -67q-78 0 -126 20t-75 52.5t-36 74t-9 83.5v453h64v-446q0 -38 7.5 -71.5t28.5 -58.5t57.5 -40t94.5 -15q48 0 84.5 11t61 35t36.5 63t12 96v426h63v-420v0zM484 730l-135 65l-129 -65l-20 38l152 84l155 -81z" />
<glyph unicode="&#xdc;" horiz-adv-x="701" d="M605 255q0 -129 -65.5 -196t-197.5 -67q-78 0 -126 20t-75 52.5t-36 74t-9 83.5v453h64v-446q0 -38 7.5 -71.5t28.5 -58.5t57.5 -40t94.5 -15q48 0 84.5 11t61 35t36.5 63t12 96v426h63v-420v0zM285 777q0 -17 -12 -29.5t-30 -12.5q-17 0 -29.5 12.5t-12.5 29.5 q0 18 12.5 30t29.5 12q18 0 30 -12t12 -30zM498 777q0 -17 -12.5 -29.5t-29.5 -12.5q-18 0 -30 12.5t-12 29.5q0 18 12 30t30 12q17 0 29.5 -12t12.5 -30z" />
<glyph unicode="&#xdd;" horiz-adv-x="519" d="M289 246v-246h-64v246l-211 429h71l120 -251l28.5 -61.5t25.5 -60.5h1q13 32 28.5 65.5l31.5 66.5l117 241h68zM245 732l-15 38l163 74l23 -54z" />
<glyph unicode="&#xde;" horiz-adv-x="521" d="M433 362q0 35 -11 63.5t-35 49t-61.5 31.5t-89.5 11q-18 0 -37.5 -1.5t-38.5 -4.5v-311q17 -2 36 -3.5t41 -1.5q94 0 145 43.5t51 123.5zM499 368q0 -52 -20.5 -94t-56.5 -71t-86 -45t-108 -16q-20 0 -36 1t-32 3v-146h-64v675h64v-108q23 2 45 2.5t46 0.5q118 0 183 -51 t65 -151z" />
<glyph unicode="&#xdf;" horiz-adv-x="582" d="M535 144q0 -32 -13 -60t-38 -48.5t-61 -32t-82 -11.5q-54 0 -94 8l7 60q42 -14 91 -14q66 0 96 26.5t30 61.5q0 30 -15.5 49.5t-39 35t-50.5 29t-50.5 32t-39 44.5t-15.5 66q0 30 11 50.5t28 36t36 27.5t36 25.5t28 30t11 41.5q0 42 -30.5 62.5t-78.5 20.5 q-69 0 -106 -40t-37 -135v-509h-63v504q0 64 16 108t44.5 71t67.5 39t84 12q41 0 72.5 -10t52.5 -27t31.5 -40t10.5 -49q0 -35 -11 -57.5t-28 -38.5t-36 -27.5t-36 -23.5t-28 -27.5t-11 -38.5q0 -29 15.5 -48t39 -34t50.5 -28.5t50.5 -32t39 -44t15.5 -64.5z" />
<glyph unicode="&#xe0;" horiz-adv-x="519" d="M359 241q-71 0 -117.5 -9.5t-74 -24.5t-39 -35t-11.5 -41q0 -38 23.5 -62.5t62.5 -24.5q35 0 64 16t49.5 42.5t31.5 59.5t11 67v12zM360 0q0 30 1 58.5t5 50.5l-2 1q-18 -49 -64 -83.5t-112 -34.5q-58 0 -96.5 34.5t-38.5 94.5q0 37 19.5 68t58 53.5t96 35t132.5 12.5v38 q0 61 -25.5 93.5t-92.5 32.5q-36 0 -76.5 -10.5t-70.5 -27.5l-16 53q35 16 80 26t93 10q50 0 83 -12t52.5 -33.5t27.5 -50.5t8 -63v-192q0 -38 0.5 -79t1.5 -75h-64zM264 578l-128 118l42 41l119 -126z" />
<glyph unicode="&#xe1;" horiz-adv-x="519" d="M359 241q-71 0 -117.5 -9.5t-74 -24.5t-39 -35t-11.5 -41q0 -38 23.5 -62.5t62.5 -24.5q35 0 64 16t49.5 42.5t31.5 59.5t11 67v12zM360 0q0 30 1 58.5t5 50.5l-2 1q-18 -49 -64 -83.5t-112 -34.5q-58 0 -96.5 34.5t-38.5 94.5q0 37 19.5 68t58 53.5t96 35t132.5 12.5v38 q0 61 -25.5 93.5t-92.5 32.5q-36 0 -76.5 -10.5t-70.5 -27.5l-16 53q35 16 80 26t93 10q50 0 83 -12t52.5 -33.5t27.5 -50.5t8 -63v-192q0 -38 0.5 -79t1.5 -75h-64zM248 578l-32 33l119 126l41 -41z" />
<glyph unicode="&#xe2;" horiz-adv-x="519" d="M359 241q-71 0 -117.5 -9.5t-74 -24.5t-39 -35t-11.5 -41q0 -38 23.5 -62.5t62.5 -24.5q35 0 64 16t49.5 42.5t31.5 59.5t11 67v12zM360 0q0 30 1 58.5t5 50.5l-2 1q-18 -49 -64 -83.5t-112 -34.5q-58 0 -96.5 34.5t-38.5 94.5q0 37 19.5 68t58 53.5t96 35t132.5 12.5v38 q0 61 -25.5 93.5t-92.5 32.5q-36 0 -76.5 -10.5t-70.5 -27.5l-16 53q35 16 80 26t93 10q50 0 83 -12t52.5 -33.5t27.5 -50.5t8 -63v-192q0 -38 0.5 -79t1.5 -75h-64zM349 578l-97 87l-97 -87l-30 30l129 129l128 -127z" />
<glyph unicode="&#xe3;" horiz-adv-x="519" d="M359 241q-71 0 -117.5 -9.5t-74 -24.5t-39 -35t-11.5 -41q0 -38 23.5 -62.5t62.5 -24.5q35 0 64 16t49.5 42.5t31.5 59.5t11 67v12zM360 0q0 30 1 58.5t5 50.5l-2 1q-18 -49 -64 -83.5t-112 -34.5q-58 0 -96.5 34.5t-38.5 94.5q0 37 19.5 68t58 53.5t96 35t132.5 12.5v38 q0 61 -25.5 93.5t-92.5 32.5q-36 0 -76.5 -10.5t-70.5 -27.5l-16 53q35 16 80 26t93 10q50 0 83 -12t52.5 -33.5t27.5 -50.5t8 -63v-192q0 -38 0.5 -79t1.5 -75h-64zM413 674q-18 -33 -43.5 -51t-57.5 -18q-24 0 -41 9t-31.5 19.5l-28 19.5t-29.5 9q-35 0 -62 -48l-34 28 q18 33 43.5 51t57.5 18q24 0 41 -9t31 -19.5l27 -19.5t30 -9q36 0 63 47l34 -27v0z" />
<glyph unicode="&#xe4;" horiz-adv-x="519" d="M359 241q-71 0 -117.5 -9.5t-74 -24.5t-39 -35t-11.5 -41q0 -38 23.5 -62.5t62.5 -24.5q35 0 64 16t49.5 42.5t31.5 59.5t11 67v12zM360 0q0 30 1 58.5t5 50.5l-2 1q-18 -49 -64 -83.5t-112 -34.5q-58 0 -96.5 34.5t-38.5 94.5q0 37 19.5 68t58 53.5t96 35t132.5 12.5v38 q0 61 -25.5 93.5t-92.5 32.5q-36 0 -76.5 -10.5t-70.5 -27.5l-16 53q35 16 80 26t93 10q50 0 83 -12t52.5 -33.5t27.5 -50.5t8 -63v-192q0 -38 0.5 -79t1.5 -75h-64zM203 658q0 -18 -12.5 -30.5t-30.5 -12.5q-19 0 -31 12.5t-12 30.5q0 19 12 31t31 12q18 0 30.5 -12 t12.5 -31zM387 658q0 -18 -12.5 -30.5t-30.5 -12.5t-30.5 12.5t-12.5 30.5q0 19 12.5 31t30.5 12t30.5 -12t12.5 -31z" />
<glyph unicode="&#xe5;" horiz-adv-x="519" d="M359 241q-71 0 -117.5 -9.5t-74 -24.5t-39 -35t-11.5 -41q0 -38 23.5 -62.5t62.5 -24.5q35 0 64 16t49.5 42.5t31.5 59.5t11 67v12zM360 0q0 30 1 58.5t5 50.5l-2 1q-18 -49 -64 -83.5t-112 -34.5q-58 0 -96.5 34.5t-38.5 94.5q0 37 19.5 68t58 53.5t96 35t132.5 12.5v38 q0 61 -25.5 93.5t-92.5 32.5q-36 0 -76.5 -10.5t-70.5 -27.5l-16 53q35 16 80 26t93 10q50 0 83 -12t52.5 -33.5t27.5 -50.5t8 -63v-192q0 -38 0.5 -79t1.5 -75h-64zM315 659q0 25 -16.5 42t-40.5 17q-25 0 -41.5 -17t-16.5 -42q0 -24 16.5 -41.5t41.5 -17.5q24 0 40.5 17.5 t16.5 41.5zM361 659q0 -20 -8 -38.5t-22 -32.5t-33 -22t-40 -8q-44 0 -74 28t-30 73q0 21 8.5 39.5t22.5 32t33 21.5t40 8q45 0 74 -29t29 -72z" />
<glyph unicode="&#xe6;" horiz-adv-x="811" d="M359 241q-71 0 -117.5 -9.5t-74 -24.5t-39 -35t-11.5 -41q0 -38 23.5 -62.5t62.5 -24.5q35 0 64 16t49.5 42.5t31.5 59.5t11 67v12zM693 317q2 63 -32.5 101.5t-95.5 38.5q-55 0 -92 -37t-48 -103h268v0zM760 305q0 -16 -1 -36h-338q-2 -59 8 -101.5t32 -69.5t55 -39.5 t76 -12.5q37 0 73 7.5t68 21.5l12 -53q-35 -14 -77 -22t-89 -8q-44 0 -77.5 9.5t-57.5 26t-39.5 39t-23.5 47.5h-1q-10 -23 -28 -45t-42.5 -39t-55 -27.5t-66.5 -10.5q-58 0 -96.5 34.5t-38.5 94.5q0 37 19.5 68t58 53.5t96 35t132.5 12.5v38q0 61 -25.5 93.5t-92.5 32.5 q-36 0 -76.5 -10.5t-70.5 -27.5l-16 53q35 16 80 26t93 10q58 0 97 -20.5t55 -67.5h1q23 37 65.5 62.5t99.5 25.5q51 0 87 -16t59.5 -43.5t34 -64t10.5 -76.5z" />
<glyph unicode="&#xe7;" horiz-adv-x="443" d="M414 23q-33 -14 -73.5 -21.5t-81.5 -7.5q-39 0 -77.5 10t-68.5 36.5t-48.5 72.5t-18.5 118q0 62 15 112t44.5 85.5t73 55t100.5 19.5q77 0 132 -23l-14 -52q-26 10 -59.5 17.5t-68.5 7.5q-38 0 -67 -15.5t-48.5 -43.5t-30 -66.5t-10.5 -83.5q0 -40 7 -76t24.5 -63 t48.5 -42.5t79 -15.5q35 0 67.5 7t61.5 20l13 -51v0zM272 -41q38 -48 29.5 -95t-51.5 -100h-56q21 26 33.5 48t15.5 41.5t-3.5 38.5t-24.5 40l57 27v0z" />
<glyph unicode="&#xe8;" horiz-adv-x="503" d="M385 317q2 63 -32.5 101.5t-95.5 38.5q-56 0 -93 -37t-47 -103h268v0zM452 305v-14t-2 -22h-337q-2 -59 8 -101.5t31.5 -69.5t54.5 -39.5t77 -12.5q36 0 72 7.5t68 21.5l12 -53q-35 -14 -77 -22t-89 -8q-109 0 -166.5 61.5t-57.5 193.5q0 55 14.5 102.5t42.5 82t67.5 54 t90.5 19.5t87 -16t59 -43.5t34 -64t11 -76.5zM266 578l-128 118l42 41l119 -126z" />
<glyph unicode="&#xe9;" horiz-adv-x="503" d="M385 317q2 63 -32.5 101.5t-95.5 38.5q-56 0 -93 -37t-47 -103h268v0zM452 305v-14t-2 -22h-337q-2 -59 8 -101.5t31.5 -69.5t54.5 -39.5t77 -12.5q36 0 72 7.5t68 21.5l12 -53q-35 -14 -77 -22t-89 -8q-109 0 -166.5 61.5t-57.5 193.5q0 55 14.5 102.5t42.5 82t67.5 54 t90.5 19.5t87 -16t59 -43.5t34 -64t11 -76.5zM249 578l-32 33l119 126l41 -41z" />
<glyph unicode="&#xea;" horiz-adv-x="503" d="M385 317q2 63 -32.5 101.5t-95.5 38.5q-56 0 -93 -37t-47 -103h268v0zM452 305v-14t-2 -22h-337q-2 -59 8 -101.5t31.5 -69.5t54.5 -39.5t77 -12.5q36 0 72 7.5t68 21.5l12 -53q-35 -14 -77 -22t-89 -8q-109 0 -166.5 61.5t-57.5 193.5q0 55 14.5 102.5t42.5 82t67.5 54 t90.5 19.5t87 -16t59 -43.5t34 -64t11 -76.5zM355 578l-97 87l-97 -87l-30 30l129 129l128 -127z" />
<glyph unicode="&#xeb;" horiz-adv-x="503" d="M385 317q2 63 -32.5 101.5t-95.5 38.5q-56 0 -93 -37t-47 -103h268v0zM452 305v-14t-2 -22h-337q-2 -59 8 -101.5t31.5 -69.5t54.5 -39.5t77 -12.5q36 0 72 7.5t68 21.5l12 -53q-35 -14 -77 -22t-89 -8q-109 0 -166.5 61.5t-57.5 193.5q0 55 14.5 102.5t42.5 82t67.5 54 t90.5 19.5t87 -16t59 -43.5t34 -64t11 -76.5zM211 658q0 -18 -12.5 -30.5t-30.5 -12.5q-19 0 -31 12.5t-12 30.5q0 19 12 31t31 12q18 0 30.5 -12t12.5 -31zM395 658q0 -18 -12.5 -30.5t-30.5 -12.5t-30.5 12.5t-12.5 30.5q0 19 12.5 31t30.5 12t30.5 -12t12.5 -31z" />
<glyph unicode="&#xec;" horiz-adv-x="255" d="M96 0v497h63v-497h-63zM149 578l-128 118l42 41l119 -126z" />
<glyph unicode="&#xed;" horiz-adv-x="255" d="M96 0v497h63v-497h-63zM103 578l-32 33l119 126l41 -41z" />
<glyph unicode="&#xee;" horiz-adv-x="255" d="M96 0v497h63v-497h-63zM225 578l-97 87l-97 -87l-30 30l129 129l128 -127z" />
<glyph unicode="&#xef;" horiz-adv-x="255" d="M96 0v497h63v-497h-63zM79 658q0 -18 -12.5 -30.5t-30.5 -12.5q-19 0 -31 12.5t-12 30.5q0 19 12 31t31 12q18 0 30.5 -12t12.5 -31zM263 658q0 -18 -12.5 -30.5t-30.5 -12.5t-30.5 12.5t-12.5 30.5q0 19 12.5 31t30.5 12t30.5 -12t12.5 -31z" />
<glyph unicode="&#xf0;" horiz-adv-x="540" d="M427 261q0 88 -39.5 140.5t-117.5 52.5q-31 0 -59.5 -12t-51 -37t-36 -63t-13.5 -90q0 -100 43.5 -154t120.5 -54q31 0 59 12t49 38t33 67t12 100zM493 269q0 -71 -17.5 -123t-48.5 -86.5t-73 -51t-91 -16.5t-89.5 15.5t-69 47t-44.5 79.5t-16 113q0 52 15.5 99t45 82.5 t72.5 56t99 20.5q37 0 71.5 -13t51.5 -43q-10 19 -19.5 35l-14.5 24q-14 25 -31 48.5t-41 49.5l-108 -49l-29 37l102 46q-17 17 -38.5 34.5l-46.5 37.5l65 28q21 -17 41 -35t39 -38l108 47l29 -37l-104 -46q66 -79 104 -170.5t38 -191.5z" />
<glyph unicode="&#xf1;" horiz-adv-x="579" d="M420 0v322q0 62 -21.5 97t-79.5 35q-35 0 -64.5 -16t-50.5 -45t-33 -69t-12 -87v-237h-63v497h64q0 -26 -2 -59.5t-7 -56.5l2 -1q21 57 67.5 91t112.5 34q43 0 72 -12.5t46 -34t24.5 -50.5t7.5 -62v-346h-63zM456 674q-18 -33 -43.5 -51t-57.5 -18q-24 0 -41 9 t-31.5 19.5l-28 19.5t-29.5 9q-35 0 -62 -48l-34 28q18 33 43.5 51t57.5 18q24 0 41 -9t31 -19.5l27 -19.5t30 -9q36 0 63 47l34 -27v0z" />
<glyph unicode="&#xf2;" horiz-adv-x="540" d="M429 253q0 94 -40 147.5t-119 53.5q-31 0 -59.5 -12t-51 -37t-36 -63t-13.5 -90q0 -100 41.5 -154t119.5 -54q31 0 59.5 12t50.5 37.5t35 65t13 94.5zM494 256q0 -54 -16 -102t-46 -84t-73.5 -57t-98.5 -21q-99 0 -157.5 62t-58.5 193q0 52 15.5 99t45 82t73 56t99.5 21 q43 0 82.5 -13t69.5 -42t47.5 -77t17.5 -117zM284 578l-128 118l42 41l119 -126z" />
<glyph unicode="&#xf3;" horiz-adv-x="540" d="M429 253q0 94 -40 147.5t-119 53.5q-31 0 -59.5 -12t-51 -37t-36 -63t-13.5 -90q0 -100 41.5 -154t119.5 -54q31 0 59.5 12t50.5 37.5t35 65t13 94.5zM494 256q0 -54 -16 -102t-46 -84t-73.5 -57t-98.5 -21q-99 0 -157.5 62t-58.5 193q0 52 15.5 99t45 82t73 56t99.5 21 q43 0 82.5 -13t69.5 -42t47.5 -77t17.5 -117zM265 578l-32 33l119 126l41 -41z" />
<glyph unicode="&#xf4;" horiz-adv-x="540" d="M429 253q0 94 -40 147.5t-119 53.5q-31 0 -59.5 -12t-51 -37t-36 -63t-13.5 -90q0 -100 41.5 -154t119.5 -54q31 0 59.5 12t50.5 37.5t35 65t13 94.5zM494 256q0 -54 -16 -102t-46 -84t-73.5 -57t-98.5 -21q-99 0 -157.5 62t-58.5 193q0 52 15.5 99t45 82t73 56t99.5 21 q43 0 82.5 -13t69.5 -42t47.5 -77t17.5 -117zM365 578l-97 87l-97 -87l-30 30l129 129l128 -127z" />
<glyph unicode="&#xf5;" horiz-adv-x="540" d="M429 253q0 94 -40 147.5t-119 53.5q-31 0 -59.5 -12t-51 -37t-36 -63t-13.5 -90q0 -100 41.5 -154t119.5 -54q31 0 59.5 12t50.5 37.5t35 65t13 94.5zM494 256q0 -54 -16 -102t-46 -84t-73.5 -57t-98.5 -21q-99 0 -157.5 62t-58.5 193q0 52 15.5 99t45 82t73 56t99.5 21 q43 0 82.5 -13t69.5 -42t47.5 -77t17.5 -117zM437 674q-18 -33 -43.5 -51t-57.5 -18q-24 0 -41 9t-31.5 19.5l-28 19.5t-29.5 9q-35 0 -62 -48l-34 28q18 33 43.5 51t57.5 18q24 0 41 -9t31 -19.5l27 -19.5t30 -9q36 0 63 47l34 -27v0z" />
<glyph unicode="&#xf6;" horiz-adv-x="540" d="M429 253q0 94 -40 147.5t-119 53.5q-31 0 -59.5 -12t-51 -37t-36 -63t-13.5 -90q0 -100 41.5 -154t119.5 -54q31 0 59.5 12t50.5 37.5t35 65t13 94.5zM494 256q0 -54 -16 -102t-46 -84t-73.5 -57t-98.5 -21q-99 0 -157.5 62t-58.5 193q0 52 15.5 99t45 82t73 56t99.5 21 q43 0 82.5 -13t69.5 -42t47.5 -77t17.5 -117zM220 658q0 -18 -12.5 -30.5t-30.5 -12.5q-19 0 -31 12.5t-12 30.5q0 19 12 31t31 12q18 0 30.5 -12t12.5 -31zM404 658q0 -18 -12.5 -30.5t-30.5 -12.5t-30.5 12.5t-12.5 30.5q0 19 12.5 31t30.5 12t30.5 -12t12.5 -31z" />
<glyph unicode="&#xf7;" d="M321 95q0 -20 -14 -33.5t-34 -13.5t-34 13.5t-14 33.5t14 34t34 14t34 -14t14 -34zM44 271v53h462v-53h-462zM321 498q0 -20 -14 -34t-34 -14t-34 14t-14 34t14 34t34 14t34 -14t14 -34z" />
<glyph unicode="&#xf8;" horiz-adv-x="540" d="M309 451q-11 2 -21.5 3t-21.5 1q-28 0 -56.5 -11t-51 -35t-37 -62.5t-14.5 -94.5q0 -57 15.5 -102t45.5 -70l141 371v0zM431 253q0 134 -77 180l-144 -379q14 -6 30 -8.5t34 -2.5q30 0 58.5 12.5t50.5 38t35 65t13 94.5zM494 256q0 -54 -16 -102t-46 -84t-73 -57t-97 -21 q-41 0 -72 10l-39 -105l-48 16l42 107q-54 33 -77.5 94t-23.5 133q0 52 15.5 99t45 82.5t73 56t99.5 20.5q13 0 25.5 -1t25.5 -3l36 94l47 -17l-36 -92q25 -12 47 -31t38 -47t25 -65.5t9 -86.5z" />
<glyph unicode="&#xf9;" horiz-adv-x="579" d="M419 0q0 26 2 59.5t7 56.5l-2 1q-21 -57 -67.5 -91t-112.5 -34q-43 0 -72 12.5t-46 34t-24.5 50.5t-7.5 62v346h63v-322q0 -62 21 -97t80 -35q35 0 64.5 16t50.5 45t33 69t12 87v237h63v-497h-64zM294 578l-128 118l42 41l119 -126z" />
<glyph unicode="&#xfa;" horiz-adv-x="579" d="M419 0q0 26 2 59.5t7 56.5l-2 1q-21 -57 -67.5 -91t-112.5 -34q-43 0 -72 12.5t-46 34t-24.5 50.5t-7.5 62v346h63v-322q0 -62 21 -97t80 -35q35 0 64.5 16t50.5 45t33 69t12 87v237h63v-497h-64zM287 578l-32 33l119 126l41 -41z" />
<glyph unicode="&#xfb;" horiz-adv-x="579" d="M419 0q0 26 2 59.5t7 56.5l-2 1q-21 -57 -67.5 -91t-112.5 -34q-43 0 -72 12.5t-46 34t-24.5 50.5t-7.5 62v346h63v-322q0 -62 21 -97t80 -35q35 0 64.5 16t50.5 45t33 69t12 87v237h63v-497h-64zM385 578l-97 87l-97 -87l-30 30l129 129l128 -127z" />
<glyph unicode="&#xfc;" horiz-adv-x="579" d="M419 0q0 26 2 59.5t7 56.5l-2 1q-21 -57 -67.5 -91t-112.5 -34q-43 0 -72 12.5t-46 34t-24.5 50.5t-7.5 62v346h63v-322q0 -62 21 -97t80 -35q35 0 64.5 16t50.5 45t33 69t12 87v237h63v-497h-64zM240 658q0 -18 -12.5 -30.5t-30.5 -12.5q-19 0 -31 12.5t-12 30.5 q0 19 12 31t31 12q18 0 30.5 -12t12.5 -31zM424 658q0 -18 -12.5 -30.5t-30.5 -12.5t-30.5 12.5t-12.5 30.5q0 19 12.5 31t30.5 12t30.5 -12t12.5 -31z" />
<glyph unicode="&#xfd;" horiz-adv-x="464" d="M245 -51q-22 -57 -44 -96.5t-48.5 -64.5t-58.5 -36t-73 -11q-12 0 -25.5 2t-24.5 4l7 58q11 -4 27 -6t30 -2q22 0 41.5 6.5t37 22.5t34 43.5t32.5 69.5l24 61l-192 497h74l112 -306q13 -35 21.5 -61.5l16.5 -53.5h1q6 23 20 64.5l30 86.5l96 270h69zM232 578l-32 33 l119 126l41 -41z" />
<glyph unicode="&#xfe;" horiz-adv-x="558" d="M444 265q0 89 -31 139t-97 50q-40 0 -69.5 -21t-49 -52.5t-29 -69.5t-9.5 -71v-181q23 -8 48.5 -11.5t55.5 -3.5q82 0 131.5 52t49.5 169zM510 271q0 -68 -18 -119.5t-51 -86t-79.5 -52.5t-103.5 -18q-28 0 -50 1t-49 5v-252h-63v981h63v-229q0 -15 -0.5 -31.5l-1 -32.5 t-2 -30t-3.5 -23l2 -1q21 56 66.5 89t105.5 33q88 0 136 -58.5t48 -175.5z" />
<glyph unicode="&#xff;" horiz-adv-x="464" d="M245 -51q-22 -57 -44 -96.5t-48.5 -64.5t-58.5 -36t-73 -11q-12 0 -25.5 2t-24.5 4l7 58q11 -4 27 -6t30 -2q22 0 41.5 6.5t37 22.5t34 43.5t32.5 69.5l24 61l-192 497h74l112 -306q13 -35 21.5 -61.5l16.5 -53.5h1q6 23 20 64.5l30 86.5l96 270h69zM186 658 q0 -18 -12.5 -30.5t-30.5 -12.5q-19 0 -31 12.5t-12 30.5q0 19 12 31t31 12q18 0 30.5 -12t12.5 -31zM370 658q0 -18 -12.5 -30.5t-30.5 -12.5t-30.5 12.5t-12.5 30.5q0 19 12.5 31t30.5 12t30.5 -12t12.5 -31z" />
<glyph unicode="&#x131;" horiz-adv-x="255" d="M96 0v497h63v-497h-63z" />
<glyph unicode="&#x141;" horiz-adv-x="433" d="M104 0v373l-87 -40l-16 48l103 47v247h64v-217l121 54l16 -47l-137 -62v-350h258v-53h-322z" />
<glyph unicode="&#x142;" horiz-adv-x="286" d="M178 487v-487h-63v458l-78 -36l-17 45l95 44v219h63v-189l86 39l16 -45z" />
<glyph unicode="&#x152;" horiz-adv-x="865" d="M454 615q-25 7 -48 10.5t-51 3.5q-48 0 -91 -19t-76 -55.5t-52 -89.5t-19 -121q0 -66 14.5 -120.5t43.5 -93.5t73.5 -61t103.5 -22q24 0 51 3t51 10v555zM455 0q-28 -4 -55 -6t-56 -2q-75 0 -130.5 24.5t-92.5 69t-55 107t-18 138.5q0 85 25 150.5t67.5 110.5t99.5 68 t121 23q26 0 50.5 -2t47.5 -6h328v-52h-269v-249h256v-51h-256v-270h269v-53h-332z" />
<glyph unicode="&#x153;" horiz-adv-x="882" d="M429 253q0 94 -40 147.5t-119 53.5q-31 0 -59.5 -12t-51 -37t-36 -63t-13.5 -90q0 -100 41.5 -154t119.5 -54q31 0 59.5 12t50.5 37.5t35 65t13 94.5zM763 317q2 63 -32 101.5t-95 38.5q-56 0 -93.5 -37t-47.5 -103h268v0zM831 305q0 -5 -0.5 -14t-1.5 -22h-337 q-2 -59 8 -101.5t31.5 -69.5t54.5 -39.5t76 -12.5q37 0 73 7.5t68 21.5l12 -53q-35 -14 -77 -22t-89 -8q-79 0 -126.5 31t-69.5 84q-26 -50 -73 -82.5t-120 -32.5q-99 0 -157.5 62t-58.5 193q0 52 15.5 99t45 82t73 56t99.5 21q59 0 109 -25.5t77 -82.5q25 48 69.5 78 t107.5 30q51 0 87 -16t59 -43.5t34 -64t11 -76.5z" />
<glyph unicode="&#x160;" horiz-adv-x="504" d="M446 191q0 -44 -17 -80.5t-48.5 -63t-76.5 -41t-100 -14.5q-39 0 -76 5t-67 14l11 63q32 -12 67 -19t70 -7q34 0 65 7.5t54 23.5t37 41.5t14 62.5q0 42 -24 67t-59.5 42.5t-77 32.5t-77 36.5t-59.5 53.5t-24 85q0 39 14.5 72.5t43 58t70 38.5t95.5 14q31 0 62.5 -3.5 t58.5 -9.5l-8 -58q-27 8 -57.5 13t-59.5 5q-78 0 -116 -33.5t-38 -89.5q0 -41 24 -65.5t60 -42t77.5 -32.5t77.5 -36.5t60 -54t24 -85.5zM253 730l-155 81l23 41l135 -65l129 65l20 -39z" />
<glyph unicode="&#x161;" horiz-adv-x="431" d="M374 146q0 -32 -14 -60t-40 -49t-64 -33t-86 -12q-29 0 -58.5 3t-52.5 10l9 60q24 -9 54 -14t59 -5q56 0 92 24.5t36 66.5q0 32 -18.5 49t-46.5 27t-61 18t-61 22.5t-46.5 39.5t-18.5 70q0 62 47.5 102t140.5 40q24 0 50.5 -3t49.5 -8l-8 -54q-23 7 -49 11t-52 4 q-58 0 -86.5 -23t-28.5 -62q0 -32 18.5 -49t47 -27.5t61 -18.5t61 -22t47 -39t18.5 -68zM216 578l-128 126l32 33l97 -88l97 88l31 -31z" />
<glyph unicode="&#x178;" horiz-adv-x="519" d="M289 246v-246h-64v246l-211 429h71l120 -251l28.5 -61.5t25.5 -60.5h1q13 32 28.5 65.5l31.5 66.5l117 241h68zM199 777q0 -17 -12 -29.5t-30 -12.5q-17 0 -29.5 12.5t-12.5 29.5q0 18 12.5 30t29.5 12q18 0 30 -12t12 -30zM412 777q0 -17 -12.5 -29.5t-29.5 -12.5 q-18 0 -30 12.5t-12 29.5q0 18 12 30t30 12q17 0 29.5 -12t12.5 -30z" />
<glyph unicode="&#x17d;" horiz-adv-x="540" d="M47 0v45l311 481l32 48l32 46q-29 -1 -70.5 -1.5t-95.5 -0.5h-198v57h434v-46l-328 -505l-22 -34l-23 -34q18 2 66 2h118h193v-58h-449zM275 730l-155 81l23 41l135 -65l129 65l20 -39z" />
<glyph unicode="&#x17e;" horiz-adv-x="445" d="M49 0v44l266 399q-26 -1 -65.5 -1.5t-83.5 -0.5h-112v56h332v-43l-264 -398q12 0 30 0.5t39 1t42 0.5h41h117v-58h-342zM222 578l-128 126l32 33l97 -88l97 88l31 -31z" />
<glyph unicode="&#x192;" d="M504 633q-23 8 -47 12t-44 4q-52 0 -78.5 -30.5t-33.5 -97.5l-17 -175h155v-49h-160l-25 -268q-9 -100 -57 -144t-132 -44q-20 0 -43.5 3.5t-46.5 9.5l12 54q23 -8 47 -12t44 -4q52 0 78.5 30.5t32.5 96.5l27 278h-116v49h120l17 166q11 100 58 144t130 44 q21 0 44.5 -3.5t45.5 -9.5z" />
<glyph unicode="&#x2c6;" horiz-adv-x="438" d="M312 578l-97 87l-97 -87l-30 30l129 129l128 -127z" />
<glyph unicode="&#x2c7;" horiz-adv-x="438" d="M213 578l-128 126l32 33l97 -88l97 88l31 -31z" />
<glyph unicode="&#x2d8;" horiz-adv-x="420" d="M326 716q0 -24 -7 -45.5t-21.5 -38.5t-36.5 -27t-53 -10q-30 0 -52 10t-36 27t-20.5 39t-6.5 45h46q0 -28 17.5 -49.5t52.5 -21.5q33 0 51.5 19t18.5 52h47v0z" />
<glyph unicode="&#x2d9;" horiz-adv-x="281" d="M185 658q0 -18 -13 -31.5t-32 -13.5t-32 13t-13 32t13 32t32 13t32 -12.5t13 -32.5z" />
<glyph unicode="&#x2da;" horiz-adv-x="395" d="M255 651q0 25 -16.5 42t-40.5 17q-25 0 -41.5 -17t-16.5 -42q0 -24 16.5 -41.5t41.5 -17.5q24 0 40.5 17.5t16.5 41.5zM301 651q0 -20 -8 -38.5t-22 -32.5t-33 -22t-40 -8q-44 0 -74 28t-30 73q0 21 8.5 39.5t22.5 32t33 21.5t40 8q45 0 74 -29t29 -72z" />
<glyph unicode="&#x2db;" horiz-adv-x="270" d="M214 -147q-17 -25 -44 -40.5t-58 -15.5q-35 0 -56 18t-21 52q0 31 21 67.5t65 65.5h73q-51 -30 -71.5 -61.5t-20.5 -53.5q0 -17 8.5 -25.5t22.5 -8.5t26.5 8t23.5 21l31 -27v0z" />
<glyph unicode="&#x2dc;" horiz-adv-x="516" d="M417 674q-18 -33 -43.5 -51t-57.5 -18q-24 0 -41 9t-31.5 19.5l-28 19.5t-29.5 9q-35 0 -62 -48l-34 28q18 33 43.5 51t57.5 18q24 0 41 -9t31 -19.5l27 -19.5t30 -9q36 0 63 47l34 -27v0z" />
<glyph unicode="&#x2dd;" horiz-adv-x="485" d="M121 578l-34 30l110 130l44 -37zM282 578l-33 30l118 126l43 -39z" />
<glyph unicode="&#x394;" horiz-adv-x="603" d="M315 564q-6 17 -9.5 30.5l-6.5 25.5h-1q-3 -13 -7.5 -27.5l-9.5 -31.5l-181 -505h396zM30 0v45l233 630h77l233 -630v-45h-543z" />
<glyph unicode="&#x2206;" horiz-adv-x="603" d="M315 564q-6 17 -9.5 30.5l-6.5 25.5h-1q-3 -13 -7.5 -27.5l-9.5 -31.5l-181 -505h396zM30 0v45l233 630h77l233 -630v-45h-543z" />
<glyph unicode="&#x3a9;" horiz-adv-x="724" d="M448 0v55q33 27 61 56t47.5 63t30.5 75t11 93q0 61 -15 113.5t-44.5 91t-74 60.5t-102.5 22q-48 0 -91 -19.5t-75 -55.5t-50.5 -88.5t-18.5 -118.5q0 -49 8 -88.5t26 -74t46.5 -66t69.5 -63.5v-55h-230v56h156q-66 48 -105.5 119t-39.5 166q0 82 24.5 146t67 107.5 t99.5 66t121 22.5q63 0 117 -21t94 -62.5t62.5 -104t22.5 -145.5q0 -51 -12.5 -95t-33 -80.5t-47.5 -66.5t-57 -52h161v-56h-229z" />
<glyph unicode="&#x2126;" horiz-adv-x="724" d="M448 0v55q33 27 61 56t47.5 63t30.5 75t11 93q0 61 -15 113.5t-44.5 91t-74 60.5t-102.5 22q-48 0 -91 -19.5t-75 -55.5t-50.5 -88.5t-18.5 -118.5q0 -49 8 -88.5t26 -74t46.5 -66t69.5 -63.5v-55h-230v56h156q-66 48 -105.5 119t-39.5 166q0 82 24.5 146t67 107.5 t99.5 66t121 22.5q63 0 117 -21t94 -62.5t62.5 -104t22.5 -145.5q0 -51 -12.5 -95t-33 -80.5t-47.5 -66.5t-57 -52h161v-56h-229z" />
<glyph unicode="&#x3c0;" horiz-adv-x="635" d="M463 445q0 -110 5.5 -183t14.5 -119q11 -55 24 -75.5t36 -20.5q12 0 25 2t24 5l10 -52q-13 -4 -30.5 -6t-34.5 -2q-25 0 -43.5 7t-32.5 23.5t-24.5 43t-17.5 64.5q-19 101 -19 313h-191q2 -112 -13.5 -223.5t-52.5 -223.5l-73 4q40 112 59.5 222t17.5 221h-133v52h584 v-52h-135z" />
<glyph unicode="&#x2013;" d="M0 271v53h550v-53h-550z" />
<glyph unicode="&#x2014;" horiz-adv-x="1000" d="M123 271v53h754v-53h-754z" />
<glyph unicode="&#x2018;" horiz-adv-x="227" d="M183 720q-23 -25 -35 -46t-16 -38t-1.5 -30t8.5 -22q8 -11 8.5 -23t-4.5 -22t-14.5 -16.5t-21.5 -6.5q-22 0 -36 18t-12 49.5t24 73t72 89.5l28 -26v0z" />
<glyph unicode="&#x2019;" horiz-adv-x="227" d="M119 740q22 0 35.5 -18t11.5 -49t-24 -73t-71 -89l-29 25q23 25 35 46t16.5 38.5t2 30.5t-9.5 22q-8 11 -8.5 23t4.5 21.5t14.5 16t22.5 6.5z" />
<glyph unicode="&#x201a;" horiz-adv-x="227" d="M119 88q22 0 35.5 -18t11.5 -49t-24 -72.5t-71 -89.5l-29 25q23 25 35 46t16.5 38.5t2 30.5t-9.5 22q-8 11 -8.5 23t4.5 21.5t14.5 16t22.5 6.5z" />
<glyph unicode="&#x201c;" horiz-adv-x="397" d="M183 720q-23 -25 -35 -46t-16 -38t-1.5 -30t8.5 -22q8 -11 8.5 -23t-4.5 -22t-14.5 -16.5t-21.5 -6.5q-22 0 -36 18t-12 49.5t24 73t72 89.5l28 -26v0zM353 720q-23 -25 -35 -46t-16.5 -38t-2 -30t8.5 -22q8 -11 9 -23t-4 -22t-14.5 -16.5t-22.5 -6.5q-22 0 -35.5 18 t-11.5 49.5t23.5 73t71.5 89.5l29 -26v0z" />
<glyph unicode="&#x201d;" horiz-adv-x="397" d="M119 740q22 0 35.5 -18t11.5 -49t-24 -73t-71 -89l-29 25q23 25 35 46t16.5 38.5t2 30.5t-9.5 22q-8 11 -8.5 23t4.5 21.5t14.5 16t22.5 6.5zM288 740q22 0 36 -18t12 -49t-24 -73t-72 -89l-28 25q23 25 35 46t16 38.5t1.5 30.5t-8.5 22q-8 11 -9 23t4 21.5t15 16t22 6.5 z" />
<glyph unicode="&#x201e;" horiz-adv-x="397" d="M119 88q22 0 35.5 -18t11.5 -49t-24 -72.5t-71 -89.5l-29 25q23 25 35 46t16.5 38.5t2 30.5t-9.5 22q-8 11 -8.5 23t4.5 21.5t14.5 16t22.5 6.5zM288 88q22 0 36 -18t12 -49t-24 -72.5t-72 -89.5l-28 25q23 25 35 46t16 38.5t1.5 30.5t-8.5 22q-8 11 -9 23t4 21.5t15 16 t22 6.5z" />
<glyph unicode="&#x2020;" horiz-adv-x="442" d="M245 574l14 -105l-16 -248h-44l-15 248l13 105h-144v49h144l-13 138h75l-14 -138h144v-49h-144z" />
<glyph unicode="&#x2021;" horiz-adv-x="442" d="M246 302l13 -136h-76l14 136h-144v49h144l-13 112l13 113h-144v49h144l-13 136h75l-13 -136h143v-49h-143l13 -113l-13 -112h143v-49h-143z" />
<glyph unicode="&#x2022;" horiz-adv-x="419" d="M311 297q0 -21 -8 -39.5t-22 -32t-32.5 -21.5t-39.5 -8t-39.5 8t-32 21.5t-21.5 32t-8 39.5t8 39.5t21.5 32t32 21.5t39.5 8t39.5 -8t32.5 -21.5t22 -32t8 -39.5z" />
<glyph unicode="&#x2026;" horiz-adv-x="623" d="M151 40q0 -20 -14 -34t-34 -14t-33.5 14t-13.5 34t13.5 34t33.5 14t34 -14t14 -34zM353 40q0 -20 -14 -34t-34 -14t-33.5 14t-13.5 34t13.5 34t33.5 14t34 -14t14 -34zM555 40q0 -20 -14 -34t-34 -14t-34 14t-14 34t14 34t34 14t34 -14t14 -34z" />
<glyph unicode="&#x2030;" horiz-adv-x="1007" d="M314 517q0 -38 -10.5 -67t-29 -49t-43.5 -30.5t-53 -10.5q-56 0 -91 33t-35 110q0 37 11 66t29.5 48.5t43 30t52.5 10.5t51 -7.5t39.5 -24.5t26 -43.5t9.5 -65.5zM259 510q0 51 -17 76.5t-58 25.5q-36 0 -56 -28t-20 -75q0 -51 17 -77t57 -26q37 0 57 28t20 76zM95 -14 l-40 31l533 647l41 -32zM632 149q0 -38 -10.5 -67t-29 -49t-43.5 -30.5t-53 -10.5q-56 0 -91 32.5t-35 109.5q0 37 11 66t29.5 49t43 30.5t52.5 10.5t51 -7.5t39.5 -24.5t26 -44t9.5 -65zM576 142q0 50 -16.5 76t-57.5 26q-36 0 -56 -28t-20 -75q0 -51 16.5 -77t57.5 -26 q36 0 56 28t20 76zM944 149q0 -38 -10.5 -67t-29 -49t-43.5 -30.5t-53 -10.5q-56 0 -91 32.5t-35 109.5q0 37 11 66t29.5 49t43 30.5t52.5 10.5t51 -7.5t39.5 -24.5t26 -44t9.5 -65zM889 142q0 50 -17 76t-58 26q-36 0 -56 -28t-20 -75q0 -51 17 -77t57 -26q37 0 57 28 t20 76z" />
<glyph unicode="&#x2039;" horiz-adv-x="314" d="M184 125l-121 169l122 171l45 -29l-102 -141l102 -139z" />
<glyph unicode="&#x203a;" horiz-adv-x="314" d="M127 125l-44 30l103 141l-101 139l45 30l121 -168z" />
<glyph unicode="&#x2044;" horiz-adv-x="406" d="M8 -22l-45 31l471 687l44 -32z" />
<glyph unicode="&#x2215;" horiz-adv-x="406" d="M8 -22l-45 31l471 687l44 -32z" />
<glyph unicode="&#x2122;" horiz-adv-x="705" d="M186 635v-241h-53v241h-78v40h209v-40h-78zM591 394l-25 166l-7 58l-14 -49l-54 -175h-58l-53 177l-12 47l-3 -37l-28 -187h-48l42 281h71l52 -176l12 -50l9 45l57 181h69l42 -281h-52z" />
<glyph unicode="&#x2202;" horiz-adv-x="639" d="M459 238q0 60 -38 100.5t-110 40.5q-36 0 -66 -13.5t-51.5 -37.5t-33.5 -56t-12 -69q0 -80 39.5 -118.5t101.5 -38.5q37 0 68 15t53.5 41t35.5 61t13 75zM558 415q0 -41 -4.5 -84.5t-14.5 -86t-26 -81.5t-40 -72q-31 -43 -80 -71t-111 -28q-98 0 -148 55t-50 150 q0 50 17 93t48 74.5t74 49.5t95 18q67 0 111.5 -32t62.5 -83q1 27 1.5 49.5t0.5 45.5q-1 70 -19 121t-49.5 85t-74 50t-91.5 15l5 51q67 -1 121 -23t92.5 -62.5t59 -99.5t20.5 -134z" />
<glyph unicode="&#x220f;" horiz-adv-x="784" d="M624 675v-926h-62v926h-339v-926h-63v926h-112v55h688v-55h-112z" />
<glyph unicode="&#x2211;" horiz-adv-x="610" d="M36 -251v48l322 451l-302 434v48h479v-55h-399l297 -425l-320 -443h436v-58h-513z" />
<glyph unicode="&#x2212;" d="M44 271v53h462v-53h-462z" />
<glyph unicode="&#x221a;" horiz-adv-x="602" d="M325 0h-71l-159 448h-95v49h78h67l105 -311q11 -31 21 -62.5l19 -62.5h2l15.5 58.5l15.5 57.5l171 581h67z" />
<glyph unicode="&#x221e;" horiz-adv-x="968" d="M434 297l-52.5 38.5t-50.5 32.5t-49.5 22.5t-47.5 8.5q-49 0 -75.5 -29.5t-26.5 -69.5q0 -45 27 -73.5t80 -28.5q44 0 93 29.5t102 69.5zM836 297q0 45 -27 73.5t-79 28.5q-44 0 -93 -29.5t-102 -69.5l52.5 -38.5t50.5 -32.5t49 -22.5t48 -8.5q49 0 75 29.5t26 69.5z M902 302q0 -32 -11.5 -61t-33.5 -50.5t-54 -34.5t-72 -13q-32 0 -63 9.5t-62 26t-62 37.5t-62 45l-60.5 -43.5t-62 -38t-63 -26.5t-63.5 -10q-42 0 -73.5 12t-52 33t-30.5 48.5t-10 58.5q0 32 11.5 61t33.5 50.5t53.5 34.5t70.5 13q32 0 64 -9.5t63.5 -26t62.5 -38t61 -44.5 l60.5 43.5t62 38t62.5 26.5t63 10q42 0 73.5 -12t52 -33t31 -48.5t10.5 -58.5z" />
<glyph unicode="&#x222b;" horiz-adv-x="335" d="M319 672q-11 4 -25.5 6.5t-27.5 2.5q-22 0 -37.5 -7t-25 -27.5t-14 -57.5t-4.5 -96q0 -60 1.5 -114t3.5 -112t3.5 -123.5t1.5 -148.5q0 -71 -9 -119.5t-27 -78.5t-45 -43t-63 -13q-27 0 -50 5v58q10 -3 24 -5.5t28 -2.5q21 0 36.5 7t25.5 26.5t14.5 55t4.5 92.5 q0 55 -1.5 109.5t-4 114.5t-4 128t-1.5 151q0 71 9 119.5t27.5 78.5t45.5 43.5t63 13.5q13 0 26 -2t25 -5v-56v0z" />
<glyph unicode="&#x2248;" d="M498 208q-20 -17 -50.5 -32t-70.5 -15q-38 0 -63 9.5t-46.5 20.5t-44 20.5t-54.5 9.5t-57 -15t-39 -27l-21 46q20 18 50 34.5t70 16.5q35 0 60.5 -9.5t48.5 -21.5t46 -21.5t54 -9.5q27 0 49.5 10.5t46.5 29.5l21 -46v0zM498 371q-20 -20 -50 -36t-71 -16q-38 0 -62.5 9.5 t-46 20.5t-44 20.5t-55.5 9.5q-32 0 -57 -15t-39 -27l-21 46q20 19 50.5 35t70.5 16q35 0 61 -9.5t48.5 -21.5t45.5 -21.5t53 -9.5q27 0 49.5 12t46.5 33l21 -46v0z" />
<glyph unicode="&#x2260;" d="M259 192l-61 -151h-55l61 151h-148v54h169l41 103h-210v53h231l63 156h56l-63 -156h151v-53h-172l-42 -103h214v-54h-235z" />
<glyph unicode="&#x2264;" d="M66 0v53h418v-53h-418zM440 114l-381 241l380 243l33 -45l-317 -197l317 -193z" />
<glyph unicode="&#x2265;" d="M66 0v53h418v-53h-418zM111 114l-33 45l317 197l-317 193l32 49l381 -241z" />
<glyph unicode="&#x25ca;" horiz-adv-x="614" d="M302 614l-191 -270l202 -281l191 266zM331 -8h-40l-249 350l243 341h37l250 -349z" />
<glyph unicode="&#xe000;" horiz-adv-x="495" d="M0 495h495v-495h-495v495z" />
<glyph unicode="&#xf6c9;" horiz-adv-x="385" d="M113 732l-15 38l163 74l23 -54z" />
<glyph unicode="&#xf6ca;" horiz-adv-x="438" d="M217 730l-155 81l23 41l135 -65l129 65l20 -39z" />
<glyph unicode="&#xf6cb;" horiz-adv-x="546" d="M200 777q0 -17 -12 -29.5t-30 -12.5q-17 0 -29.5 12.5t-12.5 29.5q0 18 12.5 30t29.5 12q18 0 30 -12t12 -30zM413 777q0 -17 -12.5 -29.5t-29.5 -12.5q-18 0 -30 12.5t-12 29.5q0 18 12 30t30 12q17 0 29.5 -12t12.5 -30z" />
<glyph unicode="&#xf6ce;" horiz-adv-x="366" d="M250 732l-172 58l23 54l164 -74z" />
<glyph unicode="&#xf8ff;" horiz-adv-x="1040" d="M138 356v-32l-111 -5v42zM531 355q2 0 2 5t-2 5q3 -5 0 -10zM528 357q5 0 2.5 2t-0.5 2v1q-5 0 -2 -2t0 -2v-1v0zM525 359q-2 1 -2 -1q0 -1 2 1zM525 357h1v3q0 5 -4 1q2 0 3 -1q-2 0 -3 -2t3 0v-1zM522 355q-3 5 0 10q-2 0 -2 -5t2 -5zM518 358q-2 -1 -2 1q0 3 2 2v1 q-2 1 -2.5 -2.5t2.5 -2.5v1zM513 362v-3q0 -2 -0.5 -1.5t-0.5 1.5v3h-1v-3q0 -2 1 -2q2 0 2 2v3h-1zM510 358h-2v6h-1v-7h3v1zM635 5l-247 -63l27 -66h211l16 37l-8 16l-77 -20l-11 27l107 27zM634 87l-246 -64l18 -45l247 62zM392 161v-60l17 -41l239 60v41h-256zM567 339 q-14 3 -25 3.5t-22 0.5q-10 0 -22 -0.5t-26 -3.5l15 -148h66l14 148v0zM460 191l-17 144q-12 -3 -20 -6.5t-15 -5.5q-6 -2 -9.5 2.5t-4.5 11t0.5 13t5.5 7.5q28 8 58.5 13.5t61.5 5.5q32 0 62.5 -5.5t59.5 -13.5q3 -1 4.5 -7t0.5 -12.5t-4.5 -11.5t-9.5 -3q-7 4 -16.5 6.5 l-21.5 5.5l-15 -144h66q26 23 47 61.5t21 86.5q0 40 -15.5 76t-41.5 62t-61.5 41.5t-75.5 15.5t-75.5 -15.5t-61.5 -41.5t-41.5 -62t-15.5 -76q0 -42 17 -80.5t52 -67.5h65zM751 339q0 -52 -19.5 -95t-48.5 -69v-75l-16 -5l31 -74l-30 -7l30 -70l-30 -8l11 -25l-28 -64h-48 q-2 -18 -26 -30t-57 -12q-34 0 -57.5 12t-25.5 30h-47l-47 114l30 8l-30 73l33 9l-19 46v78q-29 28 -49 71t-20 93q0 48 18 90.5t49.5 74t74 49.5t90.5 18t90 -18t73.5 -49.5t49.5 -74t18 -90.5zM1012 361q1 -11 1 -21v-21l-111 5v32l110 5v0zM847 696q16 -15 29 -29 l-81 -74q-5 6 -10.5 11.5l-11.5 11.5zM536 703q-8 1 -16 0.5t-16 -0.5l-4 110h41l-5 -110v0zM164 668q7 8 14 15t15 14l74 -82q-6 -5 -11.5 -10.5t-11.5 -10.5l-80 74v0z" />
<glyph horiz-adv-x="438" d="M349 730l-135 65l-129 -65l-20 38l152 84l155 -81z" />
<glyph horiz-adv-x="516" d="M437 807q-19 -32 -45 -49.5t-58 -17.5q-25 0 -43 8.5t-33 19l-29 19.5t-31 9t-34 -12t-31 -35l-35 26q37 67 103 67q25 0 43 -8.5t32.5 -19t28.5 -19t31 -8.5q38 0 66 46l35 -26v0z" />
</font>
</defs>
</svg>
