<?xml version="1.0" standalone="no"?>
<!DOCTYPE svg PUBLIC "-//W3C//DTD SVG 1.1//EN" "http://www.w3.org/Graphics/SVG/1.1/DTD/svg11.dtd" >
<svg xmlns="http://www.w3.org/2000/svg">
<metadata>
Copyright   : Copyright  2000-2011 Lucas de Groo.t All rights reserved. Published by LucasFonts.
Designer    : Lucas de Groot
Foundry     : LucasFonts
Foundry URL : http://lucasfonts.com
</metadata>
<defs>
<font id="TheSaB4i" horiz-adv-x="550" >
<font-face units-per-em="1000" ascent="740" descent="-260" />
<missing-glyph horiz-adv-x="218" />
<glyph unicode="&#xfb01;" horiz-adv-x="572" d="M526 655q-26 9 -56.5 14t-55.5 5q-78 0 -120.5 -37t-56.5 -106l-6 -34h301l-95 -497h-74l84 438h-227l-89 -466q-23 -123 -79.5 -176t-145.5 -53q-46 0 -86 9l19 65q19 -6 38.5 -8.5t36.5 -2.5q57 0 91.5 36t51.5 128l89 468h-106l12 59h106l4 24q17 106 80 160t178 54 q38 0 71 -5t62 -13z" />
<glyph unicode="&#xfb02;" horiz-adv-x="570" d="M437 0h-73l127 667q-23 4 -45 6t-42 2q-72 0 -111 -29.5t-52 -95.5l-10 -53h142l-13 -59h-140l-89 -466q-23 -123 -79.5 -176t-145.5 -53q-46 0 -86 9l19 65q19 -6 38.5 -8.5t36.5 -2.5q57 0 91.5 36t51.5 128l89 468h-106l12 59h106l10 55q17 91 76.5 137t165.5 46 q45 0 86.5 -3.5t77.5 -9.5z" />
<glyph horiz-adv-x="0" />
<glyph horiz-adv-x="0" />
<glyph unicode="&#xd;" horiz-adv-x="500" />
<glyph unicode=" "  horiz-adv-x="218" />
<glyph unicode="&#x09;" horiz-adv-x="218" />
<glyph unicode="&#xa0;" horiz-adv-x="218" />
<glyph unicode="!" horiz-adv-x="313" d="M182 46q0 -23 -15.5 -38.5t-37.5 -15.5q-23 0 -37.5 15t-14.5 36q0 23 15.5 38.5t38.5 15.5t37 -15t14 -36zM182 160h-61l90 541h86z" />
<glyph unicode="&#x22;" horiz-adv-x="343" d="M166 478h-53l28 220h80zM321 478h-53l28 220h80z" />
<glyph unicode="#" d="M241 419l-53 -181h154l54 181h-155zM550 419h-96l-53 -181h90l-10 -51h-96l-56 -187h-58l56 187h-155l-56 -187h-58l56 187h-92l10 51h97l54 181h-93l10 51h98l53 180h58l-52 -180h154l52 180h59l-53 -180h91z" />
<glyph unicode="$" d="M470 557q-25 8 -55 12.5t-57 4.5q-73 0 -110 -30.5t-37 -72.5q0 -30 17 -49.5t43 -35t56 -30t56 -34t43 -46.5t17 -68q0 -32 -13.5 -63.5t-39.5 -57t-63 -44t-84 -24.5l-20 -104h-58l20 101q-30 0 -61 4.5t-58 11.5l16 71q16 -7 52 -15t76 -8q36 0 64.5 9.5t48 25.5 t30 35.5t10.5 40.5q0 33 -17 54.5t-42.5 37.5t-55 30t-55 33t-42.5 45t-17 67q0 33 14 63t39 53t60.5 38.5t78.5 20.5l18 97h58l-17 -94q56 -2 100 -11z" />
<glyph unicode="%" horiz-adv-x="731" d="M610 187q0 31 -13 46.5t-44 15.5q-21 0 -40 -10.5t-33.5 -29t-23 -45t-8.5 -58.5q0 -31 13.5 -47t44.5 -16q21 0 40 10.5t33 29.5t22.5 45.5t8.5 58.5zM316 544q0 32 -13.5 47.5t-44.5 15.5q-21 0 -40 -10.5t-33 -29.5t-22.5 -45.5t-8.5 -57.5q0 -32 13.5 -47.5 t43.5 -15.5q21 0 40 10.5t33.5 29t23 45t8.5 58.5zM674 195q0 -48 -15.5 -86t-40 -64t-56 -40t-63.5 -14q-59 0 -87 28.5t-28 78.5q0 48 15 86t40 64t56.5 40t63.5 14q58 0 86.5 -28t28.5 -79zM96 -20l-42 37l610 651l43 -37zM380 553q0 -48 -15.5 -86.5t-40 -64.5t-56 -40 t-64.5 -14q-58 0 -86 28.5t-28 79.5q0 48 15 85.5t40 64t56.5 40t63.5 13.5q58 0 86.5 -27.5t28.5 -78.5z" />
<glyph unicode="&#x26;" horiz-adv-x="778" d="M461 135q-50 51 -101.5 109.5t-93.5 116.5q-28 -20 -54 -41t-45.5 -44.5t-31.5 -50.5t-12 -58q0 -22 7 -42t21.5 -35.5t38 -25t56.5 -9.5q51 0 106.5 18.5t108.5 61.5zM419 611q0 29 -17.5 47.5t-52.5 18.5q-50 0 -77.5 -29.5t-27.5 -73.5q0 -26 13 -55.5t35 -65.5l48 35 t40.5 35.5t28 40t10.5 47.5zM708 443q-14 -93 -52 -170t-92 -134l62.5 -56.5t57.5 -47.5l-53 -52q-34 26 -63 52l-59 55q-63 -51 -135.5 -75t-144.5 -24q-49 0 -84 13t-57.5 35t-33 51t-10.5 60q0 45 16 82.5t42.5 68.5t60 58t68.5 51q-26 42 -44 81t-18 73t13.5 65.5 t38 54.5t59.5 37t77 14q72 0 104.5 -32.5t32.5 -80.5q0 -35 -14 -65t-37 -56t-53.5 -50l-63.5 -48q38 -54 87.5 -110t102.5 -109q41 43 74 109.5t44 149.5h74v0z" />
<glyph unicode="'" horiz-adv-x="188" d="M166 478h-53l28 220h80z" />
<glyph unicode="(" horiz-adv-x="296" d="M369 751q-47 -58 -88.5 -130.5t-73.5 -153t-50.5 -165.5t-18.5 -167q0 -88 12.5 -165t42.5 -149l-59 -27q-36 85 -52 166t-16 169q0 85 17.5 170.5t50.5 168.5t80 161.5t106 150.5l49 -29v0z" />
<glyph unicode=")" horiz-adv-x="296" d="M252 444q0 -85 -17.5 -170t-50.5 -168t-80 -161.5t-106 -150.5l-49 28q46 58 88 130.5t74 153t50.5 165t18.5 167.5q0 88 -12.5 165t-42.5 149l59 28q36 -85 52 -166t16 -170z" />
<glyph unicode="*" horiz-adv-x="362" d="M281 583l92 -52l-35 -48l-82 69l-14 -116l-57 8l31 107l-96 -62l-23 52l110 44l-92 53l35 46l81 -67l14 116l57 -9l-32 -107l99 62l23 -52z" />
<glyph unicode="+" d="M510 266h-197l-39 -207h-71l39 207h-195l12 63h196l39 206h71l-39 -206h197z" />
<glyph unicode="," horiz-adv-x="213" d="M75 99q25 0 40 -20.5t10 -54.5t-35.5 -78.5t-96.5 -91.5l-28 33q28 24 45 44t24.5 37.5t7 32.5t-7.5 27t-6.5 24.5t6 23t16.5 17t25 6.5z" />
<glyph unicode="-" horiz-adv-x="327" d="M282 260h-231l12 62h231z" />
<glyph unicode="." horiz-adv-x="214" d="M129 48q0 -24 -16 -40t-39 -16q-22 0 -37 15.5t-15 36.5q0 24 16 40t39 16t37.5 -15.5t14.5 -36.5z" />
<glyph unicode="/" horiz-adv-x="419" d="M-7 -161h-73l519 918h73z" />
<glyph unicode="0" d="M448 461q0 65 -22.5 100t-79.5 35q-39 0 -70 -22t-55 -57t-40.5 -79.5t-27 -90t-15.5 -87t-5 -71.5q0 -64 22.5 -99t81.5 -35q39 0 69.5 22t54 57t40 79.5t27 89.5t15.5 86.5t5 71.5zM528 468q0 -43 -7 -95t-22 -105t-39 -103t-57.5 -88.5t-78 -62t-100.5 -23.5 q-89 0 -130 50t-41 141q0 43 7 95t22 105t39 103t57.5 88.5t78 62t100.5 23.5q89 0 130 -50.5t41 -140.5z" />
<glyph unicode="1" d="M445 0h-414l13 68h179l96 507l-177 -65l-2 70l209 70h63l-112 -582h158z" />
<glyph unicode="2" d="M502 506q0 -32 -8 -64t-30.5 -67.5t-63.5 -78t-107 -95.5l-163 -131v-1q29 1 86 1.5t129 0.5h103l-14 -71h-420l12 61l204 168q57 48 94 83.5t58.5 65.5t29.5 57t8 56q0 44 -28 73t-85 29q-45 0 -88.5 -16.5t-71.5 -36.5l-15 64q36 20 84.5 37.5t109.5 17.5q44 0 77 -12 t55 -33t33 -49t11 -59z" />
<glyph unicode="3" d="M505 530q0 -66 -43.5 -113t-113.5 -66l-2 -1q57 -8 86.5 -42t29.5 -87q0 -38 -17 -78.5t-53.5 -74t-94.5 -55.5t-140 -22q-34 0 -64.5 4t-53.5 12l17 69q23 -9 53 -14.5t62 -5.5q55 0 94.5 14t65 36.5t37 50t11.5 54.5q0 46 -36.5 72.5t-108.5 26.5q-29 0 -52 -1t-49 -3 l12 61h20q75 0 125 13.5t79.5 35.5t42 48.5t12.5 52.5q0 37 -28.5 58.5t-79.5 21.5q-41 0 -78.5 -10.5t-73.5 -27.5l-2 66q37 14 79 24t89 10q89 0 132 -36t43 -93z" />
<glyph unicode="4" d="M402 572l-300 -353q25 1 58.5 1.5l67 1t62.5 0.5h46l67 350h-1zM409 222h115l-14 -68h-114l-29 -154h-74l29 154h-309l6 60l370 436h25h77z" />
<glyph unicode="5" d="M510 578h-274l-36 -187q15 1 32 1.5t29 0.5q52 0 91 -11.5t64 -32t37.5 -48t12.5 -59.5q0 -51 -21.5 -96.5t-61.5 -80t-96.5 -54.5t-125.5 -20q-36 0 -64 3t-55 10l14 71q26 -9 55.5 -14t60.5 -5q49 0 88.5 13t67 36.5t42 55t14.5 69.5q0 51 -40.5 76.5t-115.5 25.5 q-30 0 -60.5 -2.5t-49.5 -5.5l63 326h343z" />
<glyph unicode="6" d="M420 240q0 48 -28 76t-87 28q-40 0 -72 -15t-54.5 -39.5t-34.5 -55t-12 -61.5q0 -54 29 -87t89 -33q35 0 66 14t54 39t36.5 59t13.5 75zM504 590q-13 2 -27 3t-32 1q-106 0 -174 -59t-108 -166q-3 -9 -8.5 -23.5t-10.5 -31.5h1q30 45 79.5 69t102.5 24q86 0 128.5 -43.5 t42.5 -109.5q0 -55 -20 -103t-56 -83.5t-84.5 -56t-105.5 -20.5q-88 0 -133 50t-45 143q0 30 7 77.5t24.5 100t47 105.5t75 96t108 69.5t146.5 26.5q17 0 31.5 -1t22.5 -2z" />
<glyph unicode="7" d="M558 584l-104.5 -148l-98.5 -151l-89.5 -147.5l-77.5 -137.5h-91q79 138 174 288t199 291q-8 0 -34.5 -0.5t-62.5 -1t-77 -0.5h-78h-97l14 73h436z" />
<glyph unicode="8" d="M396 180q0 23 -9.5 40.5t-25 31.5t-35.5 25.5t-42 22.5q-52 -24 -84 -46t-50 -42.5t-24.5 -39.5t-6.5 -37q0 -35 30 -58.5t90 -23.5q29 0 57 7.5t50.5 23.5t36 40t13.5 56zM445 519q0 38 -27.5 58.5t-74.5 20.5q-34 0 -60.5 -10.5t-45 -27.5t-28 -39t-9.5 -44 q0 -19 8 -34t21.5 -28t31.5 -24t38 -22q41 20 69 38t45 35.5t24.5 36t7.5 40.5zM524 531q0 -34 -10.5 -60.5t-31 -49.5t-51.5 -43t-72 -41q22 -12 43.5 -26.5t37.5 -32t26 -39.5t10 -50q0 -46 -21 -82.5t-55.5 -62t-79.5 -39.5t-93 -14q-89 0 -138.5 35.5t-49.5 98.5 q0 67 47.5 115.5t135.5 90.5q-20 11 -38.5 24t-32.5 29.5t-22 36t-8 44.5q0 38 17.5 73t48 62t73 43t93.5 16q85 0 128 -35t43 -93z" />
<glyph unicode="9" d="M446 478q0 51 -29 85t-87 34q-38 0 -69 -16t-53.5 -42t-34.5 -59.5t-12 -68.5q0 -51 27.5 -78.5t81.5 -27.5q36 0 68 13.5t56 36.5t38 55t14 68zM524 473q0 -27 -6 -73.5t-22 -100t-45 -108.5t-74 -99.5t-109 -72.5t-151 -28q-49 0 -81 7l12 69q18 -5 40 -7.5t42 -2.5 q104 0 171 55t105 158l8.5 25.5t8.5 19.5h-1q-31 -34 -75 -54.5t-97 -20.5q-81 0 -124 41t-43 115q0 49 18 96.5t51.5 84.5t82 59.5t108.5 22.5q82 0 131.5 -44.5t49.5 -141.5z" />
<glyph unicode=":" horiz-adv-x="281" d="M174 47q0 -23 -15.5 -39t-38.5 -16t-38 15.5t-15 37.5q0 23 15.5 39t38.5 16t38 -15.5t15 -37.5zM231 344q0 -24 -15.5 -40t-38.5 -16t-38.5 15.5t-15.5 38.5t16 39t39 16t38 -15.5t15 -37.5z" />
<glyph unicode=";" horiz-adv-x="281" d="M121 99q26 0 41 -20.5t9.5 -54.5t-36 -78.5t-95.5 -91.5l-29 33q28 24 45 44t24.5 37.5t7 32.5t-7.5 27q-6 12 -6 24q0 13 6 23.5t16.5 17t24.5 6.5zM231 344q0 -24 -15.5 -40t-38.5 -16t-38.5 15.5t-15.5 38.5t16 39t39 16t38 -15.5t15 -37.5z" />
<glyph unicode="&#x37e;" horiz-adv-x="281" d="M121 99q26 0 41 -20.5t9.5 -54.5t-36 -78.5t-95.5 -91.5l-29 33q28 24 45 44t24.5 37.5t7 32.5t-7.5 27q-6 12 -6 24q0 13 6 23.5t16.5 17t24.5 6.5zM231 344q0 -24 -15.5 -40t-38.5 -16t-38.5 15.5t-15.5 38.5t16 39t39 16t38 -15.5t15 -37.5z" />
<glyph unicode="&#x3c;" d="M183 303l226 -231l-54 -48l-269 285l361 273l43 -51z" />
<glyph unicode="=" d="M482 185h-437l12 62h437zM513 347h-437l12 63h436z" />
<glyph unicode="&#x3e;" d="M125 24l-43 52l308 227l-226 231l53 48l269 -284z" />
<glyph unicode="?" horiz-adv-x="435" d="M202 46q0 -23 -15 -38.5t-38 -15.5t-37.5 15t-14.5 36q0 23 15.5 38.5t38.5 15.5t37 -15t14 -36zM416 528q0 -41 -17.5 -71t-42.5 -54.5t-54 -47.5t-52 -50t-36 -61.5t-6 -83.5h-74q-7 53 5 92t34.5 68t50 52.5l52 45.5t41.5 46t17 56q0 23 -12.5 42.5t-35 35t-53.5 25.5 t-68 15l22 69q55 -6 98 -22.5t72 -40.5t44 -53.5t15 -62.5z" />
<glyph unicode="@" horiz-adv-x="965" d="M596 468q-12 4 -27 5.5t-31 1.5q-32 0 -61.5 -18t-52.5 -49t-37 -72t-14 -87q0 -56 38 -56q20 0 43.5 13.5t46 40.5t43.5 68t36 97l16 56v0zM893 439q0 -67 -18.5 -124t-51 -98t-76.5 -64.5t-96 -23.5q-33 0 -54.5 10t-33 26t-13.5 36.5t4 41.5h-3q-7 -15 -22.5 -35 t-37.5 -37.5t-47.5 -29.5t-51.5 -12q-45 0 -66 26.5t-21 77.5q0 44 13.5 96t43 96.5t76 74t113.5 29.5q36 0 68 -3.5t55 -8.5l-62 -219q-15 -54 -1 -80t53 -26q35 0 64.5 18t51.5 50.5t34 77t12 97.5q0 45 -14.5 88t-46 76t-81.5 53t-122 20q-82 0 -154.5 -34.5 t-126.5 -93.5t-85.5 -137.5t-31.5 -166.5q0 -60 18 -109t53.5 -83.5t88.5 -53t122 -18.5q45 0 85 6t82 18l4 -62q-44 -14 -93.5 -20t-91.5 -6q-81 0 -144 22t-106 63.5t-65.5 101t-22.5 134.5q0 103 38 193.5t103.5 158.5t152 107.5t183.5 39.5q83 0 144 -23.5t100.5 -63.5 t58.5 -93t19 -113z" />
<glyph unicode="A" horiz-adv-x="601" d="M377 497q-4 23 -7 47t-5 46h-1l-21 -44t-24 -47l-149 -272h253zM459 0l-26 166h-295l-90 -166h-82l375 675h81l118 -675h-81z" />
<glyph unicode="B" horiz-adv-x="554" d="M416 222q0 48 -38 73t-120 25h-43t-36 -1l-48 -254q14 -2 35.5 -4t52.5 -2q48 0 85 13t61.5 35.5t37.5 52t13 62.5zM455 534q0 18 -5.5 33t-19.5 26t-38 17t-61 6q-26 0 -49.5 -0.5t-46.5 -1.5l-45 -235q16 -1 30 -1h32q44 0 81.5 10t64.5 30t42 49t15 67zM534 550 q0 -39 -12 -71t-32.5 -56t-46.5 -41t-54 -26v-1q51 -10 78.5 -45.5t27.5 -80.5q0 -47 -19 -89t-55.5 -73.5t-91 -50.5t-125.5 -19q-31 0 -74.5 1l-85.5 2l128 675q33 1 77 2t103 1q97 0 139.5 -36t42.5 -92z" />
<glyph unicode="C" horiz-adv-x="567" d="M572 592q-72 25 -145 25q-77 0 -131.5 -34t-89.5 -88t-51.5 -122.5t-16.5 -137.5q0 -38 8.5 -70.5t29 -55.5t55 -36t86.5 -13q43 0 84.5 9.5t76.5 25.5l5 -66q-42 -17 -91 -26.5t-97 -9.5q-71 0 -117 19t-73.5 50.5t-38.5 73t-11 87.5q0 90 24.5 173t73.5 146.5 t120.5 101.5t166.5 38q44 0 81.5 -5.5t71.5 -15.5z" />
<glyph unicode="D" horiz-adv-x="669" d="M570 424q0 41 -10.5 76.5t-36.5 61t-69 40t-107 14.5q-30 0 -61 -1t-51 -2l-104 -546q20 -3 45.5 -5t42.5 -2q94 0 160.5 32.5t109 84.5t62 117t19.5 130zM650 433q0 -83 -26.5 -161.5t-80.5 -139.5t-137.5 -98t-197.5 -37q-54 0 -92 1.5t-72 1.5l128 675q38 0 88.5 1.5 t98.5 1.5q81 0 136.5 -18.5t90 -51t49.5 -77.5t15 -98z" />
<glyph unicode="E" horiz-adv-x="494" d="M492 613h-257l-45 -234h246l-12 -62h-245l-48 -253h257l-12 -64h-332l128 675h332z" />
<glyph unicode="F" horiz-adv-x="460" d="M490 612h-255l-45 -236h242l-12 -62h-242l-59 -314h-75l128 675h330z" />
<glyph unicode="G" horiz-adv-x="671" d="M632 582q-40 18 -83.5 27.5t-83.5 9.5q-72 0 -132.5 -28.5t-105 -77.5t-69 -115.5t-24.5 -141.5q0 -36 11 -72t35.5 -64t63.5 -45.5t96 -17.5q42 0 75.5 6t65.5 16l50 261h75l-60 -312q-54 -19 -111.5 -28t-107.5 -9q-69 0 -120.5 19t-85 53.5t-50.5 82t-17 103.5 q0 96 33 176t90 137.5t133.5 89.5t163.5 32q100 0 181 -28z" />
<glyph unicode="H" horiz-adv-x="689" d="M552 0h-75l61 318h-360l-61 -318h-75l128 675h75l-55 -293h360l55 293h75z" />
<glyph unicode="I" horiz-adv-x="254" d="M119 0h-75l128 675h75z" />
<glyph unicode="J" horiz-adv-x="319" d="M217 168q-16 -84 -60 -129.5t-131 -45.5q-21 0 -39.5 2.5t-32.5 5.5l14 69q13 -5 30 -8.5t34 -3.5q42 0 70.5 24t40.5 90l96 503h75z" />
<glyph unicode="K" horiz-adv-x="543" d="M263 341l209 -341h-95l-195 339l-64 -339h-75l128 675h75l-62 -323l313 323h99z" />
<glyph unicode="L" horiz-adv-x="416" d="M364 0h-320l128 675h75l-116 -610h246z" />
<glyph unicode="M" horiz-adv-x="871" d="M772 0h-78l20 411q2 54 5 96.5t6 77.5h-1q-9 -21 -22.5 -49.5l-31.5 -63.5l-244 -472h-84l-62 442q-5 38 -8.5 75t-4.5 68h-1l-23.5 -81.5l-28.5 -95.5l-126 -408h-80l222 675h93l63 -456q5 -36 8 -69.5t4 -61.5h1q12 28 27.5 59.5l32.5 64.5l241 463h102z" />
<glyph unicode="N" horiz-adv-x="686" d="M551 0h-87l-190 443q-16 37 -29.5 73t-23.5 69q-9 -64 -21 -136t-25 -139l-57 -310h-75l128 675h89l188 -437q15 -35 28.5 -72l25.5 -72l21.5 125l22.5 133l59 323h75z" />
<glyph unicode="O" horiz-adv-x="691" d="M594 431q0 86 -42 136.5t-129 50.5q-63 0 -116 -29.5t-91.5 -80.5t-60 -118.5t-21.5 -143.5q0 -87 42.5 -137.5t123.5 -50.5q60 0 113.5 28.5t93.5 79t63.5 118.5t23.5 147zM676 440q0 -96 -30 -178.5t-82.5 -142.5t-123 -94t-150.5 -34q-121 0 -179.5 64t-58.5 181 q0 92 29 173.5t80.5 142.5t121.5 96.5t152 35.5q117 0 179 -63.5t62 -180.5z" />
<glyph unicode="P" horiz-adv-x="509" d="M445 508q0 49 -30 78.5t-104 29.5q-26 0 -43 -0.5t-33 -1.5l-54 -281q28 -5 60 -5q40 0 77 13.5t65 37.5t45 57t17 72zM524 520q0 -57 -25 -104t-66 -81t-94.5 -52.5t-111.5 -18.5q-13 0 -29 0.5t-30 2.5l-50 -267h-75l128 675q72 3 156 3q100 0 148.5 -43t48.5 -115z " />
<glyph unicode="Q" horiz-adv-x="692" d="M594 431q0 86 -42 136.5t-129 50.5q-63 0 -116 -29.5t-91.5 -80.5t-60 -118.5t-21.5 -143.5q0 -87 42.5 -137.5t123.5 -50.5q60 0 113.5 28.5t93.5 79t63.5 118.5t23.5 147zM610 -174q-63 -9 -108 -2t-84 17.5t-78.5 18t-91.5 0.5l12 65q39 5 70.5 3t59 -7.5t53 -12.5 t53 -12.5t58 -7.5t69.5 3zM676 440q0 -96 -30 -178.5t-82.5 -142.5t-123 -94t-150.5 -34q-121 0 -179.5 64t-58.5 181q0 92 29 173.5t80.5 142.5t121.5 96.5t152 35.5q117 0 179 -63.5t62 -180.5z" />
<glyph unicode="R" horiz-adv-x="537" d="M439 524q0 48 -29.5 70.5t-98.5 22.5q-46 0 -76 -3l-46 -243q8 -1 23 -1.5t35 -0.5q40 0 75 10t61 29.5t41 48.5t15 67zM518 533q0 -50 -21 -88.5t-55.5 -66.5t-78.5 -43.5t-91 -18.5l20.5 -35l20.5 -36l143 -245h-92l-173 312h-14l-58 -312h-75l128 675q32 2 67 2.5 t84 0.5q102 0 148.5 -38t46.5 -107z" />
<glyph unicode="S" horiz-adv-x="451" d="M426 606q-26 8 -51 11.5t-43 3.5q-40 0 -69 -10.5t-48 -28t-28.5 -39t-9.5 -42.5q0 -33 15.5 -56.5t39.5 -42.5t51 -37t51 -39.5t39.5 -49.5t15.5 -68q0 -47 -19.5 -86.5t-54 -68.5t-82.5 -45.5t-106 -16.5q-25 0 -54 3t-53 11l15 75q20 -9 47.5 -15t52.5 -6q84 0 129 38 t45 99q0 31 -15.5 53t-38.5 40.5t-50.5 36t-50.5 39t-38.5 49.5t-15.5 69q0 40 16 76.5t46.5 64.5t75.5 44t104 16q24 0 46.5 -1.5t51.5 -7.5z" />
<glyph unicode="T" horiz-adv-x="508" d="M560 611h-198l-117 -611h-75l117 611h-199l12 64h471z" />
<glyph unicode="U" horiz-adv-x="682" d="M594 247q-26 -132 -102 -194t-203 -62q-73 0 -117.5 18.5t-67 51t-25.5 76t6 93.5l85 445h75l-85 -446q-8 -43 -5.5 -75.5t18.5 -54.5t47 -33.5t80 -11.5q45 0 81.5 10.5t64 34.5t46 62.5t29.5 94.5l80 419h74z" />
<glyph unicode="V" horiz-adv-x="601" d="M293 0h-84l-113 675h80l71 -449q5 -31 10 -70t8 -74h1q17 37 36.5 75l39.5 75l245 443h82z" />
<glyph unicode="W" horiz-adv-x="936" d="M676 0h-95l-44 486q-2 29 -3.5 55.5t-0.5 52.5h-1q-20 -53 -45 -108l-226 -486h-93l-48 675h77l31 -468q2 -34 2.5 -64.5t-0.5 -61.5h1l25 62t27 61l220 471h90l46 -477q3 -29 4.5 -58t0.5 -58h1q9 26 18.5 50.5t21.5 52.5l217 490h79z" />
<glyph unicode="X" horiz-adv-x="574" d="M348 349l159 -349h-89l-124 290l-232 -290h-91l290 352l-146 323h84l116 -265l212 265h89z" />
<glyph unicode="Y" horiz-adv-x="516" d="M293 245l-46 -245h-75l46 244l-124 431h78l66 -241q9 -30 16 -60t13 -59h2q17 31 38.5 64l43.5 67l150 229h85z" />
<glyph unicode="Z" horiz-adv-x="517" d="M541 618l-386 -486l-26 -32.5l-28 -32.5q17 2 62.5 2.5t111.5 0.5h166l-14 -70h-428l10 56l366 465l38 44.5l38 43.5q-26 -1 -61 -1.5t-88 -0.5h-177l13 68h414z" />
<glyph unicode="[" horiz-adv-x="313" d="M364 712h-116l-162 -850h117l-12 -58h-116h-68l184 965h68h117z" />
<glyph unicode="\" horiz-adv-x="418" d="M282 -161l-170 918h65l172 -918h-67z" />
<glyph unicode="]" horiz-adv-x="313" d="M140 -196h-69h-116l11 58h116l162 850h-117l12 57h116h69z" />
<glyph unicode="^" d="M423 345l-94 272l-192 -272l-49 28l221 302h61l111 -300z" />
<glyph unicode="_" d="M463 -250h-550l12 59h550z" />
<glyph unicode="`" horiz-adv-x="360" d="M273 575l-123 119l50 46l113 -128z" />
<glyph unicode="a" horiz-adv-x="536" d="M411 435q-16 4 -35 7t-42 3q-60 0 -102 -27t-68.5 -69.5t-38.5 -94.5t-12 -101q0 -54 15 -76.5t41 -22.5q39 0 77 35t70 87t55 110.5t32 105.5l8 43v0zM495 490l-35.5 -185.5l-24.5 -128l-17.5 -93.5l-15.5 -83h-75q7 34 22.5 88t39.5 131l-2 1q-13 -29 -34 -68.5 t-51 -75.5t-69 -61t-87 -25q-53 0 -81 36t-28 114q0 68 18 133.5t55.5 116.5t96.5 82.5t140 31.5q42 0 78.5 -4t69.5 -10z" />
<glyph unicode="b" horiz-adv-x="536" d="M426 344q0 54 -15 76.5t-40 22.5q-26 0 -51.5 -16.5t-49.5 -43.5t-45.5 -62t-39 -72.5t-30 -74t-18.5 -67.5l-9 -45q17 -5 35.5 -7.5t41.5 -2.5q60 0 102.5 27t68.5 69.5t38 94.5t12 101zM502 357q0 -68 -18 -133.5t-55.5 -116.5t-96 -82.5t-140.5 -31.5q-42 0 -78.5 4 t-68.5 11l138 722h73l-49 -254q-2 -12 -5.5 -27t-10 -37l-16 -54l-23.5 -78h2q19 47 44 88.5t55 72t65 48.5t75 18q53 0 81 -36t28 -114z" />
<glyph unicode="c" horiz-adv-x="415" d="M411 423q-21 10 -44.5 15.5t-52.5 5.5q-50 0 -87 -25.5t-61.5 -65.5t-36.5 -88.5t-12 -93.5q0 -21 4 -41t15.5 -36t33 -26t56.5 -10q32 0 62.5 7t54.5 18l3 -62q-27 -11 -63.5 -19.5t-75.5 -8.5q-48 0 -80.5 12.5t-52.5 34t-28.5 51t-8.5 63.5q0 71 19 134.5t55.5 111.5 t89 76t119.5 28q32 0 58 -4t50 -12z" />
<glyph unicode="d" horiz-adv-x="536" d="M411 435q-16 4 -35 7t-42 3q-60 0 -102 -27t-68.5 -69.5t-38.5 -94.5t-12 -101q0 -54 15 -76.5t41 -22.5q39 0 77 35t70 87t55 110.5t32 105.5l8 43v0zM436 180q0 -2 -3 -16t-6.5 -33l-7.5 -41l-7.5 -41t-6.5 -32.5t-3 -16.5h-74q6 34 21.5 88t39.5 131l-2 1 q-13 -29 -34 -68.5t-51 -75.5t-69 -61t-87 -25q-53 0 -81 36t-28 114q0 68 18 133.5t55.5 116.5t96.5 82.5t140 31.5q20 0 38 -1.5t38 -4.5l43 232h75z" />
<glyph unicode="e" horiz-adv-x="473" d="M373 387q0 30 -20 45.5t-53 15.5q-32 0 -58.5 -13t-47.5 -35t-36 -52t-24 -64q126 5 182.5 30.5t56.5 72.5zM449 396q0 -77 -80 -120.5t-246 -50.5q-2 -12 -4 -31t-2 -34q0 -32 6 -52.5t19.5 -32.5t35 -17t53.5 -5q35 0 70.5 7.5t65.5 21.5l5 -60q-74 -31 -168 -31 q-82 0 -123 36.5t-41 122.5q0 70 18.5 134.5t53 113.5t84.5 78.5t113 29.5q37 0 63.5 -9t43.5 -24t25 -35t8 -42z" />
<glyph unicode="f" horiz-adv-x="336" d="M450 664q-18 5 -37.5 7.5t-36.5 2.5q-59 0 -92.5 -34t-47.5 -109l-6 -34h144l-12 -59h-143l-89 -466q-23 -123 -79.5 -176t-145.5 -53q-46 0 -86 9l19 65q19 -6 38.5 -8.5t36.5 -2.5q57 0 91 36t52 128l90 468h-107l12 59h106l6 34q19 104 73.5 154t148.5 50q22 0 42 -2 t42 -7z" />
<glyph unicode="g" horiz-adv-x="535" d="M411 435q-16 4 -35 7t-42 3q-60 0 -102 -27t-68.5 -69.5t-38.5 -94.5t-12 -101q0 -54 15 -76.5t41 -22.5q39 0 77 35t70 87t55 110.5t32 105.5l8 43v0zM391 -52q-8 -42 -26.5 -79.5t-51.5 -65t-83 -44t-120 -16.5q-41 0 -72.5 5t-57.5 13l17 75q29 -13 63 -20t69 -7 q40 0 72 8.5t56 27.5t40.5 50t25.5 77q6 31 11.5 56.5t12.5 52t16.5 58l23.5 75.5l-2 1q-12 -27 -32.5 -65.5t-50.5 -74t-69 -60.5t-87 -25q-53 0 -81 36t-28 114q0 68 18 133.5t55.5 116.5t96.5 82.5t140 31.5q42 0 78.5 -4t69.5 -10z" />
<glyph unicode="h" horiz-adv-x="565" d="M430 0h-74l62 320q12 64 0 93.5t-49 29.5q-26 0 -51.5 -16t-49.5 -43t-45.5 -62t-38.5 -72.5t-29.5 -75t-18.5 -68.5l-20 -106h-73l139 730h73l-46 -242l-6.5 -31t-10 -40.5l-16 -55.5t-24.5 -76l2 -1q18 42 42 82t54 71.5t65.5 50.5t75.5 19q69 0 93.5 -45t9.5 -125z " />
<glyph unicode="i" horiz-adv-x="251" d="M116 0h-73l95 497h73zM256 660q0 -23 -15.5 -38.5t-36.5 -15.5q-22 0 -35.5 14t-13.5 34q0 23 15.5 38.5t37.5 15.5q21 0 34.5 -14t13.5 -34z" />
<glyph unicode="j" horiz-adv-x="255" d="M107 -70q-18 -94 -61.5 -140.5t-132.5 -46.5q-18 0 -34.5 2.5t-29.5 5.5l15 66q14 -5 29.5 -7.5t28.5 -2.5q27 0 45 7t31 24t22 44t17 68l105 547h73zM260 660q0 -23 -15.5 -38.5t-37.5 -15.5q-21 0 -35 14t-14 34q0 23 16 38.5t37 15.5q22 0 35.5 -14t13.5 -34z" />
<glyph unicode="k" horiz-adv-x="463" d="M244 273l156 -273h-90l-142 268l-52 -268h-73l139 730h73l-85 -448l239 238l52 -45z" />
<glyph unicode="l" horiz-adv-x="251" d="M116 0h-73l139 730h73z" />
<glyph unicode="m" horiz-adv-x="865" d="M730 0h-74l62 320q12 64 0.5 93.5t-46.5 29.5q-33 0 -68.5 -30t-67.5 -78t-57 -108t-36 -121l-20 -106h-73l61 320q12 64 0.5 93.5t-46.5 29.5q-33 0 -68.5 -30t-67.5 -78t-57 -108t-36 -121l-20 -106h-73l50 259q0 3 3.5 21.5l8.5 43.5t10 54t10 54.5t8 43.5t4 21h74 q-2 -13 -6.5 -31.5l-11 -44t-17 -59.5l-24.5 -77l2 -1q17 42 41 82t53.5 71.5t64.5 50.5t75 19q49 0 74 -26t25 -71q0 -27 -7 -55t-21 -71l2 -1q17 42 41 82.5t53.5 72t64.5 50.5t75 19q66 0 90.5 -45t8.5 -125z" />
<glyph unicode="n" horiz-adv-x="565" d="M430 0h-74l62 320q12 64 0 93.5t-49 29.5q-26 0 -51.5 -16t-49.5 -43t-45.5 -62t-38.5 -72.5t-29.5 -75t-18.5 -68.5l-20 -106h-73l50 259q0 3 3.5 21.5l8.5 43.5t10 54t10 54.5t8 43.5t4 21h74q-5 -26 -17.5 -75t-41.5 -137l2 -1q18 42 42 82t54 71.5t65.5 50.5t75.5 19 q69 0 93.5 -45t9.5 -125z" />
<glyph unicode="o" horiz-adv-x="537" d="M425 320q0 60 -27.5 91.5t-85.5 31.5q-44 0 -80 -22t-62 -58.5t-40 -83.5t-14 -98q0 -62 26.5 -94t87.5 -32q38 0 73.5 19t62.5 54t43 84t16 108zM504 327q0 -77 -24 -139t-64 -106t-92 -67.5t-107 -23.5q-91 0 -134.5 45t-43.5 131q0 73 21.5 135t59.5 107.5t90 71 t113 25.5q94 0 137.5 -50t43.5 -129z" />
<glyph unicode="p" horiz-adv-x="536" d="M426 344q0 54 -15 76.5t-40 22.5q-26 0 -51.5 -16.5t-49.5 -43.5t-45.5 -62t-39 -72.5t-30 -74t-18.5 -67.5l-8 -41q17 -6 39 -9.5t38 -3.5q60 0 101.5 27t68 69.5t38.5 94t12 100.5zM502 357q0 -68 -18 -133t-55.5 -116t-96 -82.5t-140.5 -31.5q-40 0 -76 6l-47 -249 h-74l98 507q0 4 3.5 22l8.5 43.5t10 54.5t10 54.5t8 43.5t4 21h74q-3 -17 -7.5 -36t-11 -44t-16.5 -58l-24 -78l2 -1q19 47 44 88.5t55 72t65 48.5t75 18q53 0 81 -36t28 -114z" />
<glyph unicode="q" horiz-adv-x="536" d="M411 435q-16 4 -35 7t-42 3q-60 0 -102 -27t-68.5 -69.5t-38.5 -94.5t-12 -101q0 -54 15.5 -76.5t41.5 -22.5q38 0 76 35t70 87t55 110.5t32 105.5l8 43v0zM354 -249h-73l45 238q4 24 9.5 46.5t12.5 48.5t17 58.5l24 76.5l-2 1q-13 -29 -34 -68.5t-51 -75.5t-69 -61 t-87 -25q-53 0 -81 36t-28 114q0 68 18 133.5t55.5 116.5t96.5 82.5t140 31.5q42 0 78.5 -4t69.5 -11z" />
<glyph unicode="r" horiz-adv-x="349" d="M362 433q-25 7 -49.5 -5.5t-47.5 -37.5t-43.5 -59.5t-37 -72t-28.5 -75.5t-18 -69l-22 -114h-73l50 259l22 119l22 119h73q-6 -34 -18.5 -79.5t-36.5 -117.5h2q22 47 45 87.5t49 69t57 42t68 7.5z" />
<glyph unicode="s" horiz-adv-x="383" d="M337 435q-19 7 -39 9.5t-40 2.5q-53 0 -80 -22.5t-27 -57.5q0 -22 12 -38.5t29.5 -31t38 -29t38 -31.5t29.5 -38t12 -49q0 -31 -13.5 -59.5t-40 -50.5t-65.5 -35.5t-90 -13.5q-25 0 -44.5 2t-38.5 5l13 70q20 -6 40 -10t43 -4q53 0 86 21.5t33 65.5q0 21 -12 37t-29.5 30 t-38 28t-38 31.5t-29.5 39.5t-12 52q0 31 12.5 57.5t36.5 46.5t59.5 31.5t82.5 11.5q26 0 46 -2t39 -6z" />
<glyph unicode="t" horiz-adv-x="363" d="M361 438h-142l-52 -274q-12 -62 -2 -84t50 -22q22 0 39 2t32 6l-3 -64q-21 -5 -44.5 -7.5t-45.5 -2.5q-74 0 -96.5 37.5t-6.5 120.5l55 288h-107l12 59h107l31 165l78 18l-36 -183h143z" />
<glyph unicode="u" horiz-adv-x="564" d="M475 238q-1 -3 -4.5 -21.5l-8 -43.5l-10 -54l-10.5 -54.5l-8.5 -43.5t-3.5 -21h-74q5 26 17.5 75t41.5 137l-2 1q-18 -42 -42 -82t-54 -71.5t-65.5 -50.5t-75.5 -19q-68 0 -93 45t-10 125l65 337h73l-61 -320q-12 -64 -0.5 -93.5t49.5 -29.5q25 0 50.5 16t49.5 43 t45.5 62t38.5 72.5t29.5 74.5t18.5 69l20 106h74z" />
<glyph unicode="v" horiz-adv-x="464" d="M226 0h-76l-90 497h80l52 -322q3 -21 5.5 -44t4.5 -44h1l224 431l68 -26z" />
<glyph unicode="w" horiz-adv-x="771" d="M549 0h-86l-43 309q-3 23 -5.5 47t-3.5 48h-1l-199 -404h-86l-55 497h78l28 -296q3 -33 5.5 -64t2.5 -51h1l203 411h82l40 -295q5 -36 7.5 -66.5t3.5 -50.5h1l207 432l68 -24z" />
<glyph unicode="x" horiz-adv-x="508" d="M300 247l134 -247h-89l-101 196l-207 -220l-56 43l231 234l-127 244h86l96 -194l204 217l54 -41z" />
<glyph unicode="y" horiz-adv-x="475" d="M495 495q-48 -112 -95.5 -211.5t-95.5 -184.5t-95.5 -152.5t-95.5 -114.5q-44 -43 -87.5 -65.5t-86.5 -22.5q-19 0 -36.5 1.5t-31.5 5.5l13 69q14 -5 30 -7.5t33 -2.5q27 0 58 17t58 47q32 35 46.5 74t14.5 97q0 96 -19 213.5t-52 238.5h83q13 -51 24 -106t18.5 -108 t12 -101.5t4.5 -88.5q0 -15 -2.5 -33.5t-6.5 -35.5h2l60.5 109.5l58.5 115.5l58 126l61 142l69 -22v0z" />
<glyph unicode="z" horiz-adv-x="428" d="M410 445l-305 -378q11 0 27 0.5t34 1t37 0.5h37h104l-14 -69h-329l10 53l306 379q-23 -1 -55.5 -1.5t-74.5 -0.5h-99l13 67h320z" />
<glyph unicode="{" horiz-adv-x="327" d="M386 712q-26 0 -45 -6t-32.5 -20.5t-22.5 -38t-16 -58.5l-24 -128q-14 -69 -43 -103.5t-77 -40.5v-2q43 -6 59.5 -42t4.5 -99l-36 -189q-14 -70 0.5 -96.5t66.5 -26.5l-11 -58h-17q-40 0 -64.5 13t-37 37t-13 58t7.5 76l37 191q11 59 -8.5 82t-76.5 27l12 60q31 2 52.5 8 t36.5 18t23.5 32t14.5 50l24 130q7 38 20.5 71.5t34.5 58t51 39t71 14.5h19z" />
<glyph unicode="|" horiz-adv-x="278" d="M75 -249h-58l190 1000h58z" />
<glyph unicode="}" horiz-adv-x="328" d="M312 288q-31 -2 -52.5 -8t-36 -18.5t-23.5 -32.5t-15 -50l-35 -190q-18 -94 -58.5 -139.5t-118.5 -45.5h-19l12 59q26 0 45 6t32 20.5t22 37.5t16 58l35 189q25 133 120 145v2q-43 6 -59.5 41.5t-4.5 98.5l25 129q14 69 -0.5 96t-66.5 27l11 57h14q41 0 66 -14 t37.5 -38.5t13.5 -58.5t-7 -73l-26 -130q-12 -59 8 -81.5t77 -26.5z" />
<glyph unicode="~" d="M550 571q-4 -69 -41 -109t-96 -40q-41 0 -64 17.5t-39.5 39t-33 39t-44.5 17.5q-34 0 -52.5 -27t-21.5 -65h-56q3 68 40 108t96 40q27 0 46 -8.5t33 -21t24.5 -27t22 -27t24.5 -21t32 -8.5q34 0 52 27t22 66h56v0z" />
<glyph unicode="&#xa1;" horiz-adv-x="313" d="M105 -204h-87l116 541h61zM239 454q0 -23 -15.5 -38.5t-38.5 -15.5t-37 15t-14 36q0 23 15 38.5t38 15.5t37.5 -15t14.5 -36z" />
<glyph unicode="&#xa2;" d="M489 474q-52 26 -113 26q-45 0 -83 -16.5t-65 -45.5t-42 -69.5t-15 -88.5q0 -53 30 -82.5t102 -29.5q32 0 66.5 7.5t69.5 24.5l10 -61q-32 -14 -66 -23.5t-68 -11.5l-20 -104h-60l20 105q-77 6 -120 43.5t-43 117.5q0 66 20 117.5t54 88.5t79.5 58.5t96.5 28.5l17 91h60 l-17 -89q26 -1 55 -7t58 -18z" />
<glyph unicode="&#xa3;" d="M500 578q-23 8 -50 14t-54 6q-48 0 -76 -21.5t-43 -56.5t-19.5 -79.5t-4.5 -89.5h164l-11 -59h-155q0 -41 -6.5 -72.5t-20 -58.5t-36 -50t-53.5 -47q17 1 37.5 1.5t44.5 0.5h225l-12 -66h-402l10 52q45 34 72 61t42 53t19.5 56t4.5 70h-111l11 59h102q0 57 8 112 t32.5 98.5t69.5 70.5t120 27q26 0 58 -4.5t58 -12.5z" />
<glyph unicode="&#xa4;" d="M403 371q0 35 -19.5 59t-67.5 24q-33 0 -58 -14.5t-42.5 -38t-26 -52.5t-8.5 -58q0 -37 19 -61.5t66 -24.5q31 0 56 15t43 38.5t28 53t10 59.5zM456 451q16 -24 16 -68t-15.5 -89t-53.5 -83l66 -106l-59 -40l-62 110q-47 -27 -96 -27q-47 0 -71 15l-91 -98l-50 43l93 91 q-22 30 -22 81q0 47 17 94t58 83l-60 98l60 39l55 -103q22 11 44 15.5t45 4.5q22 0 43.5 -4t38.5 -15l97 102l45 -43z" />
<glyph unicode="&#xa5;" d="M337 287h151l-11 -53h-169l-14 -75h169l-10 -53h-169l-20 -106h-75l20 106h-168l10 53h168l14 75h-168l10 53h151l-109 363h81l61 -215q9 -32 15.5 -60.5l12.5 -56.5h1l37 62.5l40 62.5l141 207h84z" />
<glyph unicode="&#xa6;" horiz-adv-x="278" d="M75 -249h-58l71 378h58zM195 383h-58l70 368h58z" />
<glyph unicode="&#xa7;" horiz-adv-x="506" d="M344 245q0 25 -10 48.5t-26 47t-35.5 48t-38.5 51.5q-37 -23 -52.5 -52t-15.5 -60q0 -24 10 -47.5t25.5 -47.5t35 -48t38.5 -50q37 23 53 52.5t16 57.5zM428 663q-18 6 -33 8.5t-29 2.5q-33 0 -54 -11t-33.5 -27t-17.5 -34t-5 -32q0 -22 12 -44t29.5 -45t38 -47.5 t38 -52.5t29.5 -59t12 -66q0 -47 -26 -90t-80 -78q10 -17 15.5 -35.5t5.5 -40.5q0 -33 -13.5 -65t-38.5 -56.5t-61 -39.5t-81 -15q-42 0 -80 11l15 64q20 -6 36.5 -9.5t34.5 -3.5q30 0 51.5 10.5t34.5 26t19 34t6 34.5q0 35 -24.5 69t-54.5 71.5t-54.5 79.5t-24.5 93 q0 48 25.5 90.5t80.5 80.5q-12 23 -17.5 41t-5.5 38q0 23 10 52.5t32.5 55.5t59 43.5t90.5 17.5q18 0 37.5 -2t35.5 -6z" />
<glyph unicode="&#xa8;" horiz-adv-x="535" d="M251 659q0 -22 -14.5 -36t-34.5 -14t-33.5 13.5t-13.5 32.5q0 21 15 35t35 14t33 -13.5t13 -31.5zM439 659q0 -22 -14.5 -36t-34.5 -14t-33.5 13.5t-13.5 32.5q0 21 15 35t35 14t33 -13.5t13 -31.5z" />
<glyph unicode="&#xa9;" horiz-adv-x="738" d="M494 446q-30 15 -72 15q-37 0 -61.5 -17t-39.5 -42.5t-21.5 -55t-6.5 -55.5q0 -37 18 -57.5t57 -20.5q44 0 85 15l1 -53q-23 -8 -49.5 -12.5t-47.5 -4.5q-70 0 -100.5 33t-30.5 89q0 48 14 90.5t40.5 74t63.5 50t84 18.5q28 0 47.5 -3.5t34.5 -8.5zM657 349 q0 53 -20.5 100t-55.5 82.5t-83 56.5t-103 21q-57 0 -108 -21.5t-89.5 -59.5t-61.5 -90.5t-23 -114.5q0 -54 20.5 -102t55.5 -83.5t83 -56.5t103 -21q56 0 107 22t90 60.5t62 91.5t23 115zM718 351q0 -75 -28 -138.5t-76 -110t-110.5 -73t-131.5 -26.5q-70 0 -129 24.5 t-101.5 67.5t-66.5 101t-24 124q0 74 28 137.5t76 110t111 73t132 26.5q67 0 125.5 -24.5t102 -67t68 -100.5t24.5 -124z" />
<glyph unicode="&#xaa;" horiz-adv-x="378" d="M328 623q-14 4 -26.5 5t-23.5 1q-32 0 -56 -15t-41 -39.5t-25.5 -55t-8.5 -61.5q0 -32 9 -45t27 -13q23 0 45 16.5t41 43.5t33 62t21 73l5 28v0zM342 225h-279l11 60h279zM399 672l-17 -87.5l-17.5 -92.5l-15.5 -82.5t-10 -58.5h-63q8 36 31 104h-1q-25 -52 -61 -81 t-81 -29q-82 0 -82 99q0 46 13.5 88.5t39.5 75.5t65.5 52.5t90.5 19.5q27 0 53.5 -1.5t54.5 -6.5z" />
<glyph unicode="&#xab;" horiz-adv-x="483" d="M144 294l74 -143l-60 -31l-90 178l145 172l52 -34zM326 294l82 -141l-60 -32l-98 176l153 171l51 -34z" />
<glyph unicode="&#xac;" d="M453 106h-65l30 160h-371l12 63h436z" />
<glyph unicode="&#xad;" horiz-adv-x="327" d="M282 260h-231l12 62h231z" />
<glyph unicode="&#xae;" horiz-adv-x="551" d="M375 589q0 21 -30 21h-25l-13 -66h15q26 0 39.5 13.5t13.5 31.5zM421 596q0 -32 -21 -52t-51 -26q3 -5 7.5 -13.5t8.5 -17.5l31 -72h-50l-39 98h-6l-19 -98h-42l43 230h70q36 0 52 -13t16 -36zM488 536q0 31 -11.5 59.5t-31.5 50.5t-47.5 34.5t-58.5 12.5q-33 0 -63 -13 t-53.5 -36t-37 -54.5t-13.5 -67.5q0 -32 11.5 -61t31.5 -51t47.5 -34.5t59.5 -12.5q33 0 63 13t53 36.5t36.5 55t13.5 68.5zM542 539q0 -48 -18.5 -89t-49.5 -71.5t-71.5 -47.5t-83.5 -17t-80 15.5t-64 42.5t-42 64t-15 79q0 49 18.5 90.5t49.5 72t71 47.5t84 17 q43 0 79.5 -15.5t63.5 -42.5t42.5 -64t15.5 -81z" />
<glyph unicode="&#xaf;" horiz-adv-x="387" d="M387 623h-240l10 57h240z" />
<glyph unicode="&#x2c9;" horiz-adv-x="387" d="M387 623h-240l10 57h240z" />
<glyph unicode="&#xb0;" horiz-adv-x="364" d="M323 617q0 10 -3 22t-10 22t-19 16.5t-30 6.5q-29 0 -49 -20.5t-20 -55.5q0 -31 16.5 -49.5t46.5 -18.5q29 0 48.5 21t19.5 56zM384 622q0 -33 -11.5 -57.5t-30.5 -41t-43.5 -25t-49.5 -8.5q-57 0 -87.5 31.5t-30.5 81.5q0 32 11.5 56.5t30.5 41t43 25t49 8.5 q60 0 89.5 -32t29.5 -80z" />
<glyph unicode="&#xb1;" d="M459 0h-461l12 63h461zM523 331h-196l-38 -201h-71l38 201h-196l11 63h196l39 200h71l-39 -200h197z" />
<glyph unicode="&#xb2;" horiz-adv-x="309" d="M308 583q0 -35 -18.5 -63.5t-62.5 -61.5l-61 -46h123l-11 -55h-210l9 45l92 72q41 32 55.5 52.5t14.5 43.5q0 15 -10 25t-32 10q-13 0 -30 -5t-30 -14l-16 48q22 11 46 17.5t47 6.5q48 0 71 -21.5t23 -53.5z" />
<glyph unicode="&#xb3;" horiz-adv-x="613" d="M296 594q0 -59 -59 -84q23 -3 33.5 -17.5t10.5 -35.5q0 -46 -39 -76.5t-110 -30.5q-16 0 -32.5 2t-27.5 5l14 49q11 -3 24.5 -5.5t24.5 -2.5q40 0 59 15t19 41q0 19 -21 27.5t-75 1.5l8 44h21q47 0 66 16.5t19 38.5q0 11 -9 20t-31 9q-16 0 -30 -3.5t-26 -8.5l-10 43 q18 8 40 12t43 4q47 0 67.5 -19t20.5 -45z" />
<glyph unicode="&#xb4;" horiz-adv-x="379" d="M173 575l-31 41l144 124l39 -52z" />
<glyph unicode="&#xb5;" horiz-adv-x="614" d="M559 66q-20 -35 -47.5 -55t-62.5 -20q-68 0 -68 69q0 18 3.5 37t13.5 49l-2 1q-9 -24 -30.5 -51t-49 -50t-60 -38.5t-64.5 -15.5q-20 0 -40.5 8t-34.5 25l-41 -274h-79l143 746h73l-61 -320q-12 -63 5 -93t49 -30q27 0 60 20.5t64.5 58.5t57 91.5t37.5 120.5l29 152h73 l-68 -358q-5 -25 -6 -41t1.5 -25.5t8.5 -13t14 -3.5q15 0 27 10.5t22 27.5l33 -28v0z" />
<glyph unicode="&#x3bc;" horiz-adv-x="614" d="M559 66q-20 -35 -47.5 -55t-62.5 -20q-68 0 -68 69q0 18 3.5 37t13.5 49l-2 1q-9 -24 -30.5 -51t-49 -50t-60 -38.5t-64.5 -15.5q-20 0 -40.5 8t-34.5 25l-41 -274h-79l143 746h73l-61 -320q-12 -63 5 -93t49 -30q27 0 60 20.5t64.5 58.5t57 91.5t37.5 120.5l29 152h73 l-68 -358q-5 -25 -6 -41t1.5 -25.5t8.5 -13t14 -3.5q15 0 27 10.5t22 27.5l33 -28v0z" />
<glyph unicode="&#xb6;" horiz-adv-x="558" d="M284 254q-46 0 -79.5 12t-55 34t-32 52.5t-10.5 66.5q0 45 17 91t49.5 82.5t80.5 59.5t110 23zM567 618h-72l-136 -714h-141l10 57h73l136 714h139z" />
<glyph unicode="&#xb7;" horiz-adv-x="220" d="M178 299q0 -25 -18.5 -42t-41.5 -17t-38.5 16t-15.5 39q0 25 18 42t41 17t39 -16t16 -39z" />
<glyph unicode="&#x2219;" horiz-adv-x="220" d="M178 299q0 -25 -18.5 -42t-41.5 -17t-38.5 16t-15.5 39q0 25 18 42t41 17t39 -16t16 -39z" />
<glyph unicode="&#xb8;" horiz-adv-x="392" d="M198 -41q30 -49 16 -96t-61 -98h-68q47 50 60 87.5t-14 80.5l67 26v0z" />
<glyph unicode="&#xb9;" horiz-adv-x="299" d="M218 357h-64l44 236l-77 -34l-5 50l100 41h57z" />
<glyph unicode="&#xba;" horiz-adv-x="409" d="M341 556q0 27 -13.5 48.5t-50.5 21.5q-31 0 -52.5 -15.5t-34.5 -38.5t-19 -50t-6 -49q0 -33 14.5 -51.5t46.5 -18.5q25 0 46.5 12t36.5 32.5t23.5 48.5t8.5 60zM332 225h-267l12 60h267zM411 565q0 -55 -17 -96.5t-44.5 -69t-62.5 -41.5t-71 -14q-59 0 -90 28t-31 88 q0 44 13 84.5t37.5 71t59.5 49t79 18.5q68 0 97.5 -32.5t29.5 -85.5z" />
<glyph unicode="&#xbb;" horiz-adv-x="483" d="M114 122l-51 34l128 140l-82 142l60 31l98 -176zM304 121l-52 34l121 141l-75 143l61 32l90 -178z" />
<glyph unicode="&#xbc;" horiz-adv-x="686" d="M406 107h84l27 140zM592 58h-52l-11 -58h-59l11 58h-143l5 45l150 190h92l-36 -186h53zM53 -20l-42 37l610 651l43 -37zM218 357h-64l44 236l-77 -34l-5 50l100 41h57z" />
<glyph unicode="&#xbd;" horiz-adv-x="691" d="M218 357h-64l44 236l-77 -34l-5 50l100 41h57zM53 -20l-42 37l610 651l43 -37zM608 225q0 -35 -18.5 -63.5t-62.5 -60.5l-61 -47h124l-11 -54h-211l9 44l92 73q40 31 55 52t15 43q0 15 -10 25.5t-32 10.5q-13 0 -29.5 -5.5t-29.5 -14.5l-16 49q21 11 45 17t48 6 q48 0 70.5 -21.5t22.5 -53.5z" />
<glyph unicode="&#xbe;" horiz-adv-x="686" d="M297 594q0 -59 -59 -84q23 -3 33.5 -17.5t10.5 -35.5q0 -46 -39 -76.5t-110 -30.5q-16 0 -32.5 2t-27.5 5l14 49q11 -3 24.5 -5.5t25.5 -2.5q39 0 58 15t19 41q0 19 -21 27.5t-75 1.5l8 44h21q47 0 66 16.5t19 38.5q0 11 -9 20t-31 9q-16 0 -30 -3.5t-26 -8.5l-10 43 q18 8 40 12t43 4q47 0 67.5 -19t20.5 -45zM52 -20l-41 37l609 651l43 -37zM593 58h-52l-11 -58h-60l12 58h-144l6 45l150 190h92l-36 -186h53zM406 107h85l27 140z" />
<glyph unicode="&#xbf;" horiz-adv-x="435" d="M303 337q7 -53 -5 -91.5t-34 -68.5t-49.5 -53l-52 -45t-41.5 -46.5t-17 -55.5q0 -23 12.5 -42.5t35 -35t53.5 -26t68 -14.5l-22 -69q-56 6 -98.5 22t-71.5 40t-44 54t-15 63q0 41 17 71t42.5 54.5t54.5 47.5t52 50t35.5 61.5t6.5 83.5h73v0zM340 454q0 -23 -15 -38.5 t-38 -15.5t-37.5 15t-14.5 36q0 23 15.5 38.5t38.5 15.5t37 -15t14 -36z" />
<glyph unicode="&#xc0;" horiz-adv-x="601" d="M377 497q-4 23 -7 47t-5 46h-1l-21 -44t-24 -47l-149 -272h253zM459 0l-26 166h-295l-90 -166h-82l375 675h81l118 -675h-81zM424 729l-182 57l29 61l172 -74z" />
<glyph unicode="&#xc1;" horiz-adv-x="601" d="M377 497q-4 23 -7 47t-5 46h-1l-21 -44t-24 -47l-149 -272h253zM459 0l-26 166h-295l-90 -166h-82l375 675h81l118 -675h-81zM334 729l-13 44l181 74l17 -61z" />
<glyph unicode="&#xc2;" horiz-adv-x="601" d="M377 497q-4 23 -7 47t-5 46h-1l-21 -44t-24 -47l-149 -272h253zM459 0l-26 166h-295l-90 -166h-82l375 675h81l118 -675h-81zM512 727l-120 64l-140 -64l-19 43l165 84l141 -81z" />
<glyph unicode="&#xc3;" horiz-adv-x="601" d="M377 497q-4 23 -7 47t-5 46h-1l-21 -44t-24 -47l-149 -272h253zM459 0l-26 166h-295l-90 -166h-82l375 675h81l118 -675h-81zM561 808q-20 -34 -48 -52t-60 -18q-25 0 -42 8.5t-31 18.5l-27 18.5t-29 8.5q-35 0 -66 -46l-37 29q40 70 107 70q25 0 42 -8.5t31 -18.5 l26.5 -18.5t29.5 -8.5q34 0 66 46l38 -29v0z" />
<glyph unicode="&#xc4;" horiz-adv-x="601" d="M377 497q-4 23 -7 47t-5 46h-1l-21 -44t-24 -47l-149 -272h253zM459 0l-26 166h-295l-90 -166h-82l375 675h81l118 -675h-81zM333 781q0 -20 -13.5 -34t-32.5 -14q-20 0 -32 13t-12 32q0 20 13.5 33.5t32.5 13.5q20 0 32 -13t12 -31zM542 781q0 -20 -13.5 -34t-33.5 -14 q-19 0 -31.5 13t-12.5 32q0 20 13.5 33.5t33.5 13.5q19 0 31.5 -13t12.5 -31z" />
<glyph unicode="&#xc5;" horiz-adv-x="601" d="M377 493q-4 23 -7 48t-5 48h-1l-22.5 -46t-25.5 -49l-146 -267h253zM445 738q0 23 -15 39t-38 16q-24 0 -42 -18t-18 -44q0 -23 15 -39.5t38 -16.5t41.5 18t18.5 45zM459 0l-26 166h-295l-90 -166h-82l359 648q-20 11 -32 31.5t-12 47.5q0 25 9.5 45.5t25.5 35.5t36.5 23 t42.5 8q44 0 72 -28t28 -70q0 -34 -19 -60.5t-48 -38.5l112 -642h-81z" />
<glyph unicode="&#xc6;" horiz-adv-x="755" d="M424 611l-37 -57.5t-55 -79.5l-177 -245h199l73 382h-3zM753 613h-252l-45 -234h243l-12 -62h-243l-49 -253h263l-12 -64h-336l32 168h-228l-120 -168h-85l486 675h369z" />
<glyph unicode="&#xc7;" horiz-adv-x="567" d="M572 592q-72 25 -145 25q-77 0 -131.5 -34t-89.5 -88t-51.5 -122.5t-16.5 -137.5q0 -38 8.5 -70.5t29 -55.5t55 -36t86.5 -13q43 0 84.5 9.5t76.5 25.5l5 -66q-42 -17 -91 -26.5t-97 -9.5q-71 0 -117 19t-73.5 50.5t-38.5 73t-11 87.5q0 90 24.5 173t73.5 146.5 t120.5 101.5t166.5 38q44 0 81.5 -5.5t71.5 -15.5zM295 -41q30 -49 16 -96t-61 -98h-68q47 50 60 87.5t-14 80.5l67 26v0z" />
<glyph unicode="&#xc8;" horiz-adv-x="494" d="M492 613h-257l-45 -234h246l-12 -62h-245l-48 -253h257l-12 -64h-332l128 675h332zM391 729l-182 57l29 61l172 -74z" />
<glyph unicode="&#xc9;" horiz-adv-x="494" d="M492 613h-257l-45 -234h246l-12 -62h-245l-48 -253h257l-12 -64h-332l128 675h332zM292 729l-13 44l181 74l17 -61z" />
<glyph unicode="&#xca;" horiz-adv-x="494" d="M492 613h-257l-45 -234h246l-12 -62h-245l-48 -253h257l-12 -64h-332l128 675h332zM474 727l-120 64l-140 -64l-19 43l165 84l141 -81z" />
<glyph unicode="&#xcb;" horiz-adv-x="494" d="M492 613h-257l-45 -234h246l-12 -62h-245l-48 -253h257l-12 -64h-332l128 675h332zM291 781q0 -20 -13.5 -34t-32.5 -14q-20 0 -32 13t-12 32q0 20 13.5 33.5t32.5 13.5q20 0 32 -13t12 -31zM500 781q0 -20 -13.5 -34t-33.5 -14q-19 0 -31.5 13t-12.5 32q0 20 13.5 33.5 t33.5 13.5q19 0 31.5 -13t12.5 -31z" />
<glyph unicode="&#xcc;" horiz-adv-x="254" d="M119 0h-75l128 675h75zM255 729l-182 57l29 61l172 -74z" />
<glyph unicode="&#xcd;" horiz-adv-x="254" d="M119 0h-75l128 675h75zM169 729l-13 44l181 74l17 -61z" />
<glyph unicode="&#xce;" horiz-adv-x="254" d="M119 0h-75l128 675h75zM350 727l-120 64l-140 -64l-19 43l165 84l141 -81z" />
<glyph unicode="&#xcf;" horiz-adv-x="254" d="M119 0h-75l128 675h75zM164 781q0 -20 -13.5 -34t-32.5 -14q-20 0 -32 13t-12 32q0 20 13.5 33.5t32.5 13.5q20 0 32 -13t12 -31zM373 781q0 -20 -13.5 -34t-33.5 -14q-19 0 -31.5 13t-12.5 32q0 20 13.5 33.5t33.5 13.5q19 0 31.5 -13t12.5 -31z" />
<glyph unicode="&#xd0;" horiz-adv-x="680" d="M580 424q0 41 -11 76.5t-36.5 61t-68.5 40t-107 14.5q-31 0 -61.5 -1t-50.5 -2l-45 -236h147l-11 -58h-147l-48 -252q20 -3 45.5 -5t42.5 -2q94 0 160.5 32.5t109 84.5t62 117t19.5 130zM659 433q0 -83 -26 -161.5t-80.5 -139.5t-137.5 -98t-197 -37q-54 0 -92 1.5 t-72 1.5l60 319h-103l11 58h103l57 298q38 0 88 1.5t98 1.5q81 0 136.5 -18.5t90 -51t49.5 -77.5t15 -98z" />
<glyph unicode="&#xd1;" horiz-adv-x="686" d="M551 0h-87l-190 443q-16 37 -29.5 73t-23.5 69q-9 -64 -21 -136t-25 -139l-57 -310h-75l128 675h89l188 -437q15 -35 28.5 -72l25.5 -72l21.5 125l22.5 133l59 323h75zM613 808q-20 -34 -48 -52t-60 -18q-25 0 -42 8.5t-31 18.5l-27 18.5t-29 8.5q-35 0 -66 -46l-37 29 q40 70 107 70q25 0 42 -8.5t31 -18.5l26.5 -18.5t29.5 -8.5q34 0 66 46l38 -29v0z" />
<glyph unicode="&#xd2;" horiz-adv-x="691" d="M594 431q0 86 -42 136.5t-129 50.5q-63 0 -116 -29.5t-91.5 -80.5t-60 -118.5t-21.5 -143.5q0 -87 42.5 -137.5t123.5 -50.5q60 0 113.5 28.5t93.5 79t63.5 118.5t23.5 147zM676 440q0 -96 -30 -178.5t-82.5 -142.5t-123 -94t-150.5 -34q-121 0 -179.5 64t-58.5 181 q0 92 29 173.5t80.5 142.5t121.5 96.5t152 35.5q117 0 179 -63.5t62 -180.5zM482 729l-182 57l29 61l172 -74z" />
<glyph unicode="&#xd3;" horiz-adv-x="691" d="M594 431q0 86 -42 136.5t-129 50.5q-63 0 -116 -29.5t-91.5 -80.5t-60 -118.5t-21.5 -143.5q0 -87 42.5 -137.5t123.5 -50.5q60 0 113.5 28.5t93.5 79t63.5 118.5t23.5 147zM676 440q0 -96 -30 -178.5t-82.5 -142.5t-123 -94t-150.5 -34q-121 0 -179.5 64t-58.5 181 q0 92 29 173.5t80.5 142.5t121.5 96.5t152 35.5q117 0 179 -63.5t62 -180.5zM397 729l-13 44l181 74l17 -61z" />
<glyph unicode="&#xd4;" horiz-adv-x="691" d="M594 431q0 86 -42 136.5t-129 50.5q-63 0 -116 -29.5t-91.5 -80.5t-60 -118.5t-21.5 -143.5q0 -87 42.5 -137.5t123.5 -50.5q60 0 113.5 28.5t93.5 79t63.5 118.5t23.5 147zM676 440q0 -96 -30 -178.5t-82.5 -142.5t-123 -94t-150.5 -34q-121 0 -179.5 64t-58.5 181 q0 92 29 173.5t80.5 142.5t121.5 96.5t152 35.5q117 0 179 -63.5t62 -180.5zM568 727l-120 64l-140 -64l-19 43l165 84l141 -81z" />
<glyph unicode="&#xd5;" horiz-adv-x="691" d="M594 431q0 86 -42 136.5t-129 50.5q-63 0 -116 -29.5t-91.5 -80.5t-60 -118.5t-21.5 -143.5q0 -87 42.5 -137.5t123.5 -50.5q60 0 113.5 28.5t93.5 79t63.5 118.5t23.5 147zM676 440q0 -96 -30 -178.5t-82.5 -142.5t-123 -94t-150.5 -34q-121 0 -179.5 64t-58.5 181 q0 92 29 173.5t80.5 142.5t121.5 96.5t152 35.5q117 0 179 -63.5t62 -180.5zM619 808q-20 -34 -48 -52t-60 -18q-25 0 -42 8.5t-31 18.5l-27 18.5t-29 8.5q-35 0 -66 -46l-37 29q40 70 107 70q25 0 42 -8.5t31 -18.5l26.5 -18.5t29.5 -8.5q34 0 66 46l38 -29v0z" />
<glyph unicode="&#xd6;" horiz-adv-x="691" d="M594 431q0 86 -42 136.5t-129 50.5q-63 0 -116 -29.5t-91.5 -80.5t-60 -118.5t-21.5 -143.5q0 -87 42.5 -137.5t123.5 -50.5q60 0 113.5 28.5t93.5 79t63.5 118.5t23.5 147zM676 440q0 -96 -30 -178.5t-82.5 -142.5t-123 -94t-150.5 -34q-121 0 -179.5 64t-58.5 181 q0 92 29 173.5t80.5 142.5t121.5 96.5t152 35.5q117 0 179 -63.5t62 -180.5zM395 781q0 -20 -13.5 -34t-32.5 -14q-20 0 -32 13t-12 32q0 20 13.5 33.5t32.5 13.5q20 0 32 -13t12 -31zM604 781q0 -20 -13.5 -34t-33.5 -14q-19 0 -31.5 13t-12.5 32q0 20 13.5 33.5t33.5 13.5 q19 0 31.5 -13t12.5 -31z" />
<glyph unicode="&#xd7;" d="M329 295l140 -174l-50 -41l-140 174l-206 -174l-38 46l207 174l-141 173l50 41l141 -173l205 173l38 -46z" />
<glyph unicode="&#xd8;" horiz-adv-x="691" d="M476 612q-27 6 -63 6q-60 -2 -111.5 -32.5t-89 -81t-58.5 -117t-21 -141.5q0 -50 13.5 -88t44.5 -61l285 515v0zM595 432q0 53 -16 92t-49 62l-288 -519q15 -5 32.5 -7t36.5 -1q58 3 109.5 32t90.5 79t61.5 117t22.5 145zM676 440q0 -96 -30 -178.5t-82.5 -142.5 t-123 -94t-150.5 -34q-45 0 -84 11l-55 -101l-54 24l54 99q-99 58 -99 212q0 92 29 173.5t80.5 142.5t121.5 96.5t152 35.5q41 0 76 -9l52 94l54 -24l-50 -91q54 -28 81.5 -82t27.5 -132z" />
<glyph unicode="&#xd9;" horiz-adv-x="682" d="M594 247q-26 -132 -102 -194t-203 -62q-73 0 -117.5 18.5t-67 51t-25.5 76t6 93.5l85 445h75l-85 -446q-8 -43 -5.5 -75.5t18.5 -54.5t47 -33.5t80 -11.5q45 0 81.5 10.5t64 34.5t46 62.5t29.5 94.5l80 419h74zM478 729l-182 57l29 61l172 -74z" />
<glyph unicode="&#xda;" horiz-adv-x="682" d="M594 247q-26 -132 -102 -194t-203 -62q-73 0 -117.5 18.5t-67 51t-25.5 76t6 93.5l85 445h75l-85 -446q-8 -43 -5.5 -75.5t18.5 -54.5t47 -33.5t80 -11.5q45 0 81.5 10.5t64 34.5t46 62.5t29.5 94.5l80 419h74zM389 729l-13 44l181 74l17 -61z" />
<glyph unicode="&#xdb;" horiz-adv-x="682" d="M594 247q-26 -132 -102 -194t-203 -62q-73 0 -117.5 18.5t-67 51t-25.5 76t6 93.5l85 445h75l-85 -446q-8 -43 -5.5 -75.5t18.5 -54.5t47 -33.5t80 -11.5q45 0 81.5 10.5t64 34.5t46 62.5t29.5 94.5l80 419h74zM554 727l-120 64l-140 -64l-19 43l165 84l141 -81z" />
<glyph unicode="&#xdc;" horiz-adv-x="682" d="M594 247q-26 -132 -102 -194t-203 -62q-73 0 -117.5 18.5t-67 51t-25.5 76t6 93.5l85 445h75l-85 -446q-8 -43 -5.5 -75.5t18.5 -54.5t47 -33.5t80 -11.5q45 0 81.5 10.5t64 34.5t46 62.5t29.5 94.5l80 419h74zM377 781q0 -20 -13.5 -34t-32.5 -14q-20 0 -32 13t-12 32 q0 20 13.5 33.5t32.5 13.5q20 0 32 -13t12 -31zM586 781q0 -20 -13.5 -34t-33.5 -14q-19 0 -31.5 13t-12.5 32q0 20 13.5 33.5t33.5 13.5q19 0 31.5 -13t12.5 -31z" />
<glyph unicode="&#xdd;" horiz-adv-x="516" d="M293 245l-46 -245h-75l46 244l-124 431h78l66 -241q9 -30 16 -60t13 -59h2q17 31 38.5 64l43.5 67l150 229h85zM310 729l-13 44l181 74l17 -61z" />
<glyph unicode="&#xde;" horiz-adv-x="511" d="M443 395q0 53 -34.5 83.5t-113.5 30.5q-15 0 -39.5 -1t-42.5 -4l-56 -298q16 -2 32.5 -3t36.5 -1q53 0 93.5 16t68 42.5t41.5 61.5t14 73zM523 408q0 -52 -21 -100.5t-60.5 -86t-98 -60t-133.5 -22.5q-37 0 -65 3l-27 -142h-75l128 675h75l-19 -105q21 1 44 1.5t47 0.5 q53 0 92 -12.5t64 -34t37 -51.5t12 -66z" />
<glyph unicode="&#xdf;" horiz-adv-x="559" d="M530 623q0 -38 -12.5 -63.5t-31.5 -43.5t-41.5 -31.5t-41.5 -28t-31.5 -32.5t-12.5 -45q0 -33 20 -57.5t43.5 -48.5t43.5 -52t20 -70q0 -33 -14.5 -62.5t-40.5 -51t-63.5 -34t-83.5 -12.5q-27 0 -45 2t-37 5l14 69q20 -6 37.5 -9.5t39.5 -3.5q55 0 85 23.5t30 64.5 q0 33 -19.5 57t-43 47.5t-43 51.5t-19.5 70q0 35 12.5 59.5t31.5 42.5t41 32t41 29t31.5 34t12.5 47t-20 45.5t-60 17.5q-60 0 -101 -38.5t-58 -129.5l-102 -537q-12 -65 -32 -109t-48 -70t-63.5 -37t-80.5 -11q-17 0 -35.5 2t-35.5 6l17 64q31 -9 67 -9q28 0 49.5 7 t38 25.5t28.5 50t21 80.5l101 533q23 123 85 178t160 55q70 0 108 -31.5t38 -80.5z" />
<glyph unicode="&#xe0;" horiz-adv-x="536" d="M411 435q-16 4 -35 7t-42 3q-60 0 -102 -27t-68.5 -69.5t-38.5 -94.5t-12 -101q0 -54 15 -76.5t41 -22.5q39 0 77 35t70 87t55 110.5t32 105.5l8 43v0zM495 490l-35.5 -185.5l-24.5 -128l-17.5 -93.5l-15.5 -83h-75q7 34 22.5 88t39.5 131l-2 1q-13 -29 -34 -68.5 t-51 -75.5t-69 -61t-87 -25q-53 0 -81 36t-28 114q0 68 18 133.5t55.5 116.5t96.5 82.5t140 31.5q42 0 78.5 -4t69.5 -10zM373 575l-123 119l50 46l113 -128z" />
<glyph unicode="&#xe1;" horiz-adv-x="536" d="M411 435q-16 4 -35 7t-42 3q-60 0 -102 -27t-68.5 -69.5t-38.5 -94.5t-12 -101q0 -54 15 -76.5t41 -22.5q39 0 77 35t70 87t55 110.5t32 105.5l8 43v0zM495 490l-35.5 -185.5l-24.5 -128l-17.5 -93.5l-15.5 -83h-75q7 34 22.5 88t39.5 131l-2 1q-13 -29 -34 -68.5 t-51 -75.5t-69 -61t-87 -25q-53 0 -81 36t-28 114q0 68 18 133.5t55.5 116.5t96.5 82.5t140 31.5q42 0 78.5 -4t69.5 -10zM347 575l-31 41l144 124l39 -52z" />
<glyph unicode="&#xe2;" horiz-adv-x="536" d="M411 435q-16 4 -35 7t-42 3q-60 0 -102 -27t-68.5 -69.5t-38.5 -94.5t-12 -101q0 -54 15 -76.5t41 -22.5q39 0 77 35t70 87t55 110.5t32 105.5l8 43v0zM495 490l-35.5 -185.5l-24.5 -128l-17.5 -93.5l-15.5 -83h-75q7 34 22.5 88t39.5 131l-2 1q-13 -29 -34 -68.5 t-51 -75.5t-69 -61t-87 -25q-53 0 -81 36t-28 114q0 68 18 133.5t55.5 116.5t96.5 82.5t140 31.5q42 0 78.5 -4t69.5 -10zM452 575l-82 86l-111 -86l-30 35l152 130l109 -128z" />
<glyph unicode="&#xe3;" horiz-adv-x="536" d="M411 435q-16 4 -35 7t-42 3q-60 0 -102 -27t-68.5 -69.5t-38.5 -94.5t-12 -101q0 -54 15 -76.5t41 -22.5q39 0 77 35t70 87t55 110.5t32 105.5l8 43v0zM495 490l-35.5 -185.5l-24.5 -128l-17.5 -93.5l-15.5 -83h-75q7 34 22.5 88t39.5 131l-2 1q-13 -29 -34 -68.5 t-51 -75.5t-69 -61t-87 -25q-53 0 -81 36t-28 114q0 68 18 133.5t55.5 116.5t96.5 82.5t140 31.5q42 0 78.5 -4t69.5 -10zM522 673q-20 -35 -47.5 -54t-59.5 -19q-24 0 -40 8.5t-29 19l-25 19.5t-28 9q-33 0 -63 -47l-38 31q20 35 46.5 54t58.5 19q24 0 40 -9t29.5 -19.5 t26.5 -19t29 -8.5q32 0 62 47l38 -31v0z" />
<glyph unicode="&#xe4;" horiz-adv-x="536" d="M411 435q-16 4 -35 7t-42 3q-60 0 -102 -27t-68.5 -69.5t-38.5 -94.5t-12 -101q0 -54 15 -76.5t41 -22.5q39 0 77 35t70 87t55 110.5t32 105.5l8 43v0zM495 490l-35.5 -185.5l-24.5 -128l-17.5 -93.5l-15.5 -83h-75q7 34 22.5 88t39.5 131l-2 1q-13 -29 -34 -68.5 t-51 -75.5t-69 -61t-87 -25q-53 0 -81 36t-28 114q0 68 18 133.5t55.5 116.5t96.5 82.5t140 31.5q42 0 78.5 -4t69.5 -10zM305 659q0 -22 -14.5 -36t-34.5 -14t-33.5 13.5t-13.5 32.5q0 21 15 35t35 14t33 -13.5t13 -31.5zM493 659q0 -22 -14.5 -36t-34.5 -14t-33.5 13.5 t-13.5 32.5q0 21 15 35t35 14t33 -13.5t13 -31.5z" />
<glyph unicode="&#xe5;" horiz-adv-x="536" d="M411 435q-16 4 -35 7t-42 3q-60 0 -102 -27t-68.5 -69.5t-38.5 -94.5t-12 -101q0 -54 15 -76.5t41 -22.5q39 0 77 35t70 87t55 110.5t32 105.5l8 43v0zM495 490l-35.5 -185.5l-24.5 -128l-17.5 -93.5l-15.5 -83h-75q7 34 22.5 88t39.5 131l-2 1q-13 -29 -34 -68.5 t-51 -75.5t-69 -61t-87 -25q-53 0 -81 36t-28 114q0 68 18 133.5t55.5 116.5t96.5 82.5t140 31.5q42 0 78.5 -4t69.5 -10zM433 665q0 23 -15 39t-38 16q-24 0 -42 -18t-18 -45q0 -23 15 -39t38 -16t41.5 18t18.5 45zM483 668q0 -24 -9.5 -44.5t-25.5 -35.5t-36 -23.5 t-42 -8.5q-43 0 -72 27.5t-29 70.5q0 25 9.5 45.5t25.5 35.5t36.5 23t42.5 8q44 0 72 -28t28 -70z" />
<glyph unicode="&#xe6;" horiz-adv-x="763" d="M338 225q-53 -3 -97 -9.5t-76.5 -19.5t-50.5 -33.5t-18 -52.5q0 -26 18 -42t46 -16q33 0 62.5 14t53 38t39.5 55t23 66zM664 387q0 30 -20.5 46t-53.5 16q-32 0 -58 -13t-47 -35t-36 -52t-24 -64q53 3 97 9t75.5 17t49 29.5t17.5 46.5zM740 396q0 -34 -14.5 -62.5 t-51.5 -50.5t-100.5 -36.5t-161.5 -20.5q-2 -12 -3.5 -31t-1.5 -35q0 -32 6 -52.5t19.5 -32.5t35 -17t53.5 -5q35 0 71 8t68 22v-62q-34 -14 -75.5 -22t-90.5 -8q-40 0 -67.5 9t-45 24.5t-27 37t-14.5 46.5q-12 -22 -32 -43t-45.5 -37.5t-56.5 -26.5t-64 -10 q-63 0 -92.5 28.5t-29.5 73.5q0 53 26 87.5t70.5 55.5t104.5 31t128 15l7 35q13 63 -5 96t-82 33q-34 0 -76 -11.5t-76 -31.5v67q38 16 80.5 26t84.5 10q37 0 62.5 -7t41.5 -18t24.5 -26.5t13.5 -31.5q13 15 31 30t40.5 27t48.5 19t55 7q37 0 63.5 -9t44 -24t25.5 -35t8 -42 z" />
<glyph unicode="&#xe7;" horiz-adv-x="415" d="M411 423q-21 10 -44.5 15.5t-52.5 5.5q-50 0 -87 -25.5t-61.5 -65.5t-36.5 -88.5t-12 -93.5q0 -21 4 -41t15.5 -36t33 -26t56.5 -10q32 0 62.5 7t54.5 18l3 -62q-27 -11 -63.5 -19.5t-75.5 -8.5q-48 0 -80.5 12.5t-52.5 34t-28.5 51t-8.5 63.5q0 71 19 134.5t55.5 111.5 t89 76t119.5 28q32 0 58 -4t50 -12zM198 -41q30 -49 16 -96t-61 -98h-68q47 50 60 87.5t-14 80.5l67 26v0z" />
<glyph unicode="&#xe8;" horiz-adv-x="473" d="M373 387q0 30 -20 45.5t-53 15.5q-32 0 -58.5 -13t-47.5 -35t-36 -52t-24 -64q126 5 182.5 30.5t56.5 72.5zM449 396q0 -77 -80 -120.5t-246 -50.5q-2 -12 -4 -31t-2 -34q0 -32 6 -52.5t19.5 -32.5t35 -17t53.5 -5q35 0 70.5 7.5t65.5 21.5l5 -60q-74 -31 -168 -31 q-82 0 -123 36.5t-41 122.5q0 70 18.5 134.5t53 113.5t84.5 78.5t113 29.5q37 0 63.5 -9t43.5 -24t25 -35t8 -42zM345 575l-123 119l50 46l113 -128z" />
<glyph unicode="&#xe9;" horiz-adv-x="473" d="M373 387q0 30 -20 45.5t-53 15.5q-32 0 -58.5 -13t-47.5 -35t-36 -52t-24 -64q126 5 182.5 30.5t56.5 72.5zM449 396q0 -77 -80 -120.5t-246 -50.5q-2 -12 -4 -31t-2 -34q0 -32 6 -52.5t19.5 -32.5t35 -17t53.5 -5q35 0 70.5 7.5t65.5 21.5l5 -60q-74 -31 -168 -31 q-82 0 -123 36.5t-41 122.5q0 70 18.5 134.5t53 113.5t84.5 78.5t113 29.5q37 0 63.5 -9t43.5 -24t25 -35t8 -42zM306 575l-31 41l144 124l39 -52z" />
<glyph unicode="&#xea;" horiz-adv-x="473" d="M373 387q0 30 -20 45.5t-53 15.5q-32 0 -58.5 -13t-47.5 -35t-36 -52t-24 -64q126 5 182.5 30.5t56.5 72.5zM449 396q0 -77 -80 -120.5t-246 -50.5q-2 -12 -4 -31t-2 -34q0 -32 6 -52.5t19.5 -32.5t35 -17t53.5 -5q35 0 70.5 7.5t65.5 21.5l5 -60q-74 -31 -168 -31 q-82 0 -123 36.5t-41 122.5q0 70 18.5 134.5t53 113.5t84.5 78.5t113 29.5q37 0 63.5 -9t43.5 -24t25 -35t8 -42zM415 575l-82 86l-111 -86l-30 35l152 130l109 -128z" />
<glyph unicode="&#xeb;" horiz-adv-x="473" d="M373 387q0 30 -20 45.5t-53 15.5q-32 0 -58.5 -13t-47.5 -35t-36 -52t-24 -64q126 5 182.5 30.5t56.5 72.5zM449 396q0 -77 -80 -120.5t-246 -50.5q-2 -12 -4 -31t-2 -34q0 -32 6 -52.5t19.5 -32.5t35 -17t53.5 -5q35 0 70.5 7.5t65.5 21.5l5 -60q-74 -31 -168 -31 q-82 0 -123 36.5t-41 122.5q0 70 18.5 134.5t53 113.5t84.5 78.5t113 29.5q37 0 63.5 -9t43.5 -24t25 -35t8 -42zM291 659q0 -22 -14.5 -36t-34.5 -14t-33.5 13.5t-13.5 32.5q0 21 15 35t35 14t33 -13.5t13 -31.5zM479 659q0 -22 -14.5 -36t-34.5 -14t-33.5 13.5t-13.5 32.5 q0 21 15 35t35 14t33 -13.5t13 -31.5z" />
<glyph unicode="&#xec;" horiz-adv-x="251" d="M116 0h-73l95 497h73zM216 575l-123 119l50 46l113 -128z" />
<glyph unicode="&#xed;" horiz-adv-x="251" d="M116 0h-73l95 497h73zM151 575l-31 41l144 124l39 -52z" />
<glyph unicode="&#xee;" horiz-adv-x="251" d="M116 0h-73l95 497h73zM286 575l-82 86l-111 -86l-30 35l152 130l109 -128z" />
<glyph unicode="&#xef;" horiz-adv-x="251" d="M116 0h-73l95 497h73zM158 659q0 -22 -14.5 -36t-34.5 -14t-33.5 13.5t-13.5 32.5q0 21 15 35t35 14t33 -13.5t13 -31.5zM346 659q0 -22 -14.5 -36t-34.5 -14t-33.5 13.5t-13.5 32.5q0 21 15 35t35 14t33 -13.5t13 -31.5z" />
<glyph unicode="&#xf0;" horiz-adv-x="532" d="M422 324q0 54 -28 87t-85 33q-46 0 -82.5 -22.5t-61.5 -59t-38.5 -82.5t-13.5 -92q0 -64 30 -98.5t85 -34.5q56 0 93 30t59.5 72.5t32 88.5t9.5 78zM425 630q39 -62 58 -129.5t19 -136.5q0 -74 -19 -141.5t-55.5 -119t-89 -82t-119.5 -30.5q-87 0 -135 44t-48 135 q0 64 19.5 124.5t55.5 107.5t88 75t117 28q37 0 67 -12t42 -39q-5 17 -11 32l-9 23q-12 27 -24 49.5t-26 42.5l-115 -48l-24 45l106 44q-14 17 -30 33t-35 33l74 34q35 -34 64 -70l113 47l24 -45z" />
<glyph unicode="&#xf1;" horiz-adv-x="565" d="M430 0h-74l62 320q12 64 0 93.5t-49 29.5q-26 0 -51.5 -16t-49.5 -43t-45.5 -62t-38.5 -72.5t-29.5 -75t-18.5 -68.5l-20 -106h-73l50 259q0 3 3.5 21.5l8.5 43.5t10 54t10 54.5t8 43.5t4 21h74q-5 -26 -17.5 -75t-41.5 -137l2 -1q18 42 42 82t54 71.5t65.5 50.5t75.5 19 q69 0 93.5 -45t9.5 -125zM517 673q-20 -35 -47.5 -54t-59.5 -19q-24 0 -40 8.5t-29 19l-25 19.5t-28 9q-33 0 -63 -47l-38 31q20 35 46.5 54t58.5 19q24 0 40 -9t29.5 -19.5t26.5 -19t29 -8.5q32 0 62 47l38 -31v0z" />
<glyph unicode="&#xf2;" horiz-adv-x="537" d="M425 320q0 60 -27.5 91.5t-85.5 31.5q-44 0 -80 -22t-62 -58.5t-40 -83.5t-14 -98q0 -62 26.5 -94t87.5 -32q38 0 73.5 19t62.5 54t43 84t16 108zM504 327q0 -77 -24 -139t-64 -106t-92 -67.5t-107 -23.5q-91 0 -134.5 45t-43.5 131q0 73 21.5 135t59.5 107.5t90 71 t113 25.5q94 0 137.5 -50t43.5 -129zM365 575l-123 119l50 46l113 -128z" />
<glyph unicode="&#xf3;" horiz-adv-x="537" d="M425 320q0 60 -27.5 91.5t-85.5 31.5q-44 0 -80 -22t-62 -58.5t-40 -83.5t-14 -98q0 -62 26.5 -94t87.5 -32q38 0 73.5 19t62.5 54t43 84t16 108zM504 327q0 -77 -24 -139t-64 -106t-92 -67.5t-107 -23.5q-91 0 -134.5 45t-43.5 131q0 73 21.5 135t59.5 107.5t90 71 t113 25.5q94 0 137.5 -50t43.5 -129zM326 575l-31 41l144 124l39 -52z" />
<glyph unicode="&#xf4;" horiz-adv-x="537" d="M425 320q0 60 -27.5 91.5t-85.5 31.5q-44 0 -80 -22t-62 -58.5t-40 -83.5t-14 -98q0 -62 26.5 -94t87.5 -32q38 0 73.5 19t62.5 54t43 84t16 108zM504 327q0 -77 -24 -139t-64 -106t-92 -67.5t-107 -23.5q-91 0 -134.5 45t-43.5 131q0 73 21.5 135t59.5 107.5t90 71 t113 25.5q94 0 137.5 -50t43.5 -129zM442 575l-82 86l-111 -86l-30 35l152 130l109 -128z" />
<glyph unicode="&#xf5;" horiz-adv-x="537" d="M425 320q0 60 -27.5 91.5t-85.5 31.5q-44 0 -80 -22t-62 -58.5t-40 -83.5t-14 -98q0 -62 26.5 -94t87.5 -32q38 0 73.5 19t62.5 54t43 84t16 108zM504 327q0 -77 -24 -139t-64 -106t-92 -67.5t-107 -23.5q-91 0 -134.5 45t-43.5 131q0 73 21.5 135t59.5 107.5t90 71 t113 25.5q94 0 137.5 -50t43.5 -129zM510 673q-20 -35 -47.5 -54t-59.5 -19q-24 0 -40 8.5t-29 19l-25 19.5t-28 9q-33 0 -63 -47l-38 31q20 35 46.5 54t58.5 19q24 0 40 -9t29.5 -19.5t26.5 -19t29 -8.5q32 0 62 47l38 -31v0z" />
<glyph unicode="&#xf6;" horiz-adv-x="537" d="M425 320q0 60 -27.5 91.5t-85.5 31.5q-44 0 -80 -22t-62 -58.5t-40 -83.5t-14 -98q0 -62 26.5 -94t87.5 -32q38 0 73.5 19t62.5 54t43 84t16 108zM504 327q0 -77 -24 -139t-64 -106t-92 -67.5t-107 -23.5q-91 0 -134.5 45t-43.5 131q0 73 21.5 135t59.5 107.5t90 71 t113 25.5q94 0 137.5 -50t43.5 -129zM305 659q0 -22 -14.5 -36t-34.5 -14t-33.5 13.5t-13.5 32.5q0 21 15 35t35 14t33 -13.5t13 -31.5zM493 659q0 -22 -14.5 -36t-34.5 -14t-33.5 13.5t-13.5 32.5q0 21 15 35t35 14t33 -13.5t13 -31.5z" />
<glyph unicode="&#xf7;" d="M296 96q0 -23 -15.5 -38.5t-37.5 -15.5q-23 0 -37.5 15.5t-14.5 37.5q0 23 15 38.5t38 15.5q22 0 37 -15.5t15 -37.5zM510 266h-463l12 63h464zM374 500q0 -23 -15 -38.5t-38 -15.5t-37.5 15t-14.5 37q0 23 15.5 38.5t37.5 15.5q23 0 37.5 -15.5t14.5 -36.5z" />
<glyph unicode="&#xf8;" horiz-adv-x="537" d="M340 442q-15 3 -34 3q-42 -1 -77.5 -23t-61 -58t-40 -83t-14.5 -98q0 -63 28 -94l199 353v0zM428 320q0 71 -41 100l-202 -360q23 -8 51 -7q38 1 72.5 21t61 55.5t42.5 84t16 106.5zM504 327q0 -77 -24 -139t-64 -106t-92 -67.5t-107 -23.5q-37 0 -65 9l-58 -102l-47 25 l55 98q-63 43 -63 146q0 72 20.5 133.5t58 107.5t90 72t115.5 26q27 0 51 -6l55 99l47 -24l-52 -92q42 -22 61 -62t19 -94z" />
<glyph unicode="&#xf9;" horiz-adv-x="564" d="M475 238q-1 -3 -4.5 -21.5l-8 -43.5l-10 -54l-10.5 -54.5l-8.5 -43.5t-3.5 -21h-74q5 26 17.5 75t41.5 137l-2 1q-18 -42 -42 -82t-54 -71.5t-65.5 -50.5t-75.5 -19q-68 0 -93 45t-10 125l65 337h73l-61 -320q-12 -64 -0.5 -93.5t49.5 -29.5q25 0 50.5 16t49.5 43 t45.5 62t38.5 72.5t29.5 74.5t18.5 69l20 106h74zM356 575l-123 119l50 46l113 -128z" />
<glyph unicode="&#xfa;" horiz-adv-x="564" d="M475 238q-1 -3 -4.5 -21.5l-8 -43.5l-10 -54l-10.5 -54.5l-8.5 -43.5t-3.5 -21h-74q5 26 17.5 75t41.5 137l-2 1q-18 -42 -42 -82t-54 -71.5t-65.5 -50.5t-75.5 -19q-68 0 -93 45t-10 125l65 337h73l-61 -320q-12 -64 -0.5 -93.5t49.5 -29.5q25 0 50.5 16t49.5 43 t45.5 62t38.5 72.5t29.5 74.5t18.5 69l20 106h74zM330 575l-31 41l144 124l39 -52z" />
<glyph unicode="&#xfb;" horiz-adv-x="564" d="M475 238q-1 -3 -4.5 -21.5l-8 -43.5l-10 -54l-10.5 -54.5l-8.5 -43.5t-3.5 -21h-74q5 26 17.5 75t41.5 137l-2 1q-18 -42 -42 -82t-54 -71.5t-65.5 -50.5t-75.5 -19q-68 0 -93 45t-10 125l65 337h73l-61 -320q-12 -64 -0.5 -93.5t49.5 -29.5q25 0 50.5 16t49.5 43 t45.5 62t38.5 72.5t29.5 74.5t18.5 69l20 106h74zM441 575l-82 86l-111 -86l-30 35l152 130l109 -128z" />
<glyph unicode="&#xfc;" horiz-adv-x="564" d="M475 238q-1 -3 -4.5 -21.5l-8 -43.5l-10 -54l-10.5 -54.5l-8.5 -43.5t-3.5 -21h-74q5 26 17.5 75t41.5 137l-2 1q-18 -42 -42 -82t-54 -71.5t-65.5 -50.5t-75.5 -19q-68 0 -93 45t-10 125l65 337h73l-61 -320q-12 -64 -0.5 -93.5t49.5 -29.5q25 0 50.5 16t49.5 43 t45.5 62t38.5 72.5t29.5 74.5t18.5 69l20 106h74zM308 659q0 -22 -14.5 -36t-34.5 -14t-33.5 13.5t-13.5 32.5q0 21 15 35t35 14t33 -13.5t13 -31.5zM496 659q0 -22 -14.5 -36t-34.5 -14t-33.5 13.5t-13.5 32.5q0 21 15 35t35 14t33 -13.5t13 -31.5z" />
<glyph unicode="&#xfd;" horiz-adv-x="475" d="M495 495q-48 -112 -95.5 -211.5t-95.5 -184.5t-95.5 -152.5t-95.5 -114.5q-44 -43 -87.5 -65.5t-86.5 -22.5q-19 0 -36.5 1.5t-31.5 5.5l13 69q14 -5 30 -7.5t33 -2.5q27 0 58 17t58 47q32 35 46.5 74t14.5 97q0 96 -19 213.5t-52 238.5h83q13 -51 24 -106t18.5 -108 t12 -101.5t4.5 -88.5q0 -15 -2.5 -33.5t-6.5 -35.5h2l60.5 109.5l58.5 115.5l58 126l61 142l69 -22v0zM273 575l-31 41l144 124l39 -52z" />
<glyph unicode="&#xfe;" horiz-adv-x="536" d="M426 344q0 54 -15 76.5t-40 22.5q-26 0 -51.5 -16.5t-49.5 -43.5t-45.5 -62t-39 -72.5t-30 -74t-18.5 -67.5l-8 -41q17 -6 39 -9.5t38 -3.5q60 0 101.5 27t68 69.5t38.5 94t12 100.5zM502 357q0 -68 -18 -133t-55.5 -116t-96 -82.5t-140.5 -31.5q-40 0 -76 6l-47 -249 h-74l188 979h74l-42 -213l-8.5 -43t-11.5 -49t-17 -62t-25 -81l2 -1q19 46 43.5 87.5t54.5 72t65.5 48.5t75.5 18q53 0 80.5 -36t27.5 -114z" />
<glyph unicode="&#xff;" horiz-adv-x="475" d="M495 495q-48 -112 -95.5 -211.5t-95.5 -184.5t-95.5 -152.5t-95.5 -114.5q-44 -43 -87.5 -65.5t-86.5 -22.5q-19 0 -36.5 1.5t-31.5 5.5l13 69q14 -5 30 -7.5t33 -2.5q27 0 58 17t58 47q32 35 46.5 74t14.5 97q0 96 -19 213.5t-52 238.5h83q13 -51 24 -106t18.5 -108 t12 -101.5t4.5 -88.5q0 -15 -2.5 -33.5t-6.5 -35.5h2l60.5 109.5l58.5 115.5l58 126l61 142l69 -22v0zM251 659q0 -22 -14.5 -36t-34.5 -14t-33.5 13.5t-13.5 32.5q0 21 15 35t35 14t33 -13.5t13 -31.5zM439 659q0 -22 -14.5 -36t-34.5 -14t-33.5 13.5t-13.5 32.5 q0 21 15 35t35 14t33 -13.5t13 -31.5z" />
<glyph unicode="&#x131;" horiz-adv-x="251" d="M116 0h-73l95 497h73z" />
<glyph unicode="&#x141;" horiz-adv-x="424" d="M370 0h-320l68 355l-79 -29l-16 57l108 40l47 252h75l-42 -221l115 42l15 -58l-143 -52l-60 -321h245z" />
<glyph unicode="&#x142;" horiz-adv-x="284" d="M226 480l-91 -480h-73l85 451l-71 -27l-15 55l98 37l42 214h73l-36 -184l82 30l16 -56z" />
<glyph unicode="&#x152;" horiz-adv-x="847" d="M510 604q-21 7 -42 10.5t-45 3.5q-63 0 -116 -29.5t-91.5 -80.5t-60 -118.5t-21.5 -143.5q0 -87 42 -137.5t124 -50.5q30 0 57.5 3.5t52.5 9.5l100 533v0zM845 613h-258l-44 -234h245l-11 -62h-246l-48 -253h258l-13 -64h-329q-54 -9 -109 -9q-121 0 -179.5 64t-58.5 181 q0 92 29 173.5t80.5 142.5t121.5 96.5t152 35.5q54 0 98 -9h324z" />
<glyph unicode="&#x153;" horiz-adv-x="840" d="M425 320q0 60 -27.5 91.5t-85.5 31.5q-44 0 -80 -22t-62 -58.5t-40 -83.5t-14 -98q0 -62 26.5 -94t87.5 -32q38 0 73.5 19t62.5 54t43 84t16 108zM741 387q0 30 -20.5 45.5t-52.5 15.5t-58.5 -13t-47.5 -35t-36.5 -52t-24.5 -64q126 5 183 30.5t57 72.5zM817 396 q0 -77 -80.5 -120.5t-246.5 -50.5q-2 -12 -4 -31t-2 -34q0 -32 6 -52.5t19.5 -32.5t35 -17t53.5 -5q35 0 70.5 7.5t66.5 21.5l4 -60q-36 -15 -77.5 -23t-90.5 -8q-65 0 -103 23.5t-49 79.5q-37 -48 -90.5 -75.5t-111.5 -27.5q-90 0 -134 45t-44 131q0 73 21.5 135 t59.5 107.5t90 71t113 25.5q66 0 106 -27.5t57 -75.5q34 47 81 75t110 28q37 0 63.5 -9t43.5 -24t25 -35t8 -42z" />
<glyph unicode="&#x160;" horiz-adv-x="451" d="M426 606q-26 8 -51 11.5t-43 3.5q-40 0 -69 -10.5t-48 -28t-28.5 -39t-9.5 -42.5q0 -33 15.5 -56.5t39.5 -42.5t51 -37t51 -39.5t39.5 -49.5t15.5 -68q0 -47 -19.5 -86.5t-54 -68.5t-82.5 -45.5t-106 -16.5q-25 0 -54 3t-53 11l15 75q20 -9 47.5 -15t52.5 -6q84 0 129 38 t45 99q0 31 -15.5 53t-38.5 40.5t-50.5 36t-50.5 39t-38.5 49.5t-15.5 69q0 40 16 76.5t46.5 64.5t75.5 44t104 16q24 0 46.5 -1.5t51.5 -7.5zM322 727l-141 82l27 45l120 -64l140 64l19 -43z" />
<glyph unicode="&#x161;" horiz-adv-x="383" d="M337 435q-19 7 -39 9.5t-40 2.5q-53 0 -80 -22.5t-27 -57.5q0 -22 12 -38.5t29.5 -31t38 -29t38 -31.5t29.5 -38t12 -49q0 -31 -13.5 -59.5t-40 -50.5t-65.5 -35.5t-90 -13.5q-25 0 -44.5 2t-38.5 5l13 70q20 -6 40 -10t43 -4q53 0 86 21.5t33 65.5q0 21 -12 37t-29.5 30 t-38 28t-38 31.5t-29.5 39.5t-12 52q0 31 12.5 57.5t36.5 46.5t59.5 31.5t82.5 11.5q26 0 46 -2t39 -6zM250 575l-109 128l39 37l82 -86l110 86l31 -36z" />
<glyph unicode="&#x178;" horiz-adv-x="516" d="M293 245l-46 -245h-75l46 244l-124 431h78l66 -241q9 -30 16 -60t13 -59h2q17 31 38.5 64l43.5 67l150 229h85zM291 781q0 -20 -13.5 -34t-32.5 -14q-20 0 -32 13t-12 32q0 20 13.5 33.5t32.5 13.5q20 0 32 -13t12 -31zM500 781q0 -20 -13.5 -34t-33.5 -14 q-19 0 -31.5 13t-12.5 32q0 20 13.5 33.5t33.5 13.5q19 0 31.5 -13t12.5 -31z" />
<glyph unicode="&#x17d;" horiz-adv-x="517" d="M541 618l-386 -486l-26 -32.5l-28 -32.5q17 2 62.5 2.5t111.5 0.5h166l-14 -70h-428l10 56l366 465l38 44.5l38 43.5q-26 -1 -61 -1.5t-88 -0.5h-177l13 68h414zM359 727l-141 82l27 45l120 -64l140 64l19 -43z" />
<glyph unicode="&#x17e;" horiz-adv-x="428" d="M410 445l-305 -378q11 0 27 0.5t34 1t37 0.5h37h104l-14 -69h-329l10 53l306 379q-23 -1 -55.5 -1.5t-74.5 -0.5h-99l13 67h320zM273 575l-109 128l39 37l82 -86l110 86l31 -36z" />
<glyph unicode="&#x192;" d="M578 624q-21 8 -44 12t-43 4q-50 0 -83 -30.5t-53 -99.5l-45 -159h152l-10 -59h-158l-74 -264q-28 -98 -83 -143t-143 -45q-43 0 -88 14l16 63q21 -7 44 -11t43 -4q50 0 83 29.5t52 97.5l74 263h-115l10 59h121l47 162q28 98 82.5 143t142.5 45q21 0 44 -3.5t44 -9.5z " />
<glyph unicode="&#x2c6;" horiz-adv-x="427" d="M349 575l-82 86l-111 -86l-30 35l152 130l109 -128z" />
<glyph unicode="&#x2c7;" horiz-adv-x="427" d="M237 575l-109 128l39 37l82 -86l110 86l31 -36z" />
<glyph unicode="&#x2d8;" horiz-adv-x="402" d="M416 718q-4 -25 -15 -48t-28.5 -40.5t-42 -28t-55.5 -10.5t-51.5 10.5t-31.5 28t-14 40.5t2 48h50q-5 -28 8.5 -48.5t45.5 -20.5q30 0 50.5 18t26.5 51h55v0z" />
<glyph unicode="&#x2d9;" horiz-adv-x="276" d="M273 660q0 -23 -15.5 -38.5t-37.5 -15.5q-21 0 -35 14t-14 34q0 23 16 38.5t37 15.5q22 0 35.5 -14t13.5 -34z" />
<glyph unicode="&#x2da;" horiz-adv-x="382" d="M333 658q0 23 -15 39t-38 16q-24 0 -42 -18t-18 -45q0 -23 15 -39t38 -16t41.5 18t18.5 45zM383 661q0 -24 -9.5 -44.5t-25.5 -35.5t-36 -23.5t-42 -8.5q-43 0 -72 27.5t-29 70.5q0 25 9.5 45.5t25.5 35.5t36.5 23t42.5 8q44 0 72 -28t28 -70z" />
<glyph unicode="&#x2db;" horiz-adv-x="299" d="M116 0q-54 -32 -76.5 -64.5t-22.5 -54.5q0 -11 6.5 -18.5t21.5 -7.5q13 0 26.5 7t25.5 22l33 -33q-21 -28 -50.5 -43t-61.5 -15q-39 0 -58.5 19t-19.5 49q0 33 25.5 71.5t79.5 72.5z" />
<glyph unicode="&#x2dc;" horiz-adv-x="498" d="M456 673q-20 -35 -47.5 -54t-59.5 -19q-24 0 -40 8.5t-29 19l-25 19.5t-28 9q-33 0 -63 -47l-38 31q20 35 46.5 54t58.5 19q24 0 40 -9t29.5 -19.5t26.5 -19t29 -8.5q32 0 62 47l38 -31v0z" />
<glyph unicode="&#x2dd;" horiz-adv-x="478" d="M188 575l-37 34l133 134l44 -43zM352 575l-36 34l140 129l42 -45z" />
<glyph unicode="&#x394;" horiz-adv-x="593" d="M-16 0l11 55l340 620h90l104 -620l-9 -55h-536zM371 543q-2 13 -3 28.5t-2 29.5h-1q-12 -28 -29 -61l-255 -473h368z" />
<glyph unicode="&#x2206;" horiz-adv-x="593" d="M-16 0l11 55l340 620h90l104 -620l-9 -55h-536zM371 543q-2 13 -3 28.5t-2 29.5h-1q-12 -28 -29 -61l-255 -473h368z" />
<glyph unicode="&#x3a9;" horiz-adv-x="707" d="M387 0l12 64q108 74 155 166t47 202q0 88 -41.5 137t-129.5 49q-68 0 -120.5 -33.5t-89 -85t-55.5 -113.5t-19 -119q0 -62 22.5 -109t72.5 -94l-11 -64h-231l13 65h150q-45 36 -71 87.5t-26 118.5q0 68 25 141t73.5 133.5t119 99.5t160.5 39q114 0 177.5 -61.5 t63.5 -179.5q0 -120 -53.5 -216.5t-148.5 -161.5h148l-13 -65h-230z" />
<glyph unicode="&#x2126;" horiz-adv-x="707" d="M387 0l12 64q108 74 155 166t47 202q0 88 -41.5 137t-129.5 49q-68 0 -120.5 -33.5t-89 -85t-55.5 -113.5t-19 -119q0 -62 22.5 -109t72.5 -94l-11 -64h-231l13 65h150q-45 36 -71 87.5t-26 118.5q0 68 25 141t73.5 133.5t119 99.5t160.5 39q114 0 177.5 -61.5 t63.5 -179.5q0 -120 -53.5 -216.5t-148.5 -161.5h148l-13 -65h-230z" />
<glyph unicode="&#x3c0;" horiz-adv-x="621" d="M495 435q-19 -104 -27.5 -174t-8.5 -115q0 -52 10 -71t31 -19q11 0 23 2t23 5l-2 -62q-29 -8 -66 -8q-50 0 -72 31.5t-22 108.5q0 51 10 125t29 177h-180q-18 -109 -55 -222.5t-97 -222.5l-73 20q61 111 98.5 213.5t55.5 211.5h-125l12 62h577l-13 -62h-128z" />
<glyph unicode="&#x2013;" d="M554 265h-550l12 65h550z" />
<glyph unicode="&#x2014;" horiz-adv-x="1000" d="M883 265h-759l13 65h758z" />
<glyph unicode="&#x2018;" horiz-adv-x="230" d="M278 713q-56 -47 -69 -81.5t1 -58.5q7 -12 6.5 -24.5t-6.5 -23t-17 -17.5t-25 -7q-26 0 -40.5 20.5t-9.5 55t35.5 78.5t96.5 92l28 -34v0z" />
<glyph unicode="&#x2019;" horiz-adv-x="230" d="M204 740q25 0 40 -20.5t10 -54.5t-35.5 -78.5t-96.5 -91.5l-28 33q28 24 44.5 44t24 37.5t7 32t-7.5 26.5q-6 12 -6 24q0 13 6 23.5t17 17.5t25 7z" />
<glyph unicode="&#x201a;" horiz-adv-x="230" d="M76 99q25 0 40 -20.5t10 -54.5t-35.5 -78.5t-96.5 -91.5l-28 33q28 24 44.5 44t24 37.5t7 32.5t-7.5 27q-6 12 -6 24q0 13 6 23.5t17 17t25 6.5z" />
<glyph unicode="&#x201c;" horiz-adv-x="404" d="M278 714q-28 -24 -44.5 -44t-24 -37.5t-7 -32t7.5 -26.5q6 -12 6 -25q0 -12 -6 -22.5t-17 -17.5t-25 -7q-26 0 -40.5 20.5t-9.5 54.5t35.5 78.5t96.5 91.5l28 -33v0zM455 714q-28 -24 -44.5 -44t-24 -37.5t-7 -32t7.5 -26.5q6 -12 6 -25q0 -12 -6 -22.5t-16.5 -17.5 t-24.5 -7q-26 0 -41 20.5t-9.5 54.5t36 78.5t95.5 91.5l28 -33v0z" />
<glyph unicode="&#x201d;" horiz-adv-x="404" d="M204 741q25 0 40 -20.5t10 -54.5t-35.5 -78.5t-96.5 -91.5l-28 33q28 24 44.5 44t24 37.5t7 32t-7.5 26.5q-6 12 -6 24q0 13 6 23.5t17 17.5t25 7zM380 741q26 0 41 -20.5t9.5 -54.5t-36 -78.5t-96.5 -91.5l-28 33q28 24 45 44t24.5 37.5t7 32t-7.5 26.5t-6.5 24.5t6 23 t16.5 17.5t25 7z" />
<glyph unicode="&#x201e;" horiz-adv-x="404" d="M76 99q25 0 40 -20.5t10 -54.5t-35.5 -78.5t-96.5 -91.5l-28 33q28 24 44.5 44t24 37.5t7 32.5t-7.5 27q-6 12 -6 24q0 13 6 23.5t17 17t25 6.5zM253 99q26 0 41 -20.5t9.5 -54.5t-36 -78.5t-96.5 -91.5l-28 33q28 24 45 44t24.5 37.5t7 32.5t-7.5 27t-6.5 24.5t6 23 t16.5 17t25 6.5z" />
<glyph unicode="&#x2020;" horiz-adv-x="436" d="M448 566h-139l-5 -101l-64 -249h-53l31 249l34 101h-139l10 59h140l11 137h87l-40 -137h139z" />
<glyph unicode="&#x2021;" horiz-adv-x="436" d="M449 571h-138l-7 -107l-34 -106h138l-11 -59h-139l-11 -133h-86l39 133h-139l12 59h138l6 106l35 107h-138l10 58h139l11 133h87l-39 -133h138z" />
<glyph unicode="&#x2022;" horiz-adv-x="419" d="M330 302q0 -24 -9 -45t-24.5 -36.5t-36 -24.5t-43.5 -9t-42.5 8.5t-34 23t-22.5 33.5t-8 40q0 24 9 45t24.5 36.5t36 24.5t43.5 9q22 0 42 -8.5t34 -23t22.5 -33.5t8.5 -40z" />
<glyph unicode="&#x2026;" horiz-adv-x="629" d="M128 48q0 -24 -16.5 -40t-38.5 -16t-35.5 15t-13.5 35q0 25 16 40.5t39 15.5q22 0 35.5 -15t13.5 -35zM331 48q0 -24 -16 -40t-39 -16q-22 0 -35.5 15t-13.5 35q0 25 16.5 40.5t38.5 15.5q23 0 36 -15t13 -35zM535 48q0 -24 -16.5 -40t-38.5 -16t-35.5 15t-13.5 35 q0 25 16 40.5t39 15.5q22 0 35.5 -15t13.5 -35z" />
<glyph unicode="&#x2030;" horiz-adv-x="997" d="M555 184q0 28 -12 42t-41 14q-26 0 -44 -14.5t-29.5 -35.5t-17 -45.5t-5.5 -45.5q0 -28 12 -42t40 -14q26 0 44.5 14t30 35.5t17 46t5.5 45.5zM305 551q0 27 -12 41.5t-40 14.5q-26 0 -44.5 -14.5t-30 -35.5t-17 -45.5t-5.5 -45.5q0 -56 53 -56q26 0 44.5 14t30 35.5 t16.5 46t5 45.5zM864 184q0 28 -12 42t-41 14q-26 0 -44 -14.5t-29.5 -35.5t-17 -45.5t-5.5 -45.5q0 -28 12 -42t40 -14q27 0 45.5 14t30 35.5t16.5 46t5 45.5zM616 190q0 -38 -11.5 -74t-33 -64t-52.5 -44.5t-69 -16.5q-48 0 -77 23.5t-29 78.5q0 36 11.5 72t32.5 64 t52 45.5t70 17.5q48 0 77 -23t29 -79zM53 -15l-38 39l642 641l39 -40zM367 557q0 -39 -11.5 -74.5t-33 -63.5t-52.5 -44.5t-69 -16.5q-48 0 -77 23.5t-29 78.5q0 36 11.5 72t32.5 64t52 45.5t70 17.5q48 0 77 -23.5t29 -78.5zM925 190q0 -38 -11.5 -74t-33 -64t-52 -44.5 t-69.5 -16.5q-48 0 -76.5 23.5t-28.5 78.5q0 36 11.5 72t32.5 64t51.5 45.5t69.5 17.5q48 0 77 -23t29 -79z" />
<glyph unicode="&#x2039;" horiz-adv-x="307" d="M143 294l76 -140l-59 -33l-92 178l149 170l51 -35z" />
<glyph unicode="&#x203a;" horiz-adv-x="307" d="M115 121l-52 35l125 139l-76 141l59 33l92 -178z" />
<glyph unicode="&#x2044;" horiz-adv-x="404" d="M-12 -24l-49 40l546 681l48 -40z" />
<glyph unicode="&#x2215;" horiz-adv-x="404" d="M-12 -24l-49 40l546 681l48 -40z" />
<glyph unicode="&#x20ac;" d="M548 569q-23 13 -54.5 21t-62.5 8q-42 0 -75 -13.5t-59.5 -37t-46 -54.5t-32.5 -66h200l-10 -52h-209q-14 -50 -18 -96h209l-9 -52h-204q-2 -39 3.5 -71t21.5 -54.5t45.5 -34.5t75.5 -12q35 0 71 9t65 21l13 -60q-41 -17 -85 -25.5t-81 -8.5q-63 0 -104.5 17.5t-65 48.5 t-32 74.5t-6.5 95.5h-90l9 52h86q3 23 7 47t12 49h-86l10 52h93q17 46 43.5 88t64 74t87 51t112.5 19q32 0 66.5 -8t60.5 -19z" />
<glyph unicode="&#x2122;" horiz-adv-x="689" d="M330 628h-74l-44 -234h-59l45 234h-76l9 47h208zM660 394h-58l7 158l3 56l-21 -48l-81 -166h-61l-16 168l-3 46l-11 -37l-58 -177h-54l94 281h77l16 -166l3 -48l16 43l84 171h75z" />
<glyph unicode="&#x2202;" horiz-adv-x="629" d="M454 256q0 22 -7 43t-22.5 37.5t-40 26t-58.5 9.5q-36 0 -68 -14.5t-55 -41t-36.5 -62t-13.5 -77.5q0 -56 30 -88.5t87 -32.5q36 0 69 15t58.5 42t41 63.5t15.5 79.5zM585 472q0 -53 -9 -109.5t-27 -109.5t-45 -100.5t-64 -83t-83 -56.5t-101 -21q-48 0 -82 13.5t-56 37 t-32 55t-10 66.5q0 58 20.5 108t56 86t83.5 56.5t104 20.5t100 -27t57 -78q1 25 7 60t5 73q-2 99 -54 154.5t-148 55.5l21 62q63 -2 111.5 -22.5t80.5 -55.5t48.5 -82t16.5 -103z" />
<glyph unicode="&#x220f;" horiz-adv-x="846" d="M805 665h-107l-177 -914h-71l176 914h-319l-177 -914h-72l177 914h-107l13 65h676z" />
<glyph unicode="&#x2211;" horiz-adv-x="676" d="M610 665h-386l213 -423l-382 -423h408l-14 -68h-504l11 58l394 440l-211 423l11 58h471z" />
<glyph unicode="&#x2212;" d="M510 265h-463l13 65h463z" />
<glyph unicode="&#x221a;" horiz-adv-x="603" d="M282 0h-84l-68 439h-92l12 58h149l41 -301q4 -30 7.5 -60t5.5 -60h2l25 55l26 56l269 571h81z" />
<glyph unicode="&#x221e;" horiz-adv-x="980" d="M428 300l-41.5 36t-41 30t-40.5 20.5t-41 7.5q-26 0 -48 -9.5t-38 -25.5t-25 -38t-9 -46q0 -31 19.5 -51.5t58.5 -20.5q20 0 43.5 8t50 21.5t54.5 31zM830 323q0 30 -19.5 50.5t-60.5 20.5q-20 0 -43 -8t-49 -21.5t-54 -31l-58 -36.5q42 -38 82 -66t81 -28q27 0 49 9.5 t38 26t25 38t9 46.5zM906 334q0 -34 -13.5 -69t-39 -63t-63 -46t-86.5 -18q-31 0 -60 9.5t-57 25.5t-54.5 37t-51.5 44q-34 -23 -68.5 -43.5t-68 -37t-66 -26t-62.5 -9.5q-77 0 -112.5 35.5t-35.5 90.5q0 42 16.5 77.5t44 62t63.5 41.5t76 15q31 0 61 -10t58 -26t54.5 -37.5 l52.5 -43.5l69 43.5t68.5 37.5t65.5 26t61 10q39 0 67 -10t46 -27t26.5 -40t8.5 -49z" />
<glyph unicode="&#x222b;" horiz-adv-x="335" d="M392 663q-9 3 -22 5.5t-26 2.5q-19 0 -34.5 -7.5t-29 -27.5t-24.5 -54t-21 -88q-11 -58 -20 -112l-18 -112l-20 -124t-27 -147q-14 -73 -31.5 -122t-41 -79t-53.5 -42.5t-68 -12.5q-27 0 -49 6l13 67q10 -4 22.5 -6.5t25.5 -2.5q19 0 35 7.5t29 27t23.5 53t20.5 84.5 q11 56 19.5 110.5l18 113.5l20.5 126.5t27 148.5q14 74 31.5 123.5t41 79t54 42t69.5 12.5q12 0 24.5 -1.5t23.5 -4.5z" />
<glyph unicode="&#x2248;" d="M494 206q-24 -21 -58 -37.5t-72 -16.5q-36 0 -59.5 9.5t-42.5 20.5t-39.5 20.5t-50.5 9.5q-31 0 -58 -14.5t-44 -27.5l-27 53q24 19 57.5 36.5t73.5 17.5q34 0 57 -9.5t43 -21.5t41.5 -21.5t51.5 -9.5q26 0 50.5 11.5t51.5 32.5l25 -53v0zM526 372q-23 -22 -56 -38.5 t-73 -16.5q-36 0 -59 9.5t-42 20.5t-39.5 20.5t-51.5 9.5q-32 0 -59 -14t-44 -28l-26 54q25 20 59 36.5t73 16.5q34 0 57.5 -9.5t43.5 -21.5t40.5 -21.5t49.5 -9.5q26 0 50.5 12.5t50.5 32.5l26 -53v0z" />
<glyph unicode="&#x2260;" d="M515 347h-168l-59 -100h208l-12 -62h-233l-87 -146h-66l86 146h-141l12 62h166l59 100h-206l12 63h230l89 149h67l-89 -149h143z" />
<glyph unicode="&#x2264;" d="M437 0h-417l12 63h417zM189 364l272 -191l-49 -54l-331 250l411 240l35 -54z" />
<glyph unicode="&#x2265;" d="M437 0h-417l12 63h417zM103 119l-37 55l339 191l-273 192l49 52l333 -249z" />
<glyph unicode="&#x25ca;" horiz-adv-x="604" d="M374 601l-231 -261l136 -265l232 257zM287 -8h-46l-178 349l305 342h45l178 -348z" />
<glyph unicode="&#xe000;" horiz-adv-x="520" d="M0 520h520v-520h-520v520z" />
<glyph unicode="&#xf6c9;" horiz-adv-x="379" d="M204 729l-13 44l181 74l17 -61z" />
<glyph unicode="&#xf6ca;" horiz-adv-x="427" d="M307 727l-141 82l27 45l120 -64l140 64l19 -43z" />
<glyph unicode="&#xf6cb;" horiz-adv-x="535" d="M302 781q0 -20 -13.5 -34t-32.5 -14q-20 0 -32 13t-12 32q0 20 13.5 33.5t32.5 13.5q20 0 32 -13t12 -31zM511 781q0 -20 -13.5 -34t-33.5 -14q-19 0 -31.5 13t-12.5 32q0 20 13.5 33.5t33.5 13.5q19 0 31.5 -13t12.5 -31z" />
<glyph unicode="&#xf6ce;" horiz-adv-x="360" d="M354 729l-182 57l29 61l172 -74z" />
<glyph unicode="&#xf8ff;" horiz-adv-x="1040" d="M143 357v-36l-118 -7q-2 26 0 50zM529 355q2 0 3.5 5t-0.5 5q2 -5 -3 -10zM527 357q5 0 2.5 2t0.5 2v1q-4 0 -2 -2t-1 -2v-1v0zM525 361q-2 2 -2.5 -2t2.5 2zM524 357h1l1 5q-4 1 -4.5 -3.5t3.5 0.5zM520 355q-2 5 3 10q-2 0 -3.5 -5t0.5 -5zM517 358q-2 -1 -1.5 1.5 t2.5 1.5v1q-2 1 -3.5 -2.5t2.5 -2.5v1zM513 362l-1 -3q-1 -2 -1 0l1 3h-1l-1 -3q-1 -2 0 -2q2 0 3 2l1 3h-1zM509 358h-2l2 6h-1l-2 -6q0 -1 1 -1h2v1zM634 0l-244 -62l26 -64h210l14 35l-7 15l-76 -20l-11 30l105 26zM633 82l-244 -63l18 -42l244 61zM394 156v-57l16 -40 l237 60v37h-253zM566 338q-14 2 -24 2.5t-21 0.5t-22 -0.5t-25 -2.5l14 -147h64l14 147v0zM458 191l-16 141q-13 -3 -21 -6.5t-15 -5.5t-10.5 3.5t-4.5 13t1 15t6 8.5q28 8 59.5 13.5t63.5 5.5t63.5 -5.5t60.5 -13.5q3 -1 4.5 -8t1 -15t-4 -13.5t-10.5 -3.5q-7 4 -16.5 6.5 l-21.5 5.5l-15 -141h63q26 24 46.5 62t20.5 86q0 40 -15 75t-41 61.5t-61 41.5t-75 15t-75.5 -15t-61.5 -41.5t-41.5 -61.5t-15.5 -75q0 -42 17.5 -81t51.5 -67h62zM756 339q0 -53 -19.5 -96t-48.5 -70v-76l-16 -5l31 -74l-29 -7l29 -71l-30 -8l11 -25l-29 -66h-49 q-2 -18 -26.5 -30.5t-58.5 -12.5q-35 0 -59.5 12.5t-26.5 30.5h-49l-48 118l30 8l-31 74l34 8l-19 46v78q-29 29 -48.5 72t-19.5 94q0 49 18.5 92t50.5 75t75 50.5t93 18.5q48 0 91 -18.5t75 -50.5t50.5 -75t18.5 -92zM1015 364q1 -13 1 -25v-25l-118 7q2 18 0 36l117 7v0z M846 700q10 -8 18.5 -16.5t16.5 -18.5l-86 -77q-12 14 -26 26zM539 700q-9 1 -18.5 0.5t-18.5 -0.5l-6 116q26 2 49 0l-6 -116v0zM159 666q8 10 16.5 18.5t18.5 16.5l78 -88q-12 -10 -26 -25l-87 78v0z" />
<glyph horiz-adv-x="427" d="M439 727l-120 64l-140 -64l-19 43l165 84l141 -81z" />
<glyph horiz-adv-x="498" d="M532 808q-20 -34 -48 -52t-60 -18q-25 0 -42 8.5t-31 18.5l-27 18.5t-29 8.5q-35 0 -66 -46l-37 29q40 70 107 70q25 0 42 -8.5t31 -18.5l26.5 -18.5t29.5 -8.5q34 0 66 46l38 -29v0z" />
</font>
</defs>
</svg>
